<?xml version="1.0" encoding="UTF-8" standalone="no"?>
<!-- Created with Inkscape (http://www.inkscape.org/) -->

<svg
   version="1.1"
   id="svg1"
   width="666.66669"
   height="666.66669"
   viewBox="0 0 666.66669 666.66669"
   sodipodi:docname="camionnette.svg"
   inkscape:version="1.3.1 (9b9bdc1480, 2023-11-25, custom)"
   xmlns:inkscape="http://www.inkscape.org/namespaces/inkscape"
   xmlns:sodipodi="http://sodipodi.sourceforge.net/DTD/sodipodi-0.dtd"
   xmlns="http://www.w3.org/2000/svg"
   xmlns:svg="http://www.w3.org/2000/svg">
  <defs
     id="defs1" />
  <sodipodi:namedview
     id="namedview1"
     pagecolor="#ffffff"
     bordercolor="#000000"
     borderopacity="0.25"
     inkscape:showpageshadow="2"
     inkscape:pageopacity="0.0"
     inkscape:pagecheckerboard="0"
     inkscape:deskcolor="#d1d1d1"
     inkscape:zoom="0.8570134"
     inkscape:cx="328.46628"
     inkscape:cy="288.2102"
     inkscape:window-width="1854"
     inkscape:window-height="1011"
     inkscape:window-x="0"
     inkscape:window-y="0"
     inkscape:window-maximized="1"
     inkscape:current-layer="g1">
    <inkscape:page
       x="0"
       y="0"
       inkscape:label="1"
       id="page1"
       width="666.66669"
       height="666.66669"
       margin="0"
       bleed="0" />
  </sodipodi:namedview>
  <g
     id="g1"
     inkscape:groupmode="layer"
     inkscape:label="1">
    <path
       id="path2"
       d="M 666.66665,666.66667 H 0 V 2e-5 h 666.66665 v 666.66665"
       style="fill:#ffffff;fill-opacity:1;fill-rule:nonzero;stroke:none;stroke-width:0.133333" />
    <path
       id="path3"
       d="m 652.51598,586.55574 c 0,22.54013 -139.84133,40.812 -312.34266,40.812 -172.50132,0 -312.341587,-18.27187 -312.341587,-40.812 0,-22.5396 139.840267,-40.8104 312.341587,-40.8104 172.50133,0 312.34266,18.2708 312.34266,40.8104"
       style="fill:#a8a858;fill-opacity:1;fill-rule:nonzero;stroke:none;stroke-width:0.133333" />
    <path
       id="path4"
       d="m 583.41999,569.84787 c 0,13.48814 -108.11067,24.41987 -241.47067,24.41987 -133.36133,0 -241.47279,-10.93173 -241.47279,-24.41987 0,-13.4864 108.11146,-24.41866 241.47279,-24.41866 133.36,0 241.47067,10.93226 241.47067,24.41866"
       style="fill:#7a7838;fill-opacity:1;fill-rule:nonzero;stroke:none;stroke-width:0.133333" />
    <path
       id="path5"
       d="m 518.44799,598.42547 c 1.89866,3.37187 3.79866,6.74387 5.69733,10.1172 0.41467,0.73187 1.47867,1.0412 2.2,0.57613 0.74267,-0.4776 1.02,-1.41466 0.57733,-2.2 -1.9,-3.37346 -3.8,-6.74533 -5.69866,-10.11719 -0.41334,-0.73387 -1.47867,-1.04174 -2.2,-0.5776 -0.74134,0.47866 -1.01867,1.41613 -0.576,2.20146 v 0"
       style="fill:#7a7838;fill-opacity:1;fill-rule:nonzero;stroke:none;stroke-width:0.133333" />
    <path
       id="path6"
       d="m 526.68132,597.01974 c -1.23067,2.87507 -2.46267,5.7496 -3.69467,8.6256 -0.33066,0.7708 -0.25733,1.75986 0.576,2.2 0.692,0.36506 1.84667,0.24786 2.2,-0.5776 1.23334,-2.8756 2.46534,-5.75054 3.696,-8.62507 0.33067,-0.7708 0.256,-1.76146 -0.576,-2.2 -0.692,-0.3656 -1.84666,-0.24786 -2.20133,0.57707 v 0"
       style="fill:#7a7838;fill-opacity:1;fill-rule:nonzero;stroke:none;stroke-width:0.133333" />
    <path
       id="path7"
       d="m 536.87465,594.30521 c -2.48,2.776 -3.50933,6.44786 -2.936,10.11093 0.12934,0.83333 1.21734,1.36933 1.97734,1.124 0.90666,-0.2948 1.26266,-1.08547 1.124,-1.98027 -0.0293,-0.18533 -0.0293,-0.17867 0,0.0265 -0.0107,-0.0905 -0.0213,-0.1796 -0.0293,-0.2692 -0.016,-0.17973 -0.028,-0.36146 -0.0347,-0.5412 -0.0147,-0.35986 -0.009,-0.72293 0.016,-1.0812 0.0133,-0.1812 0.0307,-0.36146 0.0507,-0.53906 -0.0453,0.412 0.0307,-0.16774 0.0453,-0.24214 0.0667,-0.35626 0.15066,-0.7068 0.252,-1.05373 0.104,-0.34626 0.22266,-0.688 0.36,-1.0224 -0.14534,0.35734 0.0853,-0.17346 0.116,-0.2348 0.0787,-0.16146 0.16133,-0.32146 0.24933,-0.48026 0.17467,-0.31454 0.36667,-0.6224 0.57467,-0.9156 0.0507,-0.0751 0.104,-0.148 0.15733,-0.2204 -0.11467,0.14533 -0.116,0.14693 -0.003,0.004 0.11734,-0.13853 0.23334,-0.27706 0.35334,-0.412 0.56,-0.62653 0.66533,-1.66413 0,-2.27346 -0.612,-0.56254 -1.676,-0.67027 -2.27334,0 v 0"
       style="fill:#7a7838;fill-opacity:1;fill-rule:nonzero;stroke:none;stroke-width:0.133333" />
    <path
       id="path8"
       d="m 546.41199,596.22921 c -0.40134,1.23586 -0.8,2.47186 -1.2,3.7068 -0.26,0.79999 0.30133,1.79053 1.12266,1.97853 0.88134,0.2 1.7,-0.26507 1.97734,-1.12387 0.40133,-1.236 0.80133,-2.46933 1.20133,-3.7052 0.26,-0.8016 -0.30133,-1.79226 -1.12267,-1.98026 -0.88266,-0.2 -1.70133,0.26826 -1.97866,1.124 v 0"
       style="fill:#7a7838;fill-opacity:1;fill-rule:nonzero;stroke:none;stroke-width:0.133333" />
    <path
       id="path9"
       d="m 590.92132,580.58121 c 3.676,3.3068 7.352,6.61613 11.02933,9.92293 0.644,0.58133 1.636,0.63707 2.27333,0 0.59067,-0.5896 0.648,-1.6896 0,-2.27347 -3.676,-3.30826 -7.35199,-6.61706 -11.02933,-9.92386 -0.644,-0.58134 -1.636,-0.63747 -2.27333,0 -0.59067,0.58906 -0.648,1.69053 0,2.2744 v 0"
       style="fill:#7a7838;fill-opacity:1;fill-rule:nonzero;stroke:none;stroke-width:0.133333" />
    <path
       id="path10"
       d="m 604.32798,577.31974 c -2.512,3.90573 -3.87866,8.47867 -3.97733,13.11773 -0.0427,2.07187 3.17333,2.0704 3.216,0 0.0867,-4.08693 1.32267,-8.04946 3.53867,-11.4948 0.46933,-0.73066 0.14933,-1.7744 -0.57734,-2.2 -0.77866,-0.45466 -1.72933,-0.15466 -2.2,0.57707 v 0"
       style="fill:#7a7838;fill-opacity:1;fill-rule:nonzero;stroke:none;stroke-width:0.133333" />
    <path
       id="path11"
       d="m 613.50798,580.42654 c -2.87466,2.0532 -5.74933,4.1068 -8.624,6.15987 -0.68266,0.48813 -1.07733,1.424 -0.57733,2.2 0.436,0.6776 1.46933,1.09906 2.2,0.5776 2.876,-2.0536 5.75067,-4.10667 8.62533,-6.16134 0.68267,-0.48813 1.07734,-1.424 0.57734,-2.2 -0.43734,-0.67866 -1.46934,-1.1 -2.20134,-0.57613 v 0"
       style="fill:#7a7838;fill-opacity:1;fill-rule:nonzero;stroke:none;stroke-width:0.133333" />
    <path
       id="path12"
       d="m 73.302132,585.07347 c 1.378533,3.264 3.754133,6.03587 6.670266,8.0276 0.6964,0.4776 1.8136,0.15467 2.200533,-0.5756 0.430667,-0.81613 0.1656,-1.69373 -0.5776,-2.20146 -0.1636,-0.112 -0.326,-0.224 -0.486533,-0.3412 -0.08013,-0.0588 -0.1588,-0.1188 -0.238,-0.17867 -0.158267,-0.11773 0.229733,0.188 -0.0036,-0.004 -0.3052,-0.25467 -0.609867,-0.5068 -0.9016,-0.776 -0.583333,-0.53854 -1.128133,-1.1188 -1.630667,-1.73187 -0.05,-0.0615 -0.09893,-0.12387 -0.148933,-0.18693 -0.255333,-0.31454 0.201467,0.276 -0.04013,-0.0505 -0.117734,-0.15986 -0.234934,-0.31866 -0.348,-0.4812 -0.216134,-0.30946 -0.421334,-0.62653 -0.6156,-0.94946 -0.420267,-0.69587 -0.7864,-1.42294 -1.102534,-2.17347 -0.145333,-0.34373 -0.621333,-0.64533 -0.961466,-0.73853 -0.384934,-0.1068 -0.897467,-0.0589 -1.239067,0.16253 -0.809466,0.52027 -0.928666,1.36667 -0.577066,2.19893 v 0"
       style="fill:#7a7838;fill-opacity:1;fill-rule:nonzero;stroke:none;stroke-width:0.133333" />
    <path
       id="path13"
       d="m 83.908798,586.20414 c -0.818667,2.05467 -1.637467,4.10893 -2.455733,6.1636 -0.144267,0.36147 -0.02653,0.91613 0.162533,1.23747 0.1948,0.33493 0.577067,0.6536 0.960933,0.74013 0.411467,0.0932 0.873467,0.0735 1.238534,-0.16253 0.374,-0.24014 0.5756,-0.54947 0.7396,-0.96147 0.8188,-2.05467 1.637066,-4.10933 2.455199,-6.164 0.1448,-0.36147 0.02653,-0.91613 -0.162,-1.2376 -0.194799,-0.33427 -0.577599,-0.65307 -0.960933,-0.73947 -0.411466,-0.0939 -0.873866,-0.0735 -1.239066,0.1624 -0.373334,0.24014 -0.575467,0.54947 -0.739067,0.96147 v 0"
       style="fill:#7a7838;fill-opacity:1;fill-rule:nonzero;stroke:none;stroke-width:0.133333" />
    <path
       id="path14"
       d="m 91.869331,584.25734 c -2.942267,3.22547 -5.883866,6.44947 -8.826133,9.67333 -0.5672,0.62147 -0.6604,1.66934 0,2.27454 0.617733,0.56666 1.6688,0.66413 2.274,0 2.942133,-3.224 5.8844,-6.44947 8.826,-9.67347 0.5672,-0.62133 0.6604,-1.66773 0,-2.2744 -0.617734,-0.56667 -1.668134,-0.66413 -2.273867,0 v 0"
       style="fill:#7a7838;fill-opacity:1;fill-rule:nonzero;stroke:none;stroke-width:0.133333" />
    <path
       id="path15"
       d="m 247.17466,613.84014 c 2.05733,1.6396 4.11333,3.27706 6.17067,4.9156 0.34666,0.276 0.676,0.4708 1.13733,0.4708 0.39467,0 0.86533,-0.1744 1.13733,-0.4708 0.53467,-0.58227 0.70267,-1.71307 0,-2.27294 -2.05733,-1.64013 -4.11333,-3.2776 -6.17066,-4.91613 -0.34667,-0.276 -0.676,-0.4708 -1.13734,-0.4708 -0.39466,0 -0.86533,0.17347 -1.13733,0.4708 -0.53467,0.5828 -0.70267,1.7136 0,2.27347 v 0"
       style="fill:#7a7838;fill-opacity:1;fill-rule:nonzero;stroke:none;stroke-width:0.133333" />
    <path
       id="path16"
       d="m 258.40666,612.78547 c -2.156,2.19053 -3.704,4.98387 -4.36933,7.988 -0.18134,0.82133 0.248,1.77867 1.124,1.9796 0.81333,0.1844 1.784,-0.2452 1.97866,-1.12387 0.14667,-0.66413 0.33467,-1.3172 0.56934,-1.95573 0.056,-0.14947 0.11466,-0.29747 0.17333,-0.44693 0.0973,-0.24374 -0.0387,0.0333 -0.0227,0.0521 -0.0107,-0.0136 0.10667,-0.24013 0.12134,-0.27347 0.14266,-0.30933 0.29466,-0.61306 0.456,-0.912 0.316,-0.5796 0.66933,-1.13853 1.05733,-1.6708 0.0453,-0.0609 0.12,-0.2052 0.17867,-0.2412 -0.0773,0.0469 -0.16267,0.20427 -0.0293,0.0412 0.10134,-0.1224 0.20134,-0.2464 0.30667,-0.36933 0.23333,-0.2728 0.47733,-0.53587 0.73067,-0.7932 0.59066,-0.6 0.64266,-1.6828 0,-2.2744 -0.63867,-0.58547 -1.644,-0.64013 -2.27467,0 v 0"
       style="fill:#7a7838;fill-opacity:1;fill-rule:nonzero;stroke:none;stroke-width:0.133333" />
    <path
       id="path17"
       d="m 266.89599,612.63334 c -2.78933,2.16253 -5.58,4.32653 -8.36933,6.48906 -0.668,0.5188 -0.58533,1.73747 0,2.27494 0.708,0.6496 1.56133,0.55213 2.27467,0 2.78933,-2.164 5.57866,-4.32654 8.36933,-6.49054 0.668,-0.51773 0.58533,-1.73746 0,-2.27346 -0.70933,-0.65054 -1.56133,-0.55307 -2.27467,0 v 0"
       style="fill:#7a7838;fill-opacity:1;fill-rule:nonzero;stroke:none;stroke-width:0.133333" />
    <path
       id="path18"
       d="m 415.87866,604.03174 c 1.652,2.04533 3.304,4.09066 4.95733,6.13653 0.24267,0.30107 0.768,0.47187 1.13733,0.47187 0.39334,0 0.86534,-0.17614 1.13734,-0.47187 0.28133,-0.30573 0.48933,-0.7084 0.47066,-1.13653 -0.02,-0.45147 -0.188,-0.788 -0.47066,-1.13854 -1.65334,-2.04533 -3.30534,-4.09053 -4.95867,-6.13586 -0.24267,-0.3016 -0.768,-0.47094 -1.13733,-0.47094 -0.39467,0 -0.86534,0.17507 -1.136,0.47094 -0.28134,0.30666 -0.49067,0.70933 -0.472,1.13746 0.02,0.45054 0.18933,0.788 0.472,1.13694 v 0"
       style="fill:#7a7838;fill-opacity:1;fill-rule:nonzero;stroke:none;stroke-width:0.133333" />
    <path
       id="path19"
       d="m 424.30399,601.8984 c -0.888,2.0256 -1.77733,4.04854 -2.66533,6.07347 -0.18,0.40933 -0.28667,0.788 -0.16267,1.23853 0.10267,0.37347 0.392,0.7776 0.74,0.9604 0.696,0.36934 1.83867,0.2464 2.2,-0.576 0.888,-2.024 1.77733,-4.04946 2.66533,-6.0724 0.18,-0.4104 0.28667,-0.78906 0.16267,-1.2396 -0.10267,-0.3724 -0.392,-0.7776 -0.73867,-0.9604 -0.69733,-0.36933 -1.84,-0.24533 -2.20133,0.576 v 0"
       style="fill:#7a7838;fill-opacity:1;fill-rule:nonzero;stroke:none;stroke-width:0.133333" />
    <path
       id="path20"
       d="m 436.10132,603.86507 c -2.05333,1.23333 -4.10533,2.4656 -6.15866,3.69893 -0.72134,0.43334 -1.052,1.4652 -0.57734,2.20107 0.468,0.724 1.428,1.04013 2.2,0.57613 2.05334,-1.23333 4.10667,-2.4652 6.16,-3.69853 0.72134,-0.43227 1.05067,-1.464 0.576,-2.2 -0.46666,-0.72547 -1.428,-1.04 -2.2,-0.5776 v 0"
       style="fill:#7a7838;fill-opacity:1;fill-rule:nonzero;stroke:none;stroke-width:0.133333" />
    <path
       id="path21"
       d="m 366.75866,610.05734 c 1.64266,1.64373 3.28666,3.2864 4.92933,4.92906 0.596,0.5964 1.68667,0.64014 2.27333,0 0.59067,-0.64266 0.636,-1.63853 0,-2.2744 -1.64266,-1.64266 -3.28533,-3.28546 -4.928,-4.92813 -0.59466,-0.59587 -1.68666,-0.64013 -2.27466,0 -0.588,0.64267 -0.636,1.63853 0,2.27347 v 0"
       style="fill:#7a7838;fill-opacity:1;fill-rule:nonzero;stroke:none;stroke-width:0.133333" />
    <path
       id="path22"
       d="m 392.13332,602.2984 c -0.816,2.05467 -1.632,4.11094 -2.44933,6.16667 -0.144,0.36307 -0.0267,0.91613 0.16133,1.23907 0.196,0.3344 0.57867,0.6516 0.96267,0.73853 0.412,0.0948 0.87333,0.0745 1.23867,-0.16147 0.37333,-0.24 0.576,-0.55053 0.73866,-0.96146 0.81734,-2.05467 1.63334,-4.1104 2.44934,-6.16667 0.14533,-0.3624 0.0267,-0.9156 -0.16267,-1.23853 -0.19467,-0.33334 -0.576,-0.652 -0.96,-0.74 -0.412,-0.0933 -0.87467,-0.0735 -1.24,0.16293 -0.372,0.2412 -0.576,0.55053 -0.73867,0.96093 v 0"
       style="fill:#7a7838;fill-opacity:1;fill-rule:nonzero;stroke:none;stroke-width:0.133333" />
    <path
       id="path23"
       d="m 447.57066,599.52401 c 0.42,1.22906 0.83733,2.45879 1.25733,3.68799 0.13467,0.39734 0.368,0.74374 0.73733,0.95987 0.34534,0.20267 0.85334,0.288 1.24,0.16307 0.38934,-0.1256 0.764,-0.36667 0.96134,-0.73907 0.19466,-0.3704 0.30133,-0.8292 0.16266,-1.23853 -0.42,-1.2308 -0.83866,-2.46 -1.256,-3.68907 -0.136,-0.39746 -0.36933,-0.74426 -0.74,-0.9604 -0.344,-0.20266 -0.85333,-0.28653 -1.23866,-0.16253 -0.38934,0.12547 -0.76534,0.36667 -0.96267,0.73853 -0.19467,0.3708 -0.3,0.82974 -0.16133,1.24014 v 0"
       style="fill:#7a7838;fill-opacity:1;fill-rule:nonzero;stroke:none;stroke-width:0.133333" />
    <path
       id="path24"
       d="m 463.55332,598.60934 c -0.42666,2.05053 -0.852,4.10106 -1.27733,6.15213 -0.16933,0.82133 0.23867,1.77707 1.12267,1.97707 0.80533,0.18386 1.796,-0.24267 1.97866,-1.1224 0.42534,-2.05107 0.852,-4.1016 1.27734,-6.15213 0.17066,-0.82027 -0.23867,-1.776 -1.12267,-1.9776 -0.804,-0.18374 -1.796,0.24173 -1.97867,1.12293 v 0"
       style="fill:#7a7838;fill-opacity:1;fill-rule:nonzero;stroke:none;stroke-width:0.133333" />
    <path
       id="path25"
       d="m 166.62933,601.8588 c 0.0827,0.0303 0.17067,0.0787 0.25867,0.1 -0.396,-0.0948 -0.18134,-0.0785 -0.0453,-0.0176 0.16934,0.0776 0.336,0.1572 0.5,0.24267 0.30134,0.15467 0.59467,0.32547 0.87867,0.50933 0.15467,0.1 0.308,0.2052 0.45733,0.3136 0.0747,0.0531 0.148,0.1104 0.22267,0.16507 -0.388,-0.27973 -0.11333,-0.0855 -0.0347,-0.0213 0.27334,0.22546 0.536,0.46306 0.78667,0.71346 0.25067,0.25054 0.48933,0.51467 0.71467,0.78814 0.0747,0.0905 0.22533,0.34626 -0.0227,-0.036 0.0507,0.0771 0.112,0.14893 0.16533,0.2224 0.1,0.13746 0.196,0.276 0.288,0.4188 0.19467,0.29573 0.37334,0.60253 0.536,0.9172 0.0853,0.164 0.16534,0.33066 0.24134,0.49893 0.0253,0.0572 0.144,0.31453 0.028,0.0625 -0.124,-0.26933 0.0373,0.1 0.056,0.152 0.152,0.40107 0.356,0.73747 0.73866,0.96147 0.34534,0.20107 0.85334,0.28653 1.24,0.16093 0.764,-0.2464 1.44267,-1.1344 1.12267,-1.97706 -1.284,-3.3812 -3.896,-5.99214 -7.27733,-7.276 -0.788,-0.3 -1.79734,0.33067 -1.97734,1.12133 -0.20933,0.9172 0.27867,1.65987 1.12267,1.98013 v 0"
       style="fill:#7a7838;fill-opacity:1;fill-rule:nonzero;stroke:none;stroke-width:0.133333" />
    <path
       id="path26"
       d="m 178.644,599.04534 c -3.064,1.63066 -5.368,4.752 -5.95467,8.18013 -0.14133,0.82667 0.21867,1.77187 1.12267,1.97867 0.78,0.17706 1.82666,-0.23587 1.97866,-1.12294 0.0613,-0.3572 0.13867,-0.70933 0.23734,-1.0588 0.0547,-0.19066 0.11466,-0.37973 0.18133,-0.56773 0.0293,-0.0839 0.06,-0.1708 0.0933,-0.2536 0.0187,-0.0505 0.132,-0.35053 0.04,-0.1104 -0.0907,0.23853 0.0267,-0.0547 0.0493,-0.1052 0.0373,-0.0828 0.0773,-0.16413 0.116,-0.24533 0.0813,-0.16307 0.16533,-0.32294 0.252,-0.48027 0.18666,-0.33067 0.38933,-0.65307 0.61066,-0.96253 0.0533,-0.0733 0.108,-0.14427 0.16134,-0.21707 0.124,-0.1724 -0.252,0.30093 -0.0173,0.0249 0.11734,-0.13693 0.232,-0.27706 0.35334,-0.4104 0.24266,-0.26826 0.5,-0.524 0.76933,-0.76413 0.12667,-0.11347 0.30933,-0.21867 0.41467,-0.34947 -0.16934,0.12814 -0.20667,0.15627 -0.112,0.0839 0.044,-0.0317 0.0867,-0.064 0.13066,-0.0957 0.0733,-0.0532 0.14667,-0.10534 0.22134,-0.15734 0.31333,-0.21466 0.63866,-0.4104 0.97466,-0.5896 0.744,-0.39426 1.03467,-1.48906 0.576,-2.19999 -0.48666,-0.75467 -1.404,-1 -2.19866,-0.57707 v 0"
       style="fill:#7a7838;fill-opacity:1;fill-rule:nonzero;stroke:none;stroke-width:0.133333" />
    <path
       id="path27"
       d="m 184.40533,600.39067 c -1.64267,1.64373 -3.28533,3.28533 -4.928,4.92907 -0.596,0.5964 -0.64,1.68706 0,2.27506 0.64133,0.588 1.63867,0.6344 2.27467,0 1.64266,-1.64426 3.284,-3.28693 4.928,-4.92973 0.596,-0.59573 0.64,-1.6864 0,-2.2744 -0.64267,-0.58906 -1.63867,-0.63493 -2.27467,0 v 0"
       style="fill:#7a7838;fill-opacity:1;fill-rule:nonzero;stroke:none;stroke-width:0.133333" />
    <path
       id="path28"
       d="m 203.65333,522.58267 c 0,27.4976 -18.528,49.7892 -41.384,49.7892 -22.85467,0 -41.38293,-22.2916 -41.38293,-49.7892 0,-27.49866 18.52826,-49.79066 41.38293,-49.79066 22.856,0 41.384,22.292 41.384,49.79066"
       style="fill:#15131c;fill-opacity:1;fill-rule:nonzero;stroke:none;stroke-width:0.133333" />
    <path
       id="path29"
       d="m 473.17199,522.58267 c 0,27.4976 -18.528,49.7892 -41.384,49.7892 -22.85467,0 -41.38267,-22.2916 -41.38267,-49.7892 0,-27.49866 18.528,-49.79066 41.38267,-49.79066 22.856,0 41.384,22.292 41.384,49.79066"
       style="fill:#15131c;fill-opacity:1;fill-rule:nonzero;stroke:none;stroke-width:0.133333" />
    <path
       id="path30"
       d="m 246.34533,233.93601 303.09732,3.768 c 18.63467,0.23067 34.34267,13.96534 37.05734,32.404 l 34.48266,234.16 c 1.42,9.652 -6.05867,18.31466 -15.81333,18.31466 H 162.86666 l 83.47867,-288.64666"
       style="fill:#355f78;fill-opacity:1;fill-rule:nonzero;stroke:none;stroke-width:0.133333" />
    <path
       id="path31"
       d="m 238.02533,406.56668 h 72.28533 v -152.732 h -42.71467 l -29.57066,152.732"
       style="fill:#ffffff;fill-opacity:1;fill-rule:nonzero;stroke:none;stroke-width:0.133333" />
    <path
       id="path32"
       d="M 310.31066,406.56668 V 279.04935 l -26.28533,1.44533 -26.768,126.072 h 53.05333"
       style="fill:#a0daf2;fill-opacity:1;fill-rule:nonzero;stroke:none;stroke-width:0.133333" />
    <path
       id="path33"
       d="m 291.53599,317.36801 c 4.352,-3.56933 8.428,-7.46133 12.19334,-11.644 0.82666,-0.91866 0.97333,-2.44666 0,-3.34 -0.90134,-0.828 -2.456,-0.98 -3.33867,0 -3.76667,4.18267 -7.84267,8.076 -12.19467,11.644 -0.96,0.78667 -0.87733,2.53467 0,3.34 1.02,0.93467 2.316,0.83867 3.34,0 v 0"
       style="fill:#ffffff;fill-opacity:1;fill-rule:nonzero;stroke:none;stroke-width:0.133333" />
    <path
       id="path34"
       d="m 293.84533,332.79868 c 1.37066,-1.36533 2.74266,-2.73333 4.11333,-4.1 0.428,-0.428 0.69067,-1.06533 0.69067,-1.67067 0,-0.57866 -0.256,-1.27066 -0.69067,-1.66933 -0.45067,-0.41333 -1.04133,-0.72 -1.67067,-0.692 -0.62666,0.028 -1.216,0.24 -1.66933,0.692 -1.37067,1.36667 -2.74133,2.73467 -4.112,4.10133 -0.42933,0.42667 -0.69333,1.06534 -0.69333,1.66934 0,0.58 0.25866,1.272 0.69333,1.66933 0.44933,0.41333 1.04,0.72 1.66933,0.692 0.62667,-0.028 1.21734,-0.24 1.66934,-0.692 v 0"
       style="fill:#ffffff;fill-opacity:1;fill-rule:nonzero;stroke:none;stroke-width:0.133333" />
    <path
       id="path35"
       d="m 287.53866,379.90668 c 2.52133,-3.51867 5.04267,-7.03734 7.564,-10.556 0.72133,-1.008 0.20933,-2.67334 -0.84667,-3.23067 -1.22,-0.644 -2.46133,-0.22933 -3.232,0.84667 -2.52,3.52 -5.04266,7.03733 -7.564,10.556 -0.72133,1.008 -0.208,2.67333 0.848,3.232 1.22,0.64266 2.46,0.228 3.23067,-0.848 v 0"
       style="fill:#ffffff;fill-opacity:1;fill-rule:nonzero;stroke:none;stroke-width:0.133333" />
    <path
       id="path36"
       d="m 102.12453,406.56668 c 0.61187,-6.292 -5.439599,-9.93067 -10.769866,-11.11467 -6.840666,-1.51867 -14.045866,-1.82667 -21.021866,-1.40667 -1.5104,0.092 -1.5208,2.45334 0,2.36134 6.116667,-0.36667 12.2756,-0.10667 18.3208,0.92266 4.840666,0.82534 11.712002,3.044 11.108933,9.23734 -0.146933,1.512 2.215599,1.50133 2.361999,0 v 0"
       style="fill:#574f66;fill-opacity:1;fill-rule:nonzero;stroke:none;stroke-width:0.133333" />
    <path
       id="path37"
       d="m 56.369332,403.78668 h 17.249466 c 2.268133,0 4.1072,-1.84 4.1072,-4.108 v -8.624 c 0,-2.26934 -1.839067,-4.108 -4.1072,-4.108 H 56.369332 c -2.268267,0 -4.107333,1.83866 -4.107333,4.108 v 8.624 c 0,2.268 1.839066,4.108 4.107333,4.108"
       style="fill:#574f66;fill-opacity:1;fill-rule:nonzero;stroke:none;stroke-width:0.133333" />
    <path
       id="path38"
       d="m 222.74266,403.64934 33.90933,-154.95199 c 1.67334,-7.644 -4.148,-14.87734 -11.97466,-14.87734 H 160.456 c -5.2,0 -9.83467,3.28134 -11.56134,8.18534 L 92.034931,403.46534 c -0.8136,2.308 -2.298533,4.32134 -4.2652,5.77867 l -30.004132,22.22933 c -4.202,3.11334 -5.966134,8.55067 -4.392134,13.53734 l 21.7724,69.00266 c 1.609333,5.1 6.341066,8.56933 11.690133,8.56933 h 94.574662 c 6.77067,0 12.25867,-5.488 12.25867,-12.25866 v -68.73333 c 0,-3.156 1.216,-6.18667 3.39333,-8.468 l 22.56933,-23.628 c 1.55467,-1.62667 2.63067,-3.64934 3.11067,-5.84534"
       style="fill:#2d698c;fill-opacity:1;fill-rule:nonzero;stroke:none;stroke-width:0.133333" />
    <path
       id="path39"
       d="m 108.65306,401.94268 46.21894,-148.108 h 83.15333 l -38.97067,151.14933 -90.4016,-3.04133"
       style="fill:#ffffff;fill-opacity:1;fill-rule:nonzero;stroke:none;stroke-width:0.133333" />
    <path
       id="path40"
       d="m 199.05466,404.98401 32.09733,-124.48933 -66.23199,4.12533 -40.24347,117.86267 74.37813,2.50133"
       style="fill:#a0daf2;fill-opacity:1;fill-rule:nonzero;stroke:none;stroke-width:0.133333" />
    <path
       id="path41"
       d="m 72.666132,426.04934 c -4.113067,3.284 -8.387467,8.804 -5.534934,13.22667 1.7448,2.70667 5.339067,3.384 8.5324,3.78933 25.553602,3.248 51.332262,4.71467 77.088402,4.392 12.90266,-0.16133 27.67466,-1.73466 35.148,-12.25333 1.62133,-2.28267 2.804,-4.96133 2.87333,-7.76 0.136,-5.50267 -4.124,-10.34533 -9.13467,-12.62133 -5.012,-2.27467 -10.67466,-2.51067 -16.176,-2.71067 -15.67066,-0.568 -31.40533,-0.77733 -47.0548,-1.768 -9.40426,-0.596 -17.362,-1.704 -26.068262,2.716 -6.984933,3.54533 -13.566133,8.104 -19.673466,12.98933"
       style="fill:#2f7eab;fill-opacity:1;fill-rule:nonzero;stroke:none;stroke-width:0.133333" />
    <path
       id="path42"
       d="m 80.671331,498.44934 c 0.283867,0.91733 0.573467,1.832 0.8688,2.74533 1.3344,4.13334 2.889067,8.41334 6.090133,11.352 3.2656,2.99734 7.778134,4.16534 12.132267,4.992 13.079599,2.476 26.569729,2.768 39.744129,0.85867 3.948,-0.57333 8.284,-1.6 10.528,-4.9 1.31467,-1.932 1.67734,-4.336 2.004,-6.64933 0.96934,-6.83734 1.93867,-13.676 2.90667,-20.51467 1.01733,-7.18533 1.86,-15.168 -2.32,-21.10266 -3.42533,-4.86267 -9.42,-7.11734 -15.12533,-8.79867 -13.6656,-4.03067 -27.83907,-6.34 -42.077069,-6.85733 -19.996933,-0.72667 -24.375066,9.14266 -20.348933,27.63199 1.557733,7.15734 3.426,14.24667 5.597333,21.24267"
       style="fill:#355f78;fill-opacity:1;fill-rule:nonzero;stroke:none;stroke-width:0.133333" />
    <path
       id="path43"
       d="m 61.456798,445.08668 c 8.166667,1.64933 16.459867,2.452 24.757733,3.10133 8.4636,0.66133 16.930269,1.36667 25.403729,1.888 16.8396,1.036 33.84174,0.0733 50.6964,-0.224 9.62534,-0.17067 19.24934,-0.34 28.87334,-0.51067 1.51733,-0.0267 1.52266,-2.388 0,-2.36133 -16.90667,0.29867 -33.81467,0.59733 -50.72134,0.896 -8.22453,0.14533 -16.4604,0.41867 -24.68173,0.06 -8.32707,-0.364 -16.640132,-1.12667 -24.949999,-1.75733 -9.628133,-0.72934 -19.270399,-1.45467 -28.750533,-3.36934 -1.483866,-0.3 -2.118799,1.976 -0.6276,2.27734 v 0"
       style="fill:#d66826;fill-opacity:1;fill-rule:nonzero;stroke:none;stroke-width:0.133333" />
    <path
       id="path44"
       d="m 107.8636,449.17601 c 11.29733,-14.096 23.37813,-27.54533 36.1844,-40.284 1.08,-1.07333 -0.59067,-2.74267 -1.66934,-1.67067 -12.8068,12.74 -24.88746,26.18934 -36.18546,40.284 -0.94107,1.176 0.71986,2.85734 1.6704,1.67067 v 0"
       style="fill:#d66826;fill-opacity:1;fill-rule:nonzero;stroke:none;stroke-width:0.133333" />
    <path
       id="path45"
       d="m 82.029731,472.90934 h 65.431599 c 2.192,0 3.94667,1.82 3.86533,4.012 l -0.524,14.16533 c -0.08,2.16267 -1.91733,3.83867 -4.07733,3.72 l -62.217999,-3.41466 c -1.693733,-0.092 -3.129733,-1.27867 -3.5412,-2.924 l -2.689066,-10.752 c -0.610934,-2.44267 1.235466,-4.80667 3.752666,-4.80667"
       style="fill:#574f66;fill-opacity:1;fill-rule:nonzero;stroke:none;stroke-width:0.133333" />
    <path
       id="path46"
       d="m 87.875064,468.97467 c 0.902534,9.50934 2.698934,18.904 5.4052,28.06667 0.429067,1.45333 2.7088,0.836 2.276534,-0.628 -2.645334,-8.95867 -4.438,-18.14 -5.319867,-27.43867 -0.142133,-1.5 -2.5052,-1.516 -2.361867,0 v 0"
       style="fill:#5c93b2;fill-opacity:1;fill-rule:nonzero;stroke:none;stroke-width:0.133333" />
    <path
       id="path47"
       d="m 104.02973,470.49201 c 1.7484,9.61466 3.98173,19.13066 6.6932,28.51866 0.42027,1.45867 2.70053,0.83867 2.27707,-0.628 -2.71147,-9.388 -4.94427,-18.904 -6.6932,-28.51733 -0.27134,-1.49333 -2.54747,-0.86133 -2.27707,0.62667 v 0"
       style="fill:#5c93b2;fill-opacity:1;fill-rule:nonzero;stroke:none;stroke-width:0.133333" />
    <path
       id="path48"
       d="m 122.45573,471.12134 c 1.5672,9.45867 3.13387,18.91867 4.70053,28.376 0.2484,1.496 2.5244,0.86133 2.2776,-0.62667 -1.5672,-9.46 -3.13333,-18.91866 -4.70053,-28.37733 -0.24787,-1.496 -2.524,-0.86133 -2.2776,0.628 v 0"
       style="fill:#5c93b2;fill-opacity:1;fill-rule:nonzero;stroke:none;stroke-width:0.133333" />
    <path
       id="path49"
       d="m 140.07866,470.82934 c -0.648,9.84533 -0.99466,19.70667 -1.04133,29.57333 -0.007,1.52 2.35467,1.52134 2.36133,0 0.0467,-9.86666 0.39334,-19.728 1.04134,-29.57333 0.1,-1.516 -2.26134,-1.50933 -2.36134,0 v 0"
       style="fill:#5c93b2;fill-opacity:1;fill-rule:nonzero;stroke:none;stroke-width:0.133333" />
    <path
       id="path50"
       d="m 189.35733,481.32401 c 0,8.16533 -7.58533,14.78533 -16.94267,14.78533 -9.356,0 -11.088,-6.62 -11.088,-14.78533 0,-8.16667 1.732,-14.784 11.088,-14.784 9.35734,0 16.94267,6.61733 16.94267,14.784"
       style="fill:#d66826;fill-opacity:1;fill-rule:nonzero;stroke:none;stroke-width:0.133333" />
    <path
       id="path51"
       d="m 177.96,481.64134 c 0,5.94933 -3.268,10.772 -7.29867,10.772 -4.032,0 -7.29867,-4.82267 -7.29867,-10.772 0,-5.94933 3.26667,-10.772 7.29867,-10.772 4.03067,0 7.29867,4.82267 7.29867,10.772"
       style="fill:#ffffff;fill-opacity:1;fill-rule:nonzero;stroke:none;stroke-width:0.133333" />
    <path
       id="path52"
       d="m 73.713598,481.32401 c 0,7.14 -6.632933,12.92933 -14.814133,12.92933 -8.1812,0 -9.6964,-5.78933 -9.6964,-12.92933 0,-7.14 1.5152,-12.928 9.6964,-12.928 8.1812,0 14.814133,5.788 14.814133,12.928"
       style="fill:#d66826;fill-opacity:1;fill-rule:nonzero;stroke:none;stroke-width:0.133333" />
    <path
       id="path53"
       d="m 63.747332,481.60134 c 0,5.20267 -2.8572,9.42 -6.381733,9.42 -3.524934,0 -6.382267,-4.21733 -6.382267,-9.42 0,-5.20133 2.857333,-9.41867 6.382267,-9.41867 3.524533,0 6.381733,4.21734 6.381733,9.41867"
       style="fill:#ffffff;fill-opacity:1;fill-rule:nonzero;stroke:none;stroke-width:0.133333" />
    <path
       id="path54"
       d="M 182.42533,508.82267 H 164.252 v -7.18666 h 18.17333 v 7.18666"
       style="fill:#d66826;fill-opacity:1;fill-rule:nonzero;stroke:none;stroke-width:0.133333" />
    <path
       id="path55"
       d="m 79.697865,505.22934 h -6.134267 v -7.18667 h 6.134267 v 7.18667"
       style="fill:#d66826;fill-opacity:1;fill-rule:nonzero;stroke:none;stroke-width:0.133333" />
    <path
       id="path56"
       d="m 178.01866,394.81868 c 6.12667,-7.012 12.25334,-14.02534 18.37867,-21.03734 0.83867,-0.95866 0.944,-2.39466 0,-3.34 -0.856,-0.85466 -2.49733,-0.964 -3.33867,0 -6.12666,7.012 -12.25333,14.02534 -18.38,21.03734 -0.83866,0.95866 -0.944,2.39466 0,3.34 0.856,0.85466 2.49734,0.964 3.34,0 v 0"
       style="fill:#ffffff;fill-opacity:1;fill-rule:nonzero;stroke:none;stroke-width:0.133333" />
    <path
       id="path57"
       d="m 177.94133,376.27068 c 2.84133,-3.31467 5.68267,-6.62934 8.524,-9.944 0.80267,-0.93734 0.988,-2.432 0,-3.33867 -0.884,-0.812 -2.48267,-1.00133 -3.34,0 -2.84133,3.31333 -5.68267,6.628 -8.524,9.944 -0.80267,0.936 -0.98933,2.43067 0,3.33867 0.88267,0.81066 2.48133,1.00133 3.34,0 v 0"
       style="fill:#ffffff;fill-opacity:1;fill-rule:nonzero;stroke:none;stroke-width:0.133333" />
    <path
       id="path58"
       d="m 175.888,308.08001 c 0.34666,-0.504 0.70266,-1.004 1.06533,-1.49733 0.172,-0.23333 0.34667,-0.464 0.52267,-0.696 0.376,-0.49733 -0.18267,0.22533 0.044,-0.0573 0.10133,-0.12534 0.2,-0.25334 0.3,-0.38 0.764,-0.95734 1.56,-1.88934 2.38533,-2.79334 1.65467,-1.808 3.432,-3.5 5.312,-5.072 0.952,-0.79466 0.88267,-2.52933 0,-3.34 -1.012,-0.928 -2.324,-0.848 -3.34,0 -3.97067,3.31867 -7.43333,7.192 -10.368,11.452 -0.70267,1.02 -0.22267,2.66534 0.848,3.232 1.20133,0.63467 2.48133,0.24134 3.23067,-0.848 v 0"
       style="fill:#ffffff;fill-opacity:1;fill-rule:nonzero;stroke:none;stroke-width:0.133333" />
    <path
       id="path59"
       d="m 255.33999,256.12135 c -6.91866,29.23333 -13.83733,58.46666 -20.75466,87.70133 -3.38667,14.31066 -7.31734,28.616 -9.828,43.112 -1.204,6.95333 -1.892,13.992 -1.56667,21.05333 0.32533,7.06267 1.48533,14.06267 2.87867,20.98533 3.30266,16.41467 7.05466,32.74934 10.604,49.11467 0.15733,0.732 1.11333,1.09866 1.73333,0.70533 11.024,-6.98933 23.524,-11.532 36.49333,-13.10933 5.92667,-0.72 12.11467,-1.02933 18.012,0.088 5.04134,0.956 10.56934,3.12933 13.58534,7.532 2.48266,3.624 3.528,8.28133 4.608,12.47066 1.13733,4.40667 2.05466,8.91467 3.62666,13.19467 0.42267,1.14933 0.93734,3.32 2.17334,3.81067 0.732,0.29066 1.74266,0.28133 2.51333,0.37333 3.512,0.412 7.19733,0.452 10.644,-0.43067 1.79467,-0.45866 3.548,-1.21466 4.98,-2.40533 0.56933,-0.47467 1.34533,-1.12933 1.62666,-1.83867 0.548,-1.38533 0.268,-3.64133 0.328,-5.112 0.288,-7.11466 0.324,-14.23866 0.17334,-21.35733 -0.30534,-14.38666 -1.36,-28.744 -2.57334,-43.08 -2.44266,-28.87866 -5.05333,-57.74133 -7.58533,-86.61066 -2.53466,-28.90133 -5.07066,-57.80267 -7.60533,-86.704 -0.32,-3.64533 -0.64,-7.29067 -0.96,-10.936 -0.0573,-0.65333 -0.49467,-1.15733 -1.18,-1.18133 -7.55867,-0.25734 -15.11733,-0.51467 -22.67467,-0.77334 -7.21866,-0.24533 -14.46266,-0.69066 -21.68666,-0.69466 -4.68267,-0.001 -10.38934,0.52533 -14.07867,3.79733 -2.69867,2.39467 -2.816,7.02933 -3.48667,10.29467 -0.30533,1.48266 1.97067,2.11733 2.27734,0.628 0.44,-2.144 0.76666,-4.33467 1.34266,-6.448 0.324,-1.18534 0.736,-2.192 1.73334,-2.95734 4.29333,-3.29866 10.48,-3.04933 15.58133,-2.88266 13.664,0.44533 27.328,0.932 40.992,1.39733 -0.39467,-0.39333 -0.788,-0.78667 -1.18133,-1.18 2.512,28.64133 5.02533,57.28267 7.53733,85.92267 2.512,28.64133 5.024,57.28133 7.53733,85.92266 1.24667,14.20933 2.50133,28.42133 3.19467,42.672 0.34533,7.11333 0.54933,14.236 0.54133,21.35733 -0.004,3.624 -0.064,7.24933 -0.188,10.872 -0.0573,1.676 -0.0587,3.376 -0.216,5.04667 -0.128,1.36266 -0.724,1.98266 -1.86933,2.68666 -3.26933,2.00934 -7.56533,2.06667 -11.27733,1.812 -1.13334,-0.0787 -2.36134,-0.42933 -3.48667,-0.408 -0.0973,10e-4 -0.212,-0.0373 -0.30667,-0.056 0.50934,0.0947 0.288,0.392 0.32934,-0.092 0.0547,-0.63466 -0.856,-2.012 -1.088,-2.67733 -1.544,-4.43867 -2.47867,-9.076 -3.67734,-13.61333 -1.04666,-3.96134 -2.14533,-8.204 -4.372,-11.69467 -5.60133,-8.78133 -17.88,-10.064 -27.30533,-9.64666 -12.52533,0.556 -24.892,3.79066 -36.112,9.37733 -2.78533,1.38666 -5.48533,2.92933 -8.112,4.59466 0.57867,0.23467 1.156,0.46934 1.736,0.70534 -3.12,-14.38533 -6.26,-28.764 -9.356,-43.15333 -1.52267,-7.07867 -2.98267,-14.19334 -3.68533,-21.40667 -0.71467,-7.34133 -0.48534,-14.67333 0.584,-21.968 2.08666,-14.24533 6.06,-28.27467 9.372,-42.26933 3.41333,-14.42534 6.82666,-28.85067 10.24133,-43.276 3.836,-16.212 7.67333,-32.42533 11.51067,-48.63733 0.34933,-1.47867 -1.928,-2.10934 -2.27734,-0.628 v 0"
       style="fill:#d66826;fill-opacity:1;fill-rule:nonzero;stroke:none;stroke-width:0.133333" />
    <path
       id="path60"
       d="m 200.38133,404.20401 c -0.60267,-6.19333 6.268,-8.412 11.10933,-9.236 6.04533,-1.03067 12.20533,-1.292 18.32133,-0.92267 1.51867,0.0907 1.512,-2.272 0,-2.36266 -6.976,-0.41867 -14.18133,-0.11334 -21.02266,1.40666 -5.32934,1.184 -11.38133,4.82267 -10.76933,11.11467 0.14666,1.49867 2.50933,1.51333 2.36133,0 v 0"
       style="fill:#574f66;fill-opacity:1;fill-rule:nonzero;stroke:none;stroke-width:0.133333" />
    <path
       id="path61"
       d="m 243.77599,401.42401 h -17.25066 c -2.268,0 -4.10667,-1.83867 -4.10667,-4.10667 v -8.62533 c 0,-2.268 1.83867,-4.10667 4.10667,-4.10667 h 17.25066 c 2.268,0 4.10667,1.83867 4.10667,4.10667 v 8.62533 c 0,2.268 -1.83867,4.10667 -4.10667,4.10667"
       style="fill:#574f66;fill-opacity:1;fill-rule:nonzero;stroke:none;stroke-width:0.133333" />
    <path
       id="path62"
       d="m 236.70666,420.29201 c 3.56533,-0.50667 7.13067,-1.01467 10.69467,-1.52267 0.63333,-0.0893 0.97866,-0.892 0.82533,-1.45066 -0.18667,-0.68 -0.81867,-0.916 -1.452,-0.82534 -3.56533,0.50667 -7.13067,1.01467 -10.696,1.52134 -0.632,0.0893 -0.97867,0.89466 -0.824,1.45333 0.18667,0.68 0.81733,0.91467 1.452,0.824 v 0"
       style="fill:#d66826;fill-opacity:1;fill-rule:nonzero;stroke:none;stroke-width:0.133333" />
    <path
       id="path63"
       d="m 70.332798,513.95734 553.961852,-12.32133 1.22,8.74666 c 1.30933,9.376 -5.972,17.744 -15.43867,17.744 H 84.784931 c -4.088,0 -7.852666,-2.22133 -9.8292,-5.8 l -4.622933,-8.36933"
       style="fill:#574f66;fill-opacity:1;fill-rule:nonzero;stroke:none;stroke-width:0.133333" />
    <path
       id="path64"
       d="m 271.89466,472.90934 c 0,0 -40.032,-3.84 -51.12,37.70133 h 17.32133 l 33.79867,-37.70133"
       style="fill:#d66826;fill-opacity:1;fill-rule:nonzero;stroke:none;stroke-width:0.133333" />
    <path
       id="path65"
       d="m 220.77466,510.61067 -1.436,17.516 h 14.99467 l 3.76266,-17.516 h -17.32133"
       style="fill:#15131c;fill-opacity:1;fill-rule:nonzero;stroke:none;stroke-width:0.133333" />
    <path
       id="path66"
       d="m 315.55066,522.58267 c 0,27.4976 -18.528,49.7892 -41.38267,49.7892 -22.856,0 -41.38266,-22.2916 -41.38266,-49.7892 0,-27.49866 18.52666,-49.79066 41.38266,-49.79066 22.85467,0 41.38267,22.292 41.38267,49.79066"
       style="fill:#2d283a;fill-opacity:1;fill-rule:nonzero;stroke:none;stroke-width:0.133333" />
    <path
       id="path67"
       d="m 310.08933,522.58267 c 0,19.02934 -12.82267,34.45747 -28.63867,34.45747 -15.81733,0 -28.64,-15.42813 -28.64,-34.45747 0,-19.03066 12.82267,-34.45733 28.64,-34.45733 15.816,0 28.63867,15.42667 28.63867,34.45733"
       style="fill:#574f66;fill-opacity:1;fill-rule:nonzero;stroke:none;stroke-width:0.133333" />
    <path
       id="path68"
       d="m 294.23199,522.58267 c 0,13.76107 -8.348,24.91734 -18.64533,24.91734 -10.29867,0 -18.64533,-11.15627 -18.64533,-24.91734 0,-13.76133 8.34666,-24.91866 18.64533,-24.91866 10.29733,0 18.64533,11.15733 18.64533,24.91866"
       style="fill:#2d283a;fill-opacity:1;fill-rule:nonzero;stroke:none;stroke-width:0.133333" />
    <path
       id="path69"
       d="m 280.17999,522.58267 c 0,7.85334 -4.764,14.22 -10.64133,14.22 -5.87733,0 -10.64133,-6.36666 -10.64133,-14.22 0,-7.85466 4.764,-14.22133 10.64133,-14.22133 5.87733,0 10.64133,6.36667 10.64133,14.22133"
       style="fill:#2d698c;fill-opacity:1;fill-rule:nonzero;stroke:none;stroke-width:0.133333" />
    <path
       id="path70"
       d="m 247.82933,557.04947 c 3.39733,-2.9656 6.628,-6.11613 9.676,-9.4416 0.512,-0.5584 -0.32,-1.39586 -0.83467,-0.8344 -3.04933,3.32494 -6.27867,6.476 -9.676,9.44107 -0.57333,0.5 0.264,1.3324 0.83467,0.83493 v 0"
       style="fill:#574f66;fill-opacity:1;fill-rule:nonzero;stroke:none;stroke-width:0.133333" />
    <path
       id="path71"
       d="m 257.75866,566.07707 c 2.51867,-4.3396 5.31867,-8.5104 8.38133,-12.48493 0.46267,-0.60307 -0.56266,-1.19107 -1.02,-0.59733 -3.06266,3.976 -5.86266,8.1464 -8.38,12.4864 -0.38266,0.65893 0.63734,1.2532 1.01867,0.59586 v 0"
       style="fill:#574f66;fill-opacity:1;fill-rule:nonzero;stroke:none;stroke-width:0.133333" />
    <path
       id="path72"
       d="m 272.46399,569.55467 c 1.03067,-3.4896 2.06134,-6.97866 3.092,-10.46826 0.216,-0.73067 -0.92266,-1.04267 -1.13733,-0.31454 -1.032,3.49067 -2.06267,6.98027 -3.09333,10.46934 -0.216,0.73066 0.924,1.04266 1.13866,0.31346 v 0"
       style="fill:#574f66;fill-opacity:1;fill-rule:nonzero;stroke:none;stroke-width:0.133333" />
    <path
       id="path73"
       d="m 293.50399,565.70107 c -0.26133,-2.6636 -0.52266,-5.3276 -0.784,-7.99173 -0.0747,-0.75053 -1.256,-0.7588 -1.18133,0 0.26133,2.66413 0.524,5.32813 0.78533,7.99173 0.0733,0.7484 1.25467,0.75627 1.18,0 v 0"
       style="fill:#574f66;fill-opacity:1;fill-rule:nonzero;stroke:none;stroke-width:0.133333" />
    <path
       id="path74"
       d="m 238.39466,538.61881 c 4.91333,-2.76827 10.032,-5.14427 15.32133,-7.10147 0.70667,-0.26133 0.40134,-1.40267 -0.31466,-1.13867 -5.38267,1.99334 -10.60134,4.40254 -15.60267,7.22134 -0.66267,0.37186 -0.068,1.39213 0.596,1.0188 v 0"
       style="fill:#574f66;fill-opacity:1;fill-rule:nonzero;stroke:none;stroke-width:0.133333" />
    <path
       id="path75"
       d="m 234.33333,519.41467 c 4.93733,0.304 9.88666,0.204 14.808,-0.29866 0.748,-0.076 0.756,-1.25867 0,-1.18134 -4.92134,0.50267 -9.87067,0.604 -14.808,0.29867 -0.75867,-0.0467 -0.756,1.13467 0,1.18133 v 0"
       style="fill:#574f66;fill-opacity:1;fill-rule:nonzero;stroke:none;stroke-width:0.133333" />
    <path
       id="path76"
       d="m 239.38399,500.94001 c 2.692,0.96533 5.38267,1.92933 8.07467,2.892 1.308,0.46933 2.61067,0.95333 3.92533,1.40266 1.176,0.40267 2.368,0.664 3.59067,0.31867 0.72933,-0.20533 0.42,-1.344 -0.31467,-1.13733 -1.244,0.352 -2.46266,-0.13867 -3.628,-0.55467 -1.276,-0.456 -2.55066,-0.91467 -3.82666,-1.37067 -2.50267,-0.896 -5.004,-1.792 -7.50667,-2.688 -0.71733,-0.25733 -1.02533,0.884 -0.31467,1.13734 v 0"
       style="fill:#574f66;fill-opacity:1;fill-rule:nonzero;stroke:none;stroke-width:0.133333" />
    <path
       id="path77"
       d="m 251.78533,485.41067 c 3.512,3.264 7.024,6.528 10.53466,9.792 0.556,0.516 1.392,-0.31733 0.83467,-0.83466 -3.51067,-3.26534 -7.02267,-6.528 -10.53467,-9.792 -0.556,-0.51734 -1.392,0.316 -0.83466,0.83466 v 0"
       style="fill:#574f66;fill-opacity:1;fill-rule:nonzero;stroke:none;stroke-width:0.133333" />
    <path
       id="path78"
       d="m 269.45599,475.93067 c 1.29467,4.08667 2.58667,8.17334 3.88134,12.26267 0.228,0.72133 1.368,0.412 1.13866,-0.31467 -1.29466,-4.088 -2.58666,-8.17466 -3.88133,-12.26266 -0.228,-0.72267 -1.368,-0.41334 -1.13867,0.31466 v 0"
       style="fill:#574f66;fill-opacity:1;fill-rule:nonzero;stroke:none;stroke-width:0.133333" />
    <path
       id="path79"
       d="m 288.60799,480.07467 c -0.0587,2.464 -0.49066,4.89067 -1.27466,7.22667 -0.24267,0.72267 0.89733,1.032 1.13866,0.31333 0.81467,-2.43066 1.256,-4.976 1.316,-7.54 0.0187,-0.76 -1.16266,-0.75866 -1.18,0 v 0"
       style="fill:#574f66;fill-opacity:1;fill-rule:nonzero;stroke:none;stroke-width:0.133333" />
    <path
       id="path80"
       d="m 299.01066,487.73601 c -0.624,1.43333 -1.24933,2.868 -1.87333,4.30266 -0.128,0.29067 -0.0853,0.632 0.212,0.80667 0.24933,0.14533 0.68,0.0827 0.808,-0.21067 0.624,-1.43466 1.248,-2.868 1.87333,-4.30266 0.12667,-0.29067 0.0853,-0.63334 -0.212,-0.80667 -0.25067,-0.14667 -0.68,-0.0827 -0.808,0.21067 v 0"
       style="fill:#574f66;fill-opacity:1;fill-rule:nonzero;stroke:none;stroke-width:0.133333" />
    <path
       id="path81"
       d="m 307.70933,499.63467 c -0.04,0.28934 -0.108,0.57467 -0.204,0.85067 -0.0267,0.0747 -0.056,0.148 -0.084,0.22267 -0.032,0.0787 0.0413,-0.0893 0.003,-0.0107 -0.0173,0.0347 -0.032,0.0707 -0.0493,0.10667 -0.0653,0.13466 -0.13733,0.268 -0.21467,0.396 -0.0733,0.12266 -0.15733,0.236 -0.23733,0.35333 -0.04,0.0587 0.0613,-0.0733 -0.009,0.0133 -0.02,0.024 -0.04,0.048 -0.06,0.0733 -0.0507,0.0613 -0.10267,0.12 -0.15734,0.17866 -0.096,0.104 -0.19866,0.20267 -0.304,0.296 -0.06,0.0533 -0.12133,0.10267 -0.18266,0.15334 0.0387,-0.032 0.0587,-0.0427 0.008,-0.005 -0.0387,0.028 -0.0773,0.056 -0.116,0.0827 -0.25334,0.176 -0.39467,0.52533 -0.212,0.808 0.16133,0.25067 0.536,0.4 0.808,0.212 1.136,-0.79467 1.956,-2.03467 2.15066,-3.41733 0.0227,-0.164 0.028,-0.30534 -0.06,-0.456 -0.0707,-0.12134 -0.212,-0.23734 -0.352,-0.27067 -0.27866,-0.064 -0.68,0.0853 -0.72666,0.41333 v 0"
       style="fill:#574f66;fill-opacity:1;fill-rule:nonzero;stroke:none;stroke-width:0.133333" />
    <path
       id="path82"
       d="m 312.32933,512.30134 c -0.60934,0.41867 -1.22,0.83867 -1.82934,1.25867 -0.128,0.088 -0.22933,0.19866 -0.27066,0.35333 -0.04,0.14 -0.0227,0.32933 0.0587,0.45467 0.16267,0.252 0.536,0.39866 0.808,0.212 0.60934,-0.42134 1.22,-0.84 1.82934,-1.25867 0.128,-0.0893 0.22933,-0.2 0.272,-0.35333 0.0387,-0.14267 0.0213,-0.32934 -0.06,-0.456 -0.16267,-0.252 -0.536,-0.39867 -0.808,-0.21067 v 0"
       style="fill:#574f66;fill-opacity:1;fill-rule:nonzero;stroke:none;stroke-width:0.133333" />
    <path
       id="path83"
       d="m 314.41733,530.00001 c -0.82134,0 -1.64267,0 -2.46534,0 -0.308,0 -0.604,0.272 -0.58933,0.592 0.0133,0.31866 0.25867,0.58933 0.58933,0.58933 0.82267,0 1.644,0 2.46534,0 0.30933,0 0.604,-0.272 0.58933,-0.58933 -0.0133,-0.32134 -0.25867,-0.592 -0.58933,-0.592 v 0"
       style="fill:#574f66;fill-opacity:1;fill-rule:nonzero;stroke:none;stroke-width:0.133333" />
    <path
       id="path84"
       d="m 310.21199,544.32134 c -1.212,-0.46147 -2.42666,-0.92293 -3.63866,-1.3828 -0.28934,-0.1104 -0.66,0.12133 -0.72667,0.412 -0.0773,0.33747 0.10267,0.60933 0.412,0.72653 1.21333,0.46147 2.42667,0.92134 3.64,1.38174 0.28933,0.11053 0.66,-0.12134 0.72533,-0.41187 0.0773,-0.33653 -0.10133,-0.60947 -0.412,-0.7256 v 0"
       style="fill:#574f66;fill-opacity:1;fill-rule:nonzero;stroke:none;stroke-width:0.133333" />
    <path
       id="path85"
       d="m 303.60666,555.56254 c -1.2,-1.26093 -2.4,-2.524 -3.6,-3.78653 -0.22,-0.23067 -0.61333,-0.22134 -0.83467,0 -0.23066,0.2308 -0.22,0.60266 0,0.8344 1.2,1.26413 2.4,2.5256 3.6,3.788 0.22,0.2308 0.61334,0.22133 0.83467,0 0.232,-0.23174 0.22133,-0.6036 0,-0.83587 v 0"
       style="fill:#574f66;fill-opacity:1;fill-rule:nonzero;stroke:none;stroke-width:0.133333" />
    <path
       id="path86"
       d="m 295.11866,503.35601 c 1.52267,2.85866 2.596,5.91866 3.22933,9.09466 0.12534,0.62667 0.86934,0.98534 1.452,0.82534 0.652,-0.17867 0.95067,-0.82534 0.82534,-1.45334 -0.672,-3.36933 -1.85334,-6.62533 -3.468,-9.66 -0.29867,-0.56133 -1.08,-0.73466 -1.616,-0.42266 -0.568,0.33333 -0.724,1.05066 -0.42267,1.616 v 0"
       style="fill:#ffffff;fill-opacity:1;fill-rule:nonzero;stroke:none;stroke-width:0.133333" />
    <path
       id="path87"
       d="m 299.06666,520.11734 c 0,0.82133 0,1.644 0,2.46533 0,0.30134 0.132,0.62134 0.34667,0.83467 0.204,0.204 0.54,0.35867 0.83466,0.34667 0.64,-0.0293 1.18,-0.52 1.18,-1.18134 0,-0.82133 0,-1.644 0,-2.46533 0,-0.30133 -0.132,-0.62133 -0.34533,-0.83467 -0.20533,-0.204 -0.54133,-0.35866 -0.83467,-0.34666 -0.64,0.0293 -1.18133,0.52 -1.18133,1.18133 v 0"
       style="fill:#ffffff;fill-opacity:1;fill-rule:nonzero;stroke:none;stroke-width:0.133333" />
    <path
       id="path88"
       d="m 273.91066,520.12801 c -0.212,2.05333 -0.424,4.10666 -0.636,6.15866 -0.064,0.616 0.588,1.20667 1.18,1.18134 0.69467,-0.032 1.11333,-0.52134 1.18133,-1.18134 0.212,-2.052 0.424,-4.10533 0.636,-6.15866 0.064,-0.616 -0.588,-1.20667 -1.18133,-1.18 -0.69333,0.0307 -1.112,0.52 -1.18,1.18 v 0"
       style="fill:#ffffff;fill-opacity:1;fill-rule:nonzero;stroke:none;stroke-width:0.133333" />
    <path
       id="path89"
       d="m 540.89732,472.90934 c 0,0 -39.20133,-9.84133 -50.28933,31.7 l 16.492,-0.36667 33.79733,-31.33333"
       style="fill:#d66826;fill-opacity:1;fill-rule:nonzero;stroke:none;stroke-width:0.133333" />
    <path
       id="path90"
       d="m 490.60799,504.60934 -4.31067,23.51733 h 17.04 l 5.13733,-23.91466 -17.86666,0.39733"
       style="fill:#15131c;fill-opacity:1;fill-rule:nonzero;stroke:none;stroke-width:0.133333" />
    <path
       id="path91"
       d="m 584.55465,522.58267 c 0,27.4976 -18.528,49.7892 -41.38266,49.7892 -22.856,0 -41.384,-22.2916 -41.384,-49.7892 0,-27.49866 18.528,-49.79066 41.384,-49.79066 22.85466,0 41.38266,22.292 41.38266,49.79066"
       style="fill:#2d283a;fill-opacity:1;fill-rule:nonzero;stroke:none;stroke-width:0.133333" />
    <path
       id="path92"
       d="m 579.09332,522.58267 c 0,19.02934 -12.82267,34.45747 -28.64,34.45747 -15.81733,0 -28.63867,-15.42813 -28.63867,-34.45747 0,-19.03066 12.82134,-34.45733 28.63867,-34.45733 15.81733,0 28.64,15.42667 28.64,34.45733"
       style="fill:#574f66;fill-opacity:1;fill-rule:nonzero;stroke:none;stroke-width:0.133333" />
    <path
       id="path93"
       d="m 563.23465,522.58267 c 0,13.76107 -8.34666,24.91734 -18.644,24.91734 -10.29866,0 -18.64533,-11.15627 -18.64533,-24.91734 0,-13.76133 8.34667,-24.91866 18.64533,-24.91866 10.29734,0 18.644,11.15733 18.644,24.91866"
       style="fill:#2d283a;fill-opacity:1;fill-rule:nonzero;stroke:none;stroke-width:0.133333" />
    <path
       id="path94"
       d="m 549.18265,522.58267 c 0,7.85334 -4.764,14.22 -10.64,14.22 -5.87733,0 -10.64266,-6.36666 -10.64266,-14.22 0,-7.85466 4.76533,-14.22133 10.64266,-14.22133 5.876,0 10.64,6.36667 10.64,14.22133"
       style="fill:#2d698c;fill-opacity:1;fill-rule:nonzero;stroke:none;stroke-width:0.133333" />
    <path
       id="path95"
       d="m 516.83332,557.04947 c 3.396,-2.9656 6.62667,-6.11613 9.67467,-9.4416 0.51333,-0.5584 -0.32,-1.39586 -0.83467,-0.8344 -3.048,3.32494 -6.27733,6.476 -9.67467,9.44107 -0.57466,0.5 0.264,1.3324 0.83467,0.83493 v 0"
       style="fill:#574f66;fill-opacity:1;fill-rule:nonzero;stroke:none;stroke-width:0.133333" />
    <path
       id="path96"
       d="m 526.76265,566.07707 c 2.51867,-4.3396 5.31734,-8.5104 8.38,-12.48493 0.464,-0.60307 -0.56133,-1.19107 -1.02,-0.59733 -3.06133,3.976 -5.86133,8.1464 -8.38,12.4864 -0.38133,0.65893 0.63867,1.2532 1.02,0.59586 v 0"
       style="fill:#574f66;fill-opacity:1;fill-rule:nonzero;stroke:none;stroke-width:0.133333" />
    <path
       id="path97"
       d="m 541.46665,569.55467 c 1.032,-3.4896 2.06267,-6.97866 3.09334,-10.46826 0.216,-0.73067 -0.924,-1.04267 -1.13867,-0.31454 -1.03067,3.49067 -2.06267,6.98027 -3.092,10.46934 -0.216,0.73066 0.92267,1.04266 1.13733,0.31346 v 0"
       style="fill:#574f66;fill-opacity:1;fill-rule:nonzero;stroke:none;stroke-width:0.133333" />
    <path
       id="path98"
       d="m 562.50665,565.70107 c -0.26133,-2.6636 -0.52133,-5.3276 -0.78266,-7.99173 -0.0747,-0.75053 -1.256,-0.7588 -1.18134,0 0.26134,2.66413 0.52267,5.32813 0.784,7.99173 0.0733,0.7484 1.25467,0.75627 1.18,0 v 0"
       style="fill:#574f66;fill-opacity:1;fill-rule:nonzero;stroke:none;stroke-width:0.133333" />
    <path
       id="path99"
       d="m 507.39732,538.61881 c 4.91333,-2.76827 10.03333,-5.14427 15.32267,-7.10147 0.70533,-0.26133 0.4,-1.40267 -0.31467,-1.13867 -5.384,1.99334 -10.60267,4.40254 -15.604,7.22134 -0.66133,0.37186 -0.068,1.39213 0.596,1.0188 v 0"
       style="fill:#574f66;fill-opacity:1;fill-rule:nonzero;stroke:none;stroke-width:0.133333" />
    <path
       id="path100"
       d="m 503.33732,519.41467 c 4.93733,0.304 9.88667,0.204 14.80667,-0.29866 0.74933,-0.076 0.756,-1.25867 0,-1.18134 -4.92,0.50267 -9.86934,0.604 -14.80667,0.29867 -0.76,-0.0467 -0.75733,1.13467 0,1.18133 v 0"
       style="fill:#574f66;fill-opacity:1;fill-rule:nonzero;stroke:none;stroke-width:0.133333" />
    <path
       id="path101"
       d="m 508.38799,500.94001 c 2.69066,0.96533 5.38266,1.92933 8.07466,2.892 1.308,0.46933 2.61067,0.95333 3.92534,1.40266 1.17466,0.40267 2.36666,0.664 3.58933,0.31867 0.73067,-0.20533 0.42,-1.344 -0.31333,-1.13733 -1.24534,0.352 -2.46267,-0.13867 -3.62934,-0.55467 -1.27466,-0.456 -2.54933,-0.91467 -3.82533,-1.37067 -2.50267,-0.896 -5.00533,-1.792 -7.508,-2.688 -0.716,-0.25733 -1.02533,0.884 -0.31333,1.13734 v 0"
       style="fill:#574f66;fill-opacity:1;fill-rule:nonzero;stroke:none;stroke-width:0.133333" />
    <path
       id="path102"
       d="m 520.78932,485.41067 c 3.51067,3.264 7.02267,6.528 10.53467,9.792 0.556,0.516 1.392,-0.31733 0.83466,-0.83466 -3.512,-3.26534 -7.02266,-6.528 -10.53466,-9.792 -0.556,-0.51734 -1.39334,0.316 -0.83467,0.83466 v 0"
       style="fill:#574f66;fill-opacity:1;fill-rule:nonzero;stroke:none;stroke-width:0.133333" />
    <path
       id="path103"
       d="m 538.45999,475.93067 c 1.29333,4.08667 2.58666,8.17334 3.88,12.26267 0.228,0.72133 1.36933,0.412 1.13866,-0.31467 -1.29333,-4.088 -2.58666,-8.17466 -3.88,-12.26266 -0.228,-0.72267 -1.36933,-0.41334 -1.13866,0.31466 v 0"
       style="fill:#574f66;fill-opacity:1;fill-rule:nonzero;stroke:none;stroke-width:0.133333" />
    <path
       id="path104"
       d="m 557.61199,480.07467 c -0.0587,2.464 -0.492,4.89067 -1.27467,7.22667 -0.24267,0.72267 0.896,1.032 1.13733,0.31333 0.81467,-2.43066 1.256,-4.976 1.316,-7.54 0.0187,-0.76 -1.16266,-0.75866 -1.17866,0 v 0"
       style="fill:#574f66;fill-opacity:1;fill-rule:nonzero;stroke:none;stroke-width:0.133333" />
    <path
       id="path105"
       d="m 568.01332,487.73601 c -0.62267,1.43333 -1.248,2.868 -1.872,4.30266 -0.128,0.29067 -0.0867,0.632 0.21067,0.80667 0.25066,0.14533 0.68,0.0827 0.80933,-0.21067 0.624,-1.43466 1.248,-2.868 1.872,-4.30266 0.128,-0.29067 0.0853,-0.63334 -0.21067,-0.80667 -0.25066,-0.14667 -0.68,-0.0827 -0.80933,0.21067 v 0"
       style="fill:#574f66;fill-opacity:1;fill-rule:nonzero;stroke:none;stroke-width:0.133333" />
    <path
       id="path106"
       d="m 576.71332,499.63467 c -0.04,0.28934 -0.108,0.57467 -0.20533,0.85067 -0.0253,0.0747 -0.056,0.148 -0.084,0.22267 -0.0307,0.0787 0.0413,-0.0893 0.004,-0.0107 -0.0187,0.0347 -0.032,0.0707 -0.0493,0.10667 -0.0653,0.13466 -0.13733,0.268 -0.21466,0.396 -0.0747,0.12266 -0.15734,0.236 -0.23867,0.35333 -0.04,0.0587 0.0627,-0.0733 -0.009,0.0133 -0.02,0.024 -0.0387,0.048 -0.06,0.0733 -0.0507,0.0613 -0.10267,0.12 -0.156,0.17866 -0.096,0.104 -0.19867,0.20267 -0.304,0.296 -0.06,0.0533 -0.12134,0.10267 -0.18267,0.15334 0.0387,-0.032 0.0587,-0.0427 0.007,-0.005 -0.0387,0.028 -0.0773,0.056 -0.11467,0.0827 -0.25333,0.176 -0.39467,0.52533 -0.212,0.808 0.16133,0.25067 0.536,0.4 0.80667,0.212 1.13733,-0.79467 1.95733,-2.03467 2.15066,-3.41733 0.024,-0.164 0.0293,-0.30534 -0.0587,-0.456 -0.0707,-0.12134 -0.212,-0.23734 -0.352,-0.27067 -0.27867,-0.064 -0.68134,0.0853 -0.72667,0.41333 v 0"
       style="fill:#574f66;fill-opacity:1;fill-rule:nonzero;stroke:none;stroke-width:0.133333" />
    <path
       id="path107"
       d="m 581.33332,512.30134 c -0.60933,0.41867 -1.22,0.83867 -1.82933,1.25867 -0.12934,0.088 -0.22934,0.19866 -0.272,0.35333 -0.0387,0.14 -0.0213,0.32933 0.0587,0.45467 0.16267,0.252 0.53734,0.39866 0.80934,0.212 0.60933,-0.42134 1.21866,-0.84 1.82933,-1.25867 0.128,-0.0893 0.22933,-0.2 0.27067,-0.35333 0.0387,-0.14267 0.0227,-0.32934 -0.0587,-0.456 -0.164,-0.252 -0.536,-0.39867 -0.808,-0.21067 v 0"
       style="fill:#574f66;fill-opacity:1;fill-rule:nonzero;stroke:none;stroke-width:0.133333" />
    <path
       id="path108"
       d="m 583.41999,530.00001 c -0.82134,0 -1.64134,0 -2.464,0 -0.308,0 -0.60534,0.272 -0.59067,0.592 0.0147,0.31866 0.26,0.58933 0.59067,0.58933 0.82266,0 1.64266,0 2.464,0 0.30933,0 0.60533,-0.272 0.59066,-0.58933 -0.0133,-0.32134 -0.26,-0.592 -0.59066,-0.592 v 0"
       style="fill:#574f66;fill-opacity:1;fill-rule:nonzero;stroke:none;stroke-width:0.133333" />
    <path
       id="path109"
       d="m 579.21599,544.32134 c -1.21334,-0.46147 -2.42667,-0.92293 -3.64,-1.3828 -0.28934,-0.1104 -0.66,0.12133 -0.72667,0.412 -0.076,0.33747 0.10267,0.60933 0.41333,0.72653 1.21334,0.46147 2.42534,0.92134 3.63867,1.38174 0.28933,0.11053 0.66133,-0.12134 0.72667,-0.41187 0.0773,-0.33653 -0.10267,-0.60947 -0.412,-0.7256 v 0"
       style="fill:#574f66;fill-opacity:1;fill-rule:nonzero;stroke:none;stroke-width:0.133333" />
    <path
       id="path110"
       d="m 572.61065,555.56254 c -1.2,-1.26093 -2.4,-2.524 -3.60133,-3.78653 -0.22,-0.23067 -0.61333,-0.22134 -0.83467,0 -0.23066,0.2308 -0.22133,0.60266 0,0.8344 1.2,1.26413 2.4,2.5256 3.60134,3.788 0.22,0.2308 0.61333,0.22133 0.83466,0 0.23067,-0.23174 0.22134,-0.6036 0,-0.83587 v 0"
       style="fill:#574f66;fill-opacity:1;fill-rule:nonzero;stroke:none;stroke-width:0.133333" />
    <path
       id="path111"
       d="m 564.12132,503.35601 c 1.52267,2.85866 2.59733,5.91866 3.22933,9.09466 0.12534,0.62667 0.87067,0.98534 1.45334,0.82534 0.652,-0.17867 0.94933,-0.82534 0.824,-1.45334 -0.672,-3.36933 -1.852,-6.62533 -3.46667,-9.66 -0.3,-0.56133 -1.08133,-0.73466 -1.616,-0.42266 -0.56933,0.33333 -0.724,1.05066 -0.424,1.616 v 0"
       style="fill:#ffffff;fill-opacity:1;fill-rule:nonzero;stroke:none;stroke-width:0.133333" />
    <path
       id="path112"
       d="m 568.06932,520.11734 c 0,0.82133 0,1.644 0,2.46533 0,0.30134 0.13333,0.62134 0.34667,0.83467 0.204,0.204 0.54,0.35867 0.83466,0.34667 0.64134,-0.0293 1.18134,-0.52 1.18134,-1.18134 0,-0.82133 0,-1.644 0,-2.46533 0,-0.30133 -0.132,-0.62133 -0.34667,-0.83467 -0.204,-0.204 -0.54,-0.35866 -0.83467,-0.34666 -0.63866,0.0293 -1.18133,0.52 -1.18133,1.18133 v 0"
       style="fill:#ffffff;fill-opacity:1;fill-rule:nonzero;stroke:none;stroke-width:0.133333" />
    <path
       id="path113"
       d="m 542.91332,520.12801 c -0.212,2.05333 -0.42267,4.10666 -0.63467,6.15866 -0.064,0.616 0.588,1.20667 1.18,1.18134 0.69467,-0.032 1.112,-0.52134 1.18,-1.18134 0.212,-2.052 0.424,-4.10533 0.63734,-6.15866 0.064,-0.616 -0.58934,-1.20667 -1.18134,-1.18 -0.69466,0.0307 -1.112,0.52 -1.18133,1.18 v 0"
       style="fill:#ffffff;fill-opacity:1;fill-rule:nonzero;stroke:none;stroke-width:0.133333" />
    <path
       id="path114"
       d="m 355.07599,289.56535 h 200.55466 l 34.78134,132.00799 h -235.336 V 289.56535"
       style="fill:#2d698c;fill-opacity:1;fill-rule:nonzero;stroke:none;stroke-width:0.133333" />
    <path
       id="path127"
       d="m 551.50799,412.21868 c 6.136,-6.18534 12.27066,-12.372 18.40533,-18.55867 1.072,-1.07867 -0.59733,-2.75067 -1.66933,-1.66933 -6.13467,6.18666 -12.27067,12.372 -18.404,18.55733 -1.072,1.08133 0.59733,2.752 1.668,1.67067 v 0"
       style="fill:#d66826;fill-opacity:1;fill-rule:nonzero;stroke:none;stroke-width:0.133333" />
    <path
       id="path128"
       d="m 564.06665,411.21334 c 4.10667,-3.696 8.21467,-7.39333 12.32134,-11.09066 1.13066,-1.01867 -0.544,-2.68534 -1.67067,-1.66934 -4.10533,3.69734 -8.212,7.39334 -12.32,11.09067 -1.132,1.01867 0.54267,2.684 1.66933,1.66933 v 0"
       style="fill:#d66826;fill-opacity:1;fill-rule:nonzero;stroke:none;stroke-width:0.133333" />
    <path
       id="path129"
       d="m 382.96932,341.02401 c 6.26934,-7.716 12.53734,-15.43066 18.80667,-23.14666 0.95067,-1.16934 -0.712,-2.85067 -1.66933,-1.66934 -6.268,7.71467 -12.53867,15.43067 -18.80667,23.14667 -0.95067,1.16933 0.71067,2.85066 1.66933,1.66933 v 0"
       style="fill:#d66826;fill-opacity:1;fill-rule:nonzero;stroke:none;stroke-width:0.133333" />
    <path
       id="path130"
       d="m 384.25066,323.81335 c 2.87466,-2.87467 5.75066,-5.74934 8.62533,-8.62534 1.076,-1.07466 -0.59333,-2.74533 -1.67067,-1.66933 -2.87466,2.87467 -5.75066,5.74933 -8.62533,8.62533 -1.07467,1.076 0.59333,2.74667 1.67067,1.66934 v 0"
       style="fill:#d66826;fill-opacity:1;fill-rule:nonzero;stroke:none;stroke-width:0.133333" />
    <path
       id="path131"
       d="m 388.15066,468.98001 c 6.5,-8.45867 13.92533,-16.188 22.076,-23.06667 1.16266,-0.98133 -0.516,-2.64533 -1.67067,-1.67066 -8.31467,7.02 -15.816,14.91866 -22.444,23.54533 -0.92533,1.204 1.124,2.38133 2.03867,1.192 v 0"
       style="fill:#d66826;fill-opacity:1;fill-rule:nonzero;stroke:none;stroke-width:0.133333" />
    <path
       id="path132"
       d="m 413.82132,458.11468 c 2.05334,-2.05334 4.108,-4.10667 6.16134,-6.16134 0.43733,-0.436 0.46933,-1.23866 0,-1.66933 -0.472,-0.432 -1.20267,-0.46533 -1.67067,0 -2.05333,2.05333 -4.10667,4.10667 -6.16,6.16 -0.43733,0.43733 -0.47067,1.24 0,1.67067 0.47067,0.432 1.20267,0.46666 1.66933,0 v 0"
       style="fill:#d66826;fill-opacity:1;fill-rule:nonzero;stroke:none;stroke-width:0.133333" />
    <path
       id="path133"
       d="m 550.58665,275.76135 c 4.51867,-4.51867 9.03467,-9.036 13.55334,-13.55334 1.076,-1.076 -0.59334,-2.74666 -1.66934,-1.67066 -4.51866,4.51866 -9.036,9.036 -13.55333,13.55333 -1.07733,1.076 0.592,2.74667 1.66933,1.67067 v 0"
       style="fill:#d66826;fill-opacity:1;fill-rule:nonzero;stroke:none;stroke-width:0.133333" />
    <path
       id="path134"
       d="m 540.61199,273.18935 c 4.10933,-4.516 8.22,-9.03067 12.32933,-13.54534 1.02133,-1.12266 -0.644,-2.79733 -1.66933,-1.67066 -4.11067,4.516 -8.22,9.03066 -12.32934,13.54533 -1.02266,1.12267 0.64267,2.79733 1.66934,1.67067 v 0"
       style="fill:#d66826;fill-opacity:1;fill-rule:nonzero;stroke:none;stroke-width:0.133333" />
    <path
       id="path135"
       d="m 379.51599,272.28668 c 2.84933,-2.49467 5.69867,-4.98933 8.54667,-7.48267 0.48,-0.42 0.43066,-1.24 0,-1.67066 -0.476,-0.476 -1.188,-0.42134 -1.66934,0 -2.84933,2.49466 -5.69866,4.98933 -8.548,7.48266 -0.47866,0.42134 -0.42933,1.24 0,1.67067 0.47734,0.476 1.18934,0.42133 1.67067,0 v 0"
       style="fill:#d66826;fill-opacity:1;fill-rule:nonzero;stroke:none;stroke-width:0.133333" />
    <path
       id="path136"
       d="m 68.090665,215.73335 c 86.815995,-25.32667 174.490665,-47.70933 262.822665,-67.09733 -3.76534,-6.404 -11.30667,-10.33867 -18.736,-10.44134 -7.428,-0.10133 -14.78267,3.908 -18.72267,10.208 -6.072,-12.264 -24.484,-19.08666 -38.028,-17.12666 -13.544,1.95733 -25.20267,13.284 -27.55333,26.76533 -4.28134,-7.368 -13.564,-14.54533 -19.976,-20.156 -6.41334,-5.612 -15.18667,-9.18 -23.512,-7.36933 -6.86533,1.49333 -12.49867,6.36 -17.14533,11.62933 -9.28534,10.53467 -16.084,24.728 -12.97467,38.42267 -4.01467,-5.208 -14.24,-9.62534 -20.51467,-7.66267 -6.2756,1.96133 -11.0168,8.08 -11.35066,14.64667 -2.8688,-6.32667 -14.25307,-6.364 -20.788,-4.00667 -6.534402,2.35867 -10.568802,10.12933 -8.736936,16.83066 -1.912,-6.46799 -16.625599,-8.64266 -21.525599,-4.00799 -4.898933,4.63466 -4.459333,12.72933 -3.2588,19.36533"
       style="fill:#f4e5cb;fill-opacity:1;fill-rule:nonzero;stroke:none;stroke-width:0.133333" />
    <path
       id="path137"
       d="m 398.50132,139.86002 c 84.65067,31.824 168.22267,66.51733 250.52266,103.99999 0.82934,-7.38266 -2.844,-15.05466 -8.72533,-19.59333 -5.88267,-4.53867 -14.172,-5.744 -21.10267,-3.06667 2.49867,-13.45466 -8.13733,-29.95866 -20.14799,-36.51733 -12.01067,-6.55866 -28.13467,-4.492 -38.10134,4.884 0.99467,-8.464 -2.12666,-19.77466 -3.88933,-28.112 -1.764,-8.336 -6.64267,-16.456 -14.38933,-20.00133 -6.38934,-2.924 -13.816,-2.41067 -20.69467,-0.98267 -13.748,2.85734 -27.70267,10.13334 -33.43067,22.95467 -0.0893,-6.57467 -5.61866,-16.24267 -11.816,-18.43733 -6.19866,-2.196 -13.66266,-0.14534 -17.86799,4.908 1.5,-6.78267 -7.58534,-13.64267 -14.22934,-15.67734 -6.64133,-2.03333 -14.53066,1.764 -17.08533,8.22267 2.35067,-6.32133 -8.116,-16.888 -14.816,-16.12 -6.70133,0.76933 -11.20533,7.508 -14.22667,13.53867"
       style="fill:#f4e5cb;fill-opacity:1;fill-rule:nonzero;stroke:none;stroke-width:0.133333" />
    <path
       id="path138"
       d="m 172.65066,100.66268 c 88.716,-17.553329 178.02533,-32.097328 267.72533,-43.601328 -3.184,-6.712 -10.348,-11.298666 -17.73867,-12.056 -7.392,-0.757333 -15.072,2.585333 -19.552,8.510667 -4.96533,-12.752 -22.70133,-21.173333 -36.36533,-20.421333 -13.664,0.753333 -26.27867,11.005333 -29.812,24.226666 -3.612,-7.718667 -12.22533,-15.688 -18.116,-21.844 -5.892,-6.155999 -14.31466,-10.486666 -22.76933,-9.418666 -6.96933,0.881333 -13.012,5.229333 -18.104,10.068 -10.18133,9.672 -18.208,23.209333 -16.32133,37.125332 -3.53867,-5.542666 -13.33334,-10.846666 -19.75734,-9.446666 -6.424,1.4 -11.688,7.076 -12.60133,13.586666 -2.29733,-6.556 -13.63467,-7.598666 -20.352,-5.828 -6.71733,1.770667 -11.42266,9.154667 -10.19066,15.990666 -1.332,-6.610666 -15.79734,-10.077333 -21.08667,-5.894666 -5.28933,4.184 -5.568,12.285333 -4.95867,19.002662"
       style="fill:#f4e5cb;fill-opacity:1;fill-rule:nonzero;stroke:none;stroke-width:0.133333" />
    <g
       id="g2">
      <path
         id="path115"
         d="m 420.60388,387.98496 c -0.12206,-7.53147 -0.65963,-19.57595 -1.61151,-36.12524 -0.95408,-16.54737 -1.72944,-25.27241 -2.32849,-26.17121 -0.032,-1.81673 0.66235,-3.22595 2.07523,-4.22213 0.51218,-0.33364 1.24011,-0.62432 2.17499,-0.86662 0.93719,-0.24415 1.79722,-0.36829 2.57709,-0.38288 0.39054,-0.0681 1.20033,-0.1166 2.43476,-0.13754 1.49343,-0.0233 2.57112,0.20183 3.22647,0.67883 0.65533,0.47685 0.9955,1.33272 1.01685,2.56306 0.0103,0.71987 -0.24024,1.25901 -0.75119,1.62359 -0.51506,0.36417 -1.16178,0.5557 -1.9392,0.56643 l -0.97849,-0.0784 -1.36405,0.0227 c -1.81857,0.0296 -2.72041,0.40012 -2.70762,1.11206 0.0542,3.38205 0.35196,7.79355 0.89728,13.23702 0.46212,4.54209 0.79176,8.85598 0.99053,12.94596 0.45021,-0.13411 1.30993,-0.363 2.56981,-0.67527 1.26195,-0.31203 2.2162,-0.47654 2.87039,-0.4866 0.70964,-0.0103 1.33475,0.28638 1.86444,0.89723 0.52809,0.60654 0.79943,1.29978 0.81403,2.07966 0.0118,0.91107 -0.39665,1.56672 -1.23586,1.9701 -0.12972,0.0688 -0.43551,0.21765 -0.91995,0.45327 -0.48461,0.23764 -1.11132,0.39198 -1.89107,0.47027 -0.58215,0.0747 -1.55622,0.18777 -2.91588,0.33856 l -1.07391,0.0183 c 0.0628,3.89842 0.47506,9.18554 1.2324,15.86298 0.69975,7.0048 1.07897,12.29292 1.13801,15.8623 l -0.091,0.39606 -0.0945,0.19037 c 0.0677,0.26315 0.10747,0.68798 0.11634,1.26807 0.0149,0.84559 -0.26631,1.51332 -0.84336,2.01132 -0.57498,0.49819 -1.35089,0.7535 -2.32588,0.76822 -1.88433,0.0291 -2.85836,-2.0306 -2.92751,-6.18843"
         style="fill:#d66826;fill-opacity:1;fill-rule:nonzero;stroke:none;stroke-width:0.204495" />
      <path
         id="path116"
         d="m 489.41874,370.67567 c -0.48458,-2.82227 -1.16786,-6.31092 -2.05183,-10.46801 -2.97829,-14.44756 -4.63297,-23.32312 -4.97029,-26.61653 l -0.0812,-0.77577 c -0.57884,0.71276 -1.16752,3.72813 -1.76811,9.04203 -0.59858,5.32002 -1.07758,10.99695 -1.44322,17.04091 -0.35745,6.04608 -0.47619,10.04309 -0.33978,11.98705 2.79124,0.49676 5.7066,0.59174 8.7462,0.28084 0.51582,-0.0549 1.15119,-0.21695 1.9082,-0.49052 z m 2.92579,20.46154 c -0.52673,-0.33589 -0.83422,-0.95414 -0.92649,-1.86294 l -1.30027,-12.69666 c -0.8996,-0.49459 -2.53457,-0.85038 -4.90696,-1.06739 -2.37242,-0.21296 -4.59888,-0.27736 -6.67732,-0.19938 -0.5749,1.43467 -0.92103,3.13313 -1.04863,5.10137 l -0.18908,1.98204 c -0.0178,0.45793 -0.11114,1.48168 -0.27419,3.06515 -0.16721,1.58343 -0.38169,2.96195 -0.65566,4.12728 -0.26995,1.1715 -0.56642,2.10144 -0.88936,2.78576 -2.4583,0.25258 -3.94271,-0.24915 -4.46347,-1.5032 0.60475,-1.10518 1.10439,-4.22561 1.49274,-9.3573 l 1.38465,-18.06396 c 0.56335,-8.54536 1.13628,-15.84726 1.72508,-21.91995 0.58871,-6.06451 1.3572,-11.17038 2.30346,-15.31762 1.02998,-4.60665 2.22456,-6.98279 3.58164,-7.12226 1.35912,-0.13952 2.41504,0.0164 3.1801,0.45924 0.26577,2.58723 1.51462,8.75777 3.7526,18.51779 2.28473,9.55798 3.60788,16.1177 3.97156,19.67107 0.35049,3.42438 1.20778,8.29698 2.57183,14.62396 1.31378,6.46148 2.16645,11.62855 2.56414,15.50326 0.22213,2.1983 -0.73115,3.40268 -2.86197,3.6254 -1.03361,0.10141 -1.81181,-0.0103 -2.3344,-0.35166"
         style="fill:#d66826;fill-opacity:1;fill-rule:nonzero;stroke:none;stroke-width:0.204495" />
      <path
         id="path125"
         d="m 450.48646,343.51475 0.91233,-8.46002 c 0.0431,-0.32557 0.0474,-0.78186 0.0118,-1.36284 -0.12545,-1.8808 -0.62372,-4.02624 -1.49649,-6.44457 -0.46612,-1.14088 -1.03061,-2.09794 -1.69989,-2.86732 -0.67118,-0.77152 -1.33292,-1.16594 -1.98288,-1.18727 l 0.4402,9.73536 c 0.0909,4.35411 0.214,7.72917 0.36928,10.12515 0.14876,2.26875 0.27751,3.76077 0.3886,4.46999 0.85044,-0.9665 1.86513,-2.3042 3.05814,-4.00846 z m 9.60135,46.82444 -0.0218,-0.29168 c -0.41773,-3.42322 -1.25094,-7.20923 -2.49734,-11.362 -1.24873,-4.14673 -3.00562,-9.13947 -5.27669,-14.98051 -1.7172,-4.37884 -3.17792,-8.32025 -4.38426,-11.8223 l 2.50203,38.30563 c 0.0697,1.03694 -0.0584,1.80896 -0.38377,2.32033 -0.3282,0.5112 -1.00855,0.7976 -2.0455,0.86718 -0.77598,0.0488 -1.40761,-0.15185 -1.89232,-0.61202 -0.48695,-0.45608 -0.75582,-1.07217 -0.80636,-1.85236 l -0.0508,-0.77609 -1.66978,-28.5955 c -0.42145,-8.43459 -0.97686,-17.93155 -1.66596,-28.49702 l -0.78136,-11.95963 c -0.0528,-0.77615 0.0762,-1.32302 0.38138,-1.6367 0.3028,-0.31173 0.97479,-0.50433 2.01143,-0.56781 1.61999,-0.1066 3.13538,0.10555 4.5342,0.63168 1.40085,0.52625 2.62233,1.30639 3.66822,2.34669 2.15465,2.13879 3.63166,4.77491 4.42265,7.91214 0.34309,1.28064 0.56841,2.76478 0.68036,4.44638 0.0643,0.9712 0.0505,2.0473 -0.0339,3.22261 -0.086,1.17928 -0.15103,1.92965 -0.19458,2.25726 -0.0871,0.66337 -0.31445,1.64998 -0.6858,2.97598 -0.36933,1.3261 -0.60693,2.18531 -0.70905,2.58596 l -0.9888,2.79645 -0.80753,2.59174 c 0.21757,2.33125 0.8156,5.25499 1.7941,8.77125 0.97664,3.51207 2.02031,6.76517 3.12709,9.75501 0.78725,2.09304 2.18455,5.58326 4.19842,10.46073 l 3.37823,8.37238 0.0135,0.19509 c 0.0706,1.10452 0.0314,2.05056 -0.10801,2.83846 -0.12754,1.04639 -0.77333,1.61275 -1.94369,1.69063 -1.2297,0.0772 -2.4833,-0.71666 -3.7645,-2.38998"
         style="fill:#d66826;fill-opacity:1;fill-rule:nonzero;stroke:none;stroke-width:0.204495" />
      <path
         d="m 507.51129,391.3611 q -1.33844,0 -2.34226,-0.66922 -1.00382,-0.66921 -1.00382,-1.89611 0,-3.56915 0.89228,-7.91906 1.00383,-4.46144 2.7884,-10.59592 l 1.11536,-4.3499 q 1.56151,-6.24602 1.56151,-10.81899 0,-3.23455 -2.89994,-15.94965 -2.7884,-12.71511 -4.01529,-14.49968 v -1.2269 q -1.11536,-1.00382 -1.11536,-2.7884 0,-1.00382 1.00382,-1.5615 1.00382,-0.66922 2.34226,-0.66922 1.33843,0 2.23072,1.89611 1.67304,3.12301 3.34608,11.48821 0.89228,3.79223 1.22689,6.35755 l 0.78075,4.12684 q 0,0 0.44615,-2.67687 l 0.33461,-2.23072 q 0.44614,-2.67686 0.55768,-3.56915 0.44614,-3.01147 0.44614,-5.79987 v -2.00765 -1.67304 q 0,-3.12301 1.00382,-4.79605 1.11536,-1.67304 4.0153,-2.45379 l 2.00765,2.67686 q -0.78075,1.2269 -1.33843,3.01148 -0.44615,1.78457 -0.44615,3.123 -0.11153,0.78076 -0.11153,3.45762 v 1.2269 q -1.33844,3.56915 -2.7884,12.49203 -1.44997,8.81134 -1.44997,12.82664 0,3.45761 1.44997,8.81134 1.5615,5.24219 4.57297,14.61122 2.00765,6.02294 2.00765,8.81134 0,1.11536 -0.89229,2.00765 -0.89229,0.78075 -2.11918,0.78075 -1.89611,0 -3.34608,-4.01529 -1.44997,-3.34608 -2.45379,-8.47674 -1.33844,-6.24602 -1.56151,-8.3652 l -0.55768,-2.56533 -1.00382,8.25367 q -0.66922,6.13448 -1.78458,10.26131 v 1.2269 q 0,4.12683 -2.89993,4.12683 z"
         id="text138"
         style="font-size:111.536px;line-height:0;font-family:'Amatic SC';-inkscape-font-specification:'Amatic SC, Normal';text-align:center;letter-spacing:-0.116624px;word-spacing:0px;text-anchor:middle;fill:#d66826;fill-rule:evenodd;stroke-width:3.52472;stroke-linejoin:round;stroke-dasharray:1.17491e+12"
         aria-label="x" />
    </g>
  </g>
</svg>
