<?xml version="1.0" encoding="UTF-8" standalone="no"?>
<!-- Created with Inkscape (http://www.inkscape.org/) -->

<svg
   version="1.1"
   id="svg1"
   width="607.70874"
   height="353.03864"
   viewBox="0 0 607.70874 353.03864"
   sodipodi:docname="iconMapTest.svg"
   inkscape:version="1.3.1 (9b9bdc1480, 2023-11-25, custom)"
   xml:space="preserve"
   xmlns:inkscape="http://www.inkscape.org/namespaces/inkscape"
   xmlns:sodipodi="http://sodipodi.sourceforge.net/DTD/sodipodi-0.dtd"
   xmlns="http://www.w3.org/2000/svg"
   xmlns:svg="http://www.w3.org/2000/svg"><defs
     id="defs1"><rect
       x="252.37263"
       y="197.4568"
       width="342.68005"
       height="222.30727"
       id="rect143" /><radialGradient
       fx="0"
       fy="0"
       cx="0"
       cy="0"
       r="1"
       gradientUnits="userSpaceOnUse"
       gradientTransform="matrix(4005,0,0,-4005,4010,4000)"
       spreadMethod="pad"
       id="radialGradient3"><stop
         style="stop-opacity:1;stop-color:#ffffff"
         offset="0"
         id="stop2" /><stop
         style="stop-opacity:1;stop-color:#e9e9e9"
         offset="1"
         id="stop3" /></radialGradient><clipPath
       clipPathUnits="userSpaceOnUse"
       id="clipPath3"><path
         d="M 8020,0 H 0 V 8000 H 8020 V 0 M 3969.94,6565 v -70 h 20 v 70 h 49.99 v 15.42 H 5529.58 V 8000 h -2960 V 6580.42 H 3924.94 V 6565 h 45"
         transform="translate(0,2.5000001e-4)"
         id="path3-5" /></clipPath><clipPath
       clipPathUnits="userSpaceOnUse"
       id="clipPath107"><path
         d="M 5529.58,6580.42 H 4039.93 V 6630 h -114.99 v -49.58 H 2569.58 V 8000 h 2960 V 6580.42"
         transform="matrix(3.354354e-4,0,0,-6.9386622e-4,-0.85834565,5.5586317)"
         id="path107-3" /></clipPath><clipPath
       clipPathUnits="userSpaceOnUse"
       id="clipPath108"><path
         d="m 3924.94,6580.42 h 114.988 v 49.5781 H 3924.94 Z"
         transform="matrix(0.00762195,0,0,-0.0140449,-29.869665,93.273617)"
         id="path108-5" /></clipPath><clipPath
       clipPathUnits="userSpaceOnUse"
       id="clipPath110"><path
         d="M 0,0 H 8000 V 8000 H 0 Z"
         transform="translate(0,2.5000001e-4)"
         id="path110-6" /></clipPath><clipPath
       clipPathUnits="userSpaceOnUse"
       id="clipPath112"><path
         d="M 0,0 H 8000 V 8000 H 0 Z"
         transform="translate(0,2.5000001e-4)"
         id="path112-2" /></clipPath><clipPath
       clipPathUnits="userSpaceOnUse"
       id="clipPath2"><g
         id="g142"><path
           d="M -3.351133e-6,1066.6667 H 1066.6666 V 2.8095166e-5 H -3.351133e-6 Z"
           id="path142"
           style="stroke-width:0.133333" /></g></clipPath><clipPath
       clipPathUnits="userSpaceOnUse"
       id="clipPath142"><g
         id="g143"><path
           d="M -3.351133e-6,1066.6667 H 1066.6666 V 2.8095166e-5 H -3.351133e-6 Z"
           id="path143"
           style="stroke-width:0.133333" /></g></clipPath><clipPath
       clipPathUnits="userSpaceOnUse"
       id="clipPath144"><rect
         style="fill:#e62a37;fill-opacity:1;fill-rule:evenodd;stroke-width:0.377953;paint-order:markers fill stroke"
         id="rect145"
         width="711.20062"
         height="398.63965"
         x="-724.59332"
         y="-101.5507"
         transform="rotate(9.9613152)" /></clipPath></defs><sodipodi:namedview
     id="namedview1"
     pagecolor="#ffffff"
     bordercolor="#000000"
     borderopacity="0.25"
     inkscape:showpageshadow="2"
     inkscape:pageopacity="0.0"
     inkscape:pagecheckerboard="0"
     inkscape:deskcolor="#d1d1d1"
     inkscape:zoom="1.212"
     inkscape:cx="384.07592"
     inkscape:cy="180.69307"
     inkscape:window-width="1854"
     inkscape:window-height="1011"
     inkscape:window-x="0"
     inkscape:window-y="0"
     inkscape:window-maximized="1"
     inkscape:current-layer="g1"
     showgrid="false"><inkscape:page
       x="0"
       y="0"
       inkscape:label="1"
       id="page1"
       width="607.70874"
       height="353.03864"
       margin="0"
       bleed="0" /></sodipodi:namedview><g
     id="g1"
     inkscape:groupmode="layer"
     inkscape:label="1"><g
       inkscape:label="Calque 1"
       id="layer1"
       transform="matrix(3.7795276,0,0,3.7795276,611.73254,-101.02548)" /><g
       id="g5"
       transform="translate(-34.855834,-227.51733)"><g
         id="g4"><path
           id="path28"
           d="m 203.65333,522.58267 c 0,27.4976 -18.528,49.7892 -41.384,49.7892 -22.85467,0 -41.38293,-22.2916 -41.38293,-49.7892 0,-27.49866 18.52826,-49.79066 41.38293,-49.79066 22.856,0 41.384,22.292 41.384,49.79066"
           style="fill:#15131c;fill-opacity:1;fill-rule:nonzero;stroke:none;stroke-width:0.133333" /><path
           id="path29"
           d="m 473.17199,522.58267 c 0,27.4976 -18.528,49.7892 -41.384,49.7892 -22.85467,0 -41.38267,-22.2916 -41.38267,-49.7892 0,-27.49866 18.528,-49.79066 41.38267,-49.79066 22.856,0 41.384,22.292 41.384,49.79066"
           style="fill:#15131c;fill-opacity:1;fill-rule:nonzero;stroke:none;stroke-width:0.133333" /><path
           id="path30"
           d="m 246.34533,233.93601 303.09732,3.768 c 18.63467,0.23067 34.34267,13.96534 37.05734,32.404 l 34.48266,234.16 c 1.42,9.652 -6.05867,18.31466 -15.81333,18.31466 H 162.86666 l 83.47867,-288.64666"
           style="fill:#355f78;fill-opacity:1;fill-rule:nonzero;stroke:none;stroke-width:0.133333" /><path
           id="path31"
           d="m 238.02533,406.56668 h 72.28533 v -152.732 h -42.71467 l -29.57066,152.732"
           style="fill:#ffffff;fill-opacity:1;fill-rule:nonzero;stroke:none;stroke-width:0.133333" /><path
           id="path32"
           d="M 310.31066,406.56668 V 279.04935 l -26.28533,1.44533 -26.768,126.072 h 53.05333"
           style="fill:#a0daf2;fill-opacity:1;fill-rule:nonzero;stroke:none;stroke-width:0.133333" /><path
           id="path33"
           d="m 291.53599,317.36801 c 4.352,-3.56933 8.428,-7.46133 12.19334,-11.644 0.82666,-0.91866 0.97333,-2.44666 0,-3.34 -0.90134,-0.828 -2.456,-0.98 -3.33867,0 -3.76667,4.18267 -7.84267,8.076 -12.19467,11.644 -0.96,0.78667 -0.87733,2.53467 0,3.34 1.02,0.93467 2.316,0.83867 3.34,0 v 0"
           style="fill:#ffffff;fill-opacity:1;fill-rule:nonzero;stroke:none;stroke-width:0.133333" /><path
           id="path34"
           d="m 293.84533,332.79868 c 1.37066,-1.36533 2.74266,-2.73333 4.11333,-4.1 0.428,-0.428 0.69067,-1.06533 0.69067,-1.67067 0,-0.57866 -0.256,-1.27066 -0.69067,-1.66933 -0.45067,-0.41333 -1.04133,-0.72 -1.67067,-0.692 -0.62666,0.028 -1.216,0.24 -1.66933,0.692 -1.37067,1.36667 -2.74133,2.73467 -4.112,4.10133 -0.42933,0.42667 -0.69333,1.06534 -0.69333,1.66934 0,0.58 0.25866,1.272 0.69333,1.66933 0.44933,0.41333 1.04,0.72 1.66933,0.692 0.62667,-0.028 1.21734,-0.24 1.66934,-0.692 v 0"
           style="fill:#ffffff;fill-opacity:1;fill-rule:nonzero;stroke:none;stroke-width:0.133333" /><path
           id="path35"
           d="m 287.53866,379.90668 c 2.52133,-3.51867 5.04267,-7.03734 7.564,-10.556 0.72133,-1.008 0.20933,-2.67334 -0.84667,-3.23067 -1.22,-0.644 -2.46133,-0.22933 -3.232,0.84667 -2.52,3.52 -5.04266,7.03733 -7.564,10.556 -0.72133,1.008 -0.208,2.67333 0.848,3.232 1.22,0.64266 2.46,0.228 3.23067,-0.848 v 0"
           style="fill:#ffffff;fill-opacity:1;fill-rule:nonzero;stroke:none;stroke-width:0.133333" /><path
           id="path36"
           d="m 102.12453,406.56668 c 0.61187,-6.292 -5.439599,-9.93067 -10.769866,-11.11467 -6.840666,-1.51867 -14.045866,-1.82667 -21.021866,-1.40667 -1.5104,0.092 -1.5208,2.45334 0,2.36134 6.116667,-0.36667 12.2756,-0.10667 18.3208,0.92266 4.840666,0.82534 11.712002,3.044 11.108933,9.23734 -0.146933,1.512 2.215599,1.50133 2.361999,0 v 0"
           style="fill:#574f66;fill-opacity:1;fill-rule:nonzero;stroke:none;stroke-width:0.133333" /><path
           id="path37"
           d="m 56.369332,403.78668 h 17.249466 c 2.268133,0 4.1072,-1.84 4.1072,-4.108 v -8.624 c 0,-2.26934 -1.839067,-4.108 -4.1072,-4.108 H 56.369332 c -2.268267,0 -4.107333,1.83866 -4.107333,4.108 v 8.624 c 0,2.268 1.839066,4.108 4.107333,4.108"
           style="fill:#574f66;fill-opacity:1;fill-rule:nonzero;stroke:none;stroke-width:0.133333" /><path
           id="path38"
           d="m 222.74266,403.64934 33.90933,-154.95199 c 1.67334,-7.644 -4.148,-14.87734 -11.97466,-14.87734 H 160.456 c -5.2,0 -9.83467,3.28134 -11.56134,8.18534 L 92.034931,403.46534 c -0.8136,2.308 -2.298533,4.32134 -4.2652,5.77867 l -30.004132,22.22933 c -4.202,3.11334 -5.966134,8.55067 -4.392134,13.53734 l 21.7724,69.00266 c 1.609333,5.1 6.341066,8.56933 11.690133,8.56933 h 94.574662 c 6.77067,0 12.25867,-5.488 12.25867,-12.25866 v -68.73333 c 0,-3.156 1.216,-6.18667 3.39333,-8.468 l 22.56933,-23.628 c 1.55467,-1.62667 2.63067,-3.64934 3.11067,-5.84534"
           style="fill:#2d698c;fill-opacity:1;fill-rule:nonzero;stroke:none;stroke-width:0.133333" /><path
           id="path39"
           d="m 108.65306,401.94268 46.21894,-148.108 h 83.15333 l -38.97067,151.14933 -90.4016,-3.04133"
           style="fill:#ffffff;fill-opacity:1;fill-rule:nonzero;stroke:none;stroke-width:0.133333" /><path
           id="path40"
           d="m 199.05466,404.98401 32.09733,-124.48933 -66.23199,4.12533 -40.24347,117.86267 74.37813,2.50133"
           style="fill:#a0daf2;fill-opacity:1;fill-rule:nonzero;stroke:none;stroke-width:0.133333" /><path
           id="path41"
           d="m 72.666132,426.04934 c -4.113067,3.284 -8.387467,8.804 -5.534934,13.22667 1.7448,2.70667 5.339067,3.384 8.5324,3.78933 25.553602,3.248 51.332262,4.71467 77.088402,4.392 12.90266,-0.16133 27.67466,-1.73466 35.148,-12.25333 1.62133,-2.28267 2.804,-4.96133 2.87333,-7.76 0.136,-5.50267 -4.124,-10.34533 -9.13467,-12.62133 -5.012,-2.27467 -10.67466,-2.51067 -16.176,-2.71067 -15.67066,-0.568 -31.40533,-0.77733 -47.0548,-1.768 -9.40426,-0.596 -17.362,-1.704 -26.068262,2.716 -6.984933,3.54533 -13.566133,8.104 -19.673466,12.98933"
           style="fill:#2f7eab;fill-opacity:1;fill-rule:nonzero;stroke:none;stroke-width:0.133333" /><path
           id="path42"
           d="m 80.671331,498.44934 c 0.283867,0.91733 0.573467,1.832 0.8688,2.74533 1.3344,4.13334 2.889067,8.41334 6.090133,11.352 3.2656,2.99734 7.778134,4.16534 12.132267,4.992 13.079599,2.476 26.569729,2.768 39.744129,0.85867 3.948,-0.57333 8.284,-1.6 10.528,-4.9 1.31467,-1.932 1.67734,-4.336 2.004,-6.64933 0.96934,-6.83734 1.93867,-13.676 2.90667,-20.51467 1.01733,-7.18533 1.86,-15.168 -2.32,-21.10266 -3.42533,-4.86267 -9.42,-7.11734 -15.12533,-8.79867 -13.6656,-4.03067 -27.83907,-6.34 -42.077069,-6.85733 -19.996933,-0.72667 -24.375066,9.14266 -20.348933,27.63199 1.557733,7.15734 3.426,14.24667 5.597333,21.24267"
           style="fill:#355f78;fill-opacity:1;fill-rule:nonzero;stroke:none;stroke-width:0.133333" /><path
           id="path43"
           d="m 61.456798,445.08668 c 8.166667,1.64933 16.459867,2.452 24.757733,3.10133 8.4636,0.66133 16.930269,1.36667 25.403729,1.888 16.8396,1.036 33.84174,0.0733 50.6964,-0.224 9.62534,-0.17067 19.24934,-0.34 28.87334,-0.51067 1.51733,-0.0267 1.52266,-2.388 0,-2.36133 -16.90667,0.29867 -33.81467,0.59733 -50.72134,0.896 -8.22453,0.14533 -16.4604,0.41867 -24.68173,0.06 -8.32707,-0.364 -16.640132,-1.12667 -24.949999,-1.75733 -9.628133,-0.72934 -19.270399,-1.45467 -28.750533,-3.36934 -1.483866,-0.3 -2.118799,1.976 -0.6276,2.27734 v 0"
           style="fill:#d66826;fill-opacity:1;fill-rule:nonzero;stroke:none;stroke-width:0.133333" /><path
           id="path44"
           d="m 107.8636,449.17601 c 11.29733,-14.096 23.37813,-27.54533 36.1844,-40.284 1.08,-1.07333 -0.59067,-2.74267 -1.66934,-1.67067 -12.8068,12.74 -24.88746,26.18934 -36.18546,40.284 -0.94107,1.176 0.71986,2.85734 1.6704,1.67067 v 0"
           style="fill:#d66826;fill-opacity:1;fill-rule:nonzero;stroke:none;stroke-width:0.133333" /><path
           id="path45"
           d="m 82.029731,472.90934 h 65.431599 c 2.192,0 3.94667,1.82 3.86533,4.012 l -0.524,14.16533 c -0.08,2.16267 -1.91733,3.83867 -4.07733,3.72 l -62.217999,-3.41466 c -1.693733,-0.092 -3.129733,-1.27867 -3.5412,-2.924 l -2.689066,-10.752 c -0.610934,-2.44267 1.235466,-4.80667 3.752666,-4.80667"
           style="fill:#574f66;fill-opacity:1;fill-rule:nonzero;stroke:none;stroke-width:0.133333" /><path
           id="path46"
           d="m 87.875064,468.97467 c 0.902534,9.50934 2.698934,18.904 5.4052,28.06667 0.429067,1.45333 2.7088,0.836 2.276534,-0.628 -2.645334,-8.95867 -4.438,-18.14 -5.319867,-27.43867 -0.142133,-1.5 -2.5052,-1.516 -2.361867,0 v 0"
           style="fill:#5c93b2;fill-opacity:1;fill-rule:nonzero;stroke:none;stroke-width:0.133333" /><path
           id="path47"
           d="m 104.02973,470.49201 c 1.7484,9.61466 3.98173,19.13066 6.6932,28.51866 0.42027,1.45867 2.70053,0.83867 2.27707,-0.628 -2.71147,-9.388 -4.94427,-18.904 -6.6932,-28.51733 -0.27134,-1.49333 -2.54747,-0.86133 -2.27707,0.62667 v 0"
           style="fill:#5c93b2;fill-opacity:1;fill-rule:nonzero;stroke:none;stroke-width:0.133333" /><path
           id="path48"
           d="m 122.45573,471.12134 c 1.5672,9.45867 3.13387,18.91867 4.70053,28.376 0.2484,1.496 2.5244,0.86133 2.2776,-0.62667 -1.5672,-9.46 -3.13333,-18.91866 -4.70053,-28.37733 -0.24787,-1.496 -2.524,-0.86133 -2.2776,0.628 v 0"
           style="fill:#5c93b2;fill-opacity:1;fill-rule:nonzero;stroke:none;stroke-width:0.133333" /><path
           id="path49"
           d="m 140.07866,470.82934 c -0.648,9.84533 -0.99466,19.70667 -1.04133,29.57333 -0.007,1.52 2.35467,1.52134 2.36133,0 0.0467,-9.86666 0.39334,-19.728 1.04134,-29.57333 0.1,-1.516 -2.26134,-1.50933 -2.36134,0 v 0"
           style="fill:#5c93b2;fill-opacity:1;fill-rule:nonzero;stroke:none;stroke-width:0.133333" /><path
           id="path50"
           d="m 189.35733,481.32401 c 0,8.16533 -7.58533,14.78533 -16.94267,14.78533 -9.356,0 -11.088,-6.62 -11.088,-14.78533 0,-8.16667 1.732,-14.784 11.088,-14.784 9.35734,0 16.94267,6.61733 16.94267,14.784"
           style="fill:#d66826;fill-opacity:1;fill-rule:nonzero;stroke:none;stroke-width:0.133333" /><path
           id="path51"
           d="m 177.96,481.64134 c 0,5.94933 -3.268,10.772 -7.29867,10.772 -4.032,0 -7.29867,-4.82267 -7.29867,-10.772 0,-5.94933 3.26667,-10.772 7.29867,-10.772 4.03067,0 7.29867,4.82267 7.29867,10.772"
           style="fill:#ffffff;fill-opacity:1;fill-rule:nonzero;stroke:none;stroke-width:0.133333" /><path
           id="path52"
           d="m 73.713598,481.32401 c 0,7.14 -6.632933,12.92933 -14.814133,12.92933 -8.1812,0 -9.6964,-5.78933 -9.6964,-12.92933 0,-7.14 1.5152,-12.928 9.6964,-12.928 8.1812,0 14.814133,5.788 14.814133,12.928"
           style="fill:#d66826;fill-opacity:1;fill-rule:nonzero;stroke:none;stroke-width:0.133333" /><path
           id="path53"
           d="m 63.747332,481.60134 c 0,5.20267 -2.8572,9.42 -6.381733,9.42 -3.524934,0 -6.382267,-4.21733 -6.382267,-9.42 0,-5.20133 2.857333,-9.41867 6.382267,-9.41867 3.524533,0 6.381733,4.21734 6.381733,9.41867"
           style="fill:#ffffff;fill-opacity:1;fill-rule:nonzero;stroke:none;stroke-width:0.133333" /><path
           id="path54"
           d="M 182.42533,508.82267 H 164.252 v -7.18666 h 18.17333 v 7.18666"
           style="fill:#d66826;fill-opacity:1;fill-rule:nonzero;stroke:none;stroke-width:0.133333" /><path
           id="path55"
           d="m 79.697865,505.22934 h -6.134267 v -7.18667 h 6.134267 v 7.18667"
           style="fill:#d66826;fill-opacity:1;fill-rule:nonzero;stroke:none;stroke-width:0.133333" /><path
           id="path56"
           d="m 178.01866,394.81868 c 6.12667,-7.012 12.25334,-14.02534 18.37867,-21.03734 0.83867,-0.95866 0.944,-2.39466 0,-3.34 -0.856,-0.85466 -2.49733,-0.964 -3.33867,0 -6.12666,7.012 -12.25333,14.02534 -18.38,21.03734 -0.83866,0.95866 -0.944,2.39466 0,3.34 0.856,0.85466 2.49734,0.964 3.34,0 v 0"
           style="fill:#ffffff;fill-opacity:1;fill-rule:nonzero;stroke:none;stroke-width:0.133333" /><path
           id="path57"
           d="m 177.94133,376.27068 c 2.84133,-3.31467 5.68267,-6.62934 8.524,-9.944 0.80267,-0.93734 0.988,-2.432 0,-3.33867 -0.884,-0.812 -2.48267,-1.00133 -3.34,0 -2.84133,3.31333 -5.68267,6.628 -8.524,9.944 -0.80267,0.936 -0.98933,2.43067 0,3.33867 0.88267,0.81066 2.48133,1.00133 3.34,0 v 0"
           style="fill:#ffffff;fill-opacity:1;fill-rule:nonzero;stroke:none;stroke-width:0.133333" /><path
           id="path58"
           d="m 175.888,308.08001 c 0.34666,-0.504 0.70266,-1.004 1.06533,-1.49733 0.172,-0.23333 0.34667,-0.464 0.52267,-0.696 0.376,-0.49733 -0.18267,0.22533 0.044,-0.0573 0.10133,-0.12534 0.2,-0.25334 0.3,-0.38 0.764,-0.95734 1.56,-1.88934 2.38533,-2.79334 1.65467,-1.808 3.432,-3.5 5.312,-5.072 0.952,-0.79466 0.88267,-2.52933 0,-3.34 -1.012,-0.928 -2.324,-0.848 -3.34,0 -3.97067,3.31867 -7.43333,7.192 -10.368,11.452 -0.70267,1.02 -0.22267,2.66534 0.848,3.232 1.20133,0.63467 2.48133,0.24134 3.23067,-0.848 v 0"
           style="fill:#ffffff;fill-opacity:1;fill-rule:nonzero;stroke:none;stroke-width:0.133333" /><path
           id="path59"
           d="m 255.33999,256.12135 c -6.91866,29.23333 -13.83733,58.46666 -20.75466,87.70133 -3.38667,14.31066 -7.31734,28.616 -9.828,43.112 -1.204,6.95333 -1.892,13.992 -1.56667,21.05333 0.32533,7.06267 1.48533,14.06267 2.87867,20.98533 3.30266,16.41467 7.05466,32.74934 10.604,49.11467 0.15733,0.732 1.11333,1.09866 1.73333,0.70533 11.024,-6.98933 23.524,-11.532 36.49333,-13.10933 5.92667,-0.72 12.11467,-1.02933 18.012,0.088 5.04134,0.956 10.56934,3.12933 13.58534,7.532 2.48266,3.624 3.528,8.28133 4.608,12.47066 1.13733,4.40667 2.05466,8.91467 3.62666,13.19467 0.42267,1.14933 0.93734,3.32 2.17334,3.81067 0.732,0.29066 1.74266,0.28133 2.51333,0.37333 3.512,0.412 7.19733,0.452 10.644,-0.43067 1.79467,-0.45866 3.548,-1.21466 4.98,-2.40533 0.56933,-0.47467 1.34533,-1.12933 1.62666,-1.83867 0.548,-1.38533 0.268,-3.64133 0.328,-5.112 0.288,-7.11466 0.324,-14.23866 0.17334,-21.35733 -0.30534,-14.38666 -1.36,-28.744 -2.57334,-43.08 -2.44266,-28.87866 -5.05333,-57.74133 -7.58533,-86.61066 -2.53466,-28.90133 -5.07066,-57.80267 -7.60533,-86.704 -0.32,-3.64533 -0.64,-7.29067 -0.96,-10.936 -0.0573,-0.65333 -0.49467,-1.15733 -1.18,-1.18133 -7.55867,-0.25734 -15.11733,-0.51467 -22.67467,-0.77334 -7.21866,-0.24533 -14.46266,-0.69066 -21.68666,-0.69466 -4.68267,-0.001 -10.38934,0.52533 -14.07867,3.79733 -2.69867,2.39467 -2.816,7.02933 -3.48667,10.29467 -0.30533,1.48266 1.97067,2.11733 2.27734,0.628 0.44,-2.144 0.76666,-4.33467 1.34266,-6.448 0.324,-1.18534 0.736,-2.192 1.73334,-2.95734 4.29333,-3.29866 10.48,-3.04933 15.58133,-2.88266 13.664,0.44533 27.328,0.932 40.992,1.39733 -0.39467,-0.39333 -0.788,-0.78667 -1.18133,-1.18 2.512,28.64133 5.02533,57.28267 7.53733,85.92267 2.512,28.64133 5.024,57.28133 7.53733,85.92266 1.24667,14.20933 2.50133,28.42133 3.19467,42.672 0.34533,7.11333 0.54933,14.236 0.54133,21.35733 -0.004,3.624 -0.064,7.24933 -0.188,10.872 -0.0573,1.676 -0.0587,3.376 -0.216,5.04667 -0.128,1.36266 -0.724,1.98266 -1.86933,2.68666 -3.26933,2.00934 -7.56533,2.06667 -11.27733,1.812 -1.13334,-0.0787 -2.36134,-0.42933 -3.48667,-0.408 -0.0973,10e-4 -0.212,-0.0373 -0.30667,-0.056 0.50934,0.0947 0.288,0.392 0.32934,-0.092 0.0547,-0.63466 -0.856,-2.012 -1.088,-2.67733 -1.544,-4.43867 -2.47867,-9.076 -3.67734,-13.61333 -1.04666,-3.96134 -2.14533,-8.204 -4.372,-11.69467 -5.60133,-8.78133 -17.88,-10.064 -27.30533,-9.64666 -12.52533,0.556 -24.892,3.79066 -36.112,9.37733 -2.78533,1.38666 -5.48533,2.92933 -8.112,4.59466 0.57867,0.23467 1.156,0.46934 1.736,0.70534 -3.12,-14.38533 -6.26,-28.764 -9.356,-43.15333 -1.52267,-7.07867 -2.98267,-14.19334 -3.68533,-21.40667 -0.71467,-7.34133 -0.48534,-14.67333 0.584,-21.968 2.08666,-14.24533 6.06,-28.27467 9.372,-42.26933 3.41333,-14.42534 6.82666,-28.85067 10.24133,-43.276 3.836,-16.212 7.67333,-32.42533 11.51067,-48.63733 0.34933,-1.47867 -1.928,-2.10934 -2.27734,-0.628 v 0"
           style="fill:#d66826;fill-opacity:1;fill-rule:nonzero;stroke:none;stroke-width:0.133333" /><path
           id="path60"
           d="m 200.38133,404.20401 c -0.60267,-6.19333 6.268,-8.412 11.10933,-9.236 6.04533,-1.03067 12.20533,-1.292 18.32133,-0.92267 1.51867,0.0907 1.512,-2.272 0,-2.36266 -6.976,-0.41867 -14.18133,-0.11334 -21.02266,1.40666 -5.32934,1.184 -11.38133,4.82267 -10.76933,11.11467 0.14666,1.49867 2.50933,1.51333 2.36133,0 v 0"
           style="fill:#574f66;fill-opacity:1;fill-rule:nonzero;stroke:none;stroke-width:0.133333" /><path
           id="path61"
           d="m 243.77599,401.42401 h -17.25066 c -2.268,0 -4.10667,-1.83867 -4.10667,-4.10667 v -8.62533 c 0,-2.268 1.83867,-4.10667 4.10667,-4.10667 h 17.25066 c 2.268,0 4.10667,1.83867 4.10667,4.10667 v 8.62533 c 0,2.268 -1.83867,4.10667 -4.10667,4.10667"
           style="fill:#574f66;fill-opacity:1;fill-rule:nonzero;stroke:none;stroke-width:0.133333" /><path
           id="path62"
           d="m 236.70666,420.29201 c 3.56533,-0.50667 7.13067,-1.01467 10.69467,-1.52267 0.63333,-0.0893 0.97866,-0.892 0.82533,-1.45066 -0.18667,-0.68 -0.81867,-0.916 -1.452,-0.82534 -3.56533,0.50667 -7.13067,1.01467 -10.696,1.52134 -0.632,0.0893 -0.97867,0.89466 -0.824,1.45333 0.18667,0.68 0.81733,0.91467 1.452,0.824 v 0"
           style="fill:#d66826;fill-opacity:1;fill-rule:nonzero;stroke:none;stroke-width:0.133333" /><path
           id="path63"
           d="m 70.332798,513.95734 553.961852,-12.32133 1.22,8.74666 c 1.30933,9.376 -5.972,17.744 -15.43867,17.744 H 84.784931 c -4.088,0 -7.852666,-2.22133 -9.8292,-5.8 l -4.622933,-8.36933"
           style="fill:#574f66;fill-opacity:1;fill-rule:nonzero;stroke:none;stroke-width:0.133333" /><path
           id="path64"
           d="m 271.89466,472.90934 c 0,0 -40.032,-3.84 -51.12,37.70133 h 17.32133 l 33.79867,-37.70133"
           style="fill:#d66826;fill-opacity:1;fill-rule:nonzero;stroke:none;stroke-width:0.133333" /><path
           id="path65"
           d="m 220.77466,510.61067 -1.436,17.516 h 14.99467 l 3.76266,-17.516 h -17.32133"
           style="fill:#15131c;fill-opacity:1;fill-rule:nonzero;stroke:none;stroke-width:0.133333" /><path
           id="path66"
           d="m 315.55066,522.58267 c 0,27.4976 -18.528,49.7892 -41.38267,49.7892 -22.856,0 -41.38266,-22.2916 -41.38266,-49.7892 0,-27.49866 18.52666,-49.79066 41.38266,-49.79066 22.85467,0 41.38267,22.292 41.38267,49.79066"
           style="fill:#2d283a;fill-opacity:1;fill-rule:nonzero;stroke:none;stroke-width:0.133333" /><path
           id="path67"
           d="m 310.08933,522.58267 c 0,19.02934 -12.82267,34.45747 -28.63867,34.45747 -15.81733,0 -28.64,-15.42813 -28.64,-34.45747 0,-19.03066 12.82267,-34.45733 28.64,-34.45733 15.816,0 28.63867,15.42667 28.63867,34.45733"
           style="fill:#574f66;fill-opacity:1;fill-rule:nonzero;stroke:none;stroke-width:0.133333" /><path
           id="path68"
           d="m 294.23199,522.58267 c 0,13.76107 -8.348,24.91734 -18.64533,24.91734 -10.29867,0 -18.64533,-11.15627 -18.64533,-24.91734 0,-13.76133 8.34666,-24.91866 18.64533,-24.91866 10.29733,0 18.64533,11.15733 18.64533,24.91866"
           style="fill:#2d283a;fill-opacity:1;fill-rule:nonzero;stroke:none;stroke-width:0.133333" /><path
           id="path69"
           d="m 280.17999,522.58267 c 0,7.85334 -4.764,14.22 -10.64133,14.22 -5.87733,0 -10.64133,-6.36666 -10.64133,-14.22 0,-7.85466 4.764,-14.22133 10.64133,-14.22133 5.87733,0 10.64133,6.36667 10.64133,14.22133"
           style="fill:#2d698c;fill-opacity:1;fill-rule:nonzero;stroke:none;stroke-width:0.133333" /><path
           id="path70"
           d="m 247.82933,557.04947 c 3.39733,-2.9656 6.628,-6.11613 9.676,-9.4416 0.512,-0.5584 -0.32,-1.39586 -0.83467,-0.8344 -3.04933,3.32494 -6.27867,6.476 -9.676,9.44107 -0.57333,0.5 0.264,1.3324 0.83467,0.83493 v 0"
           style="fill:#574f66;fill-opacity:1;fill-rule:nonzero;stroke:none;stroke-width:0.133333" /><path
           id="path71"
           d="m 257.75866,566.07707 c 2.51867,-4.3396 5.31867,-8.5104 8.38133,-12.48493 0.46267,-0.60307 -0.56266,-1.19107 -1.02,-0.59733 -3.06266,3.976 -5.86266,8.1464 -8.38,12.4864 -0.38266,0.65893 0.63734,1.2532 1.01867,0.59586 v 0"
           style="fill:#574f66;fill-opacity:1;fill-rule:nonzero;stroke:none;stroke-width:0.133333" /><path
           id="path72"
           d="m 272.46399,569.55467 c 1.03067,-3.4896 2.06134,-6.97866 3.092,-10.46826 0.216,-0.73067 -0.92266,-1.04267 -1.13733,-0.31454 -1.032,3.49067 -2.06267,6.98027 -3.09333,10.46934 -0.216,0.73066 0.924,1.04266 1.13866,0.31346 v 0"
           style="fill:#574f66;fill-opacity:1;fill-rule:nonzero;stroke:none;stroke-width:0.133333" /><path
           id="path73"
           d="m 293.50399,565.70107 c -0.26133,-2.6636 -0.52266,-5.3276 -0.784,-7.99173 -0.0747,-0.75053 -1.256,-0.7588 -1.18133,0 0.26133,2.66413 0.524,5.32813 0.78533,7.99173 0.0733,0.7484 1.25467,0.75627 1.18,0 v 0"
           style="fill:#574f66;fill-opacity:1;fill-rule:nonzero;stroke:none;stroke-width:0.133333" /><path
           id="path74"
           d="m 238.39466,538.61881 c 4.91333,-2.76827 10.032,-5.14427 15.32133,-7.10147 0.70667,-0.26133 0.40134,-1.40267 -0.31466,-1.13867 -5.38267,1.99334 -10.60134,4.40254 -15.60267,7.22134 -0.66267,0.37186 -0.068,1.39213 0.596,1.0188 v 0"
           style="fill:#574f66;fill-opacity:1;fill-rule:nonzero;stroke:none;stroke-width:0.133333" /><path
           id="path75"
           d="m 234.33333,519.41467 c 4.93733,0.304 9.88666,0.204 14.808,-0.29866 0.748,-0.076 0.756,-1.25867 0,-1.18134 -4.92134,0.50267 -9.87067,0.604 -14.808,0.29867 -0.75867,-0.0467 -0.756,1.13467 0,1.18133 v 0"
           style="fill:#574f66;fill-opacity:1;fill-rule:nonzero;stroke:none;stroke-width:0.133333" /><path
           id="path76"
           d="m 239.38399,500.94001 c 2.692,0.96533 5.38267,1.92933 8.07467,2.892 1.308,0.46933 2.61067,0.95333 3.92533,1.40266 1.176,0.40267 2.368,0.664 3.59067,0.31867 0.72933,-0.20533 0.42,-1.344 -0.31467,-1.13733 -1.244,0.352 -2.46266,-0.13867 -3.628,-0.55467 -1.276,-0.456 -2.55066,-0.91467 -3.82666,-1.37067 -2.50267,-0.896 -5.004,-1.792 -7.50667,-2.688 -0.71733,-0.25733 -1.02533,0.884 -0.31467,1.13734 v 0"
           style="fill:#574f66;fill-opacity:1;fill-rule:nonzero;stroke:none;stroke-width:0.133333" /><path
           id="path77"
           d="m 251.78533,485.41067 c 3.512,3.264 7.024,6.528 10.53466,9.792 0.556,0.516 1.392,-0.31733 0.83467,-0.83466 -3.51067,-3.26534 -7.02267,-6.528 -10.53467,-9.792 -0.556,-0.51734 -1.392,0.316 -0.83466,0.83466 v 0"
           style="fill:#574f66;fill-opacity:1;fill-rule:nonzero;stroke:none;stroke-width:0.133333" /><path
           id="path78"
           d="m 269.45599,475.93067 c 1.29467,4.08667 2.58667,8.17334 3.88134,12.26267 0.228,0.72133 1.368,0.412 1.13866,-0.31467 -1.29466,-4.088 -2.58666,-8.17466 -3.88133,-12.26266 -0.228,-0.72267 -1.368,-0.41334 -1.13867,0.31466 v 0"
           style="fill:#574f66;fill-opacity:1;fill-rule:nonzero;stroke:none;stroke-width:0.133333" /><path
           id="path79"
           d="m 288.60799,480.07467 c -0.0587,2.464 -0.49066,4.89067 -1.27466,7.22667 -0.24267,0.72267 0.89733,1.032 1.13866,0.31333 0.81467,-2.43066 1.256,-4.976 1.316,-7.54 0.0187,-0.76 -1.16266,-0.75866 -1.18,0 v 0"
           style="fill:#574f66;fill-opacity:1;fill-rule:nonzero;stroke:none;stroke-width:0.133333" /><path
           id="path80"
           d="m 299.01066,487.73601 c -0.624,1.43333 -1.24933,2.868 -1.87333,4.30266 -0.128,0.29067 -0.0853,0.632 0.212,0.80667 0.24933,0.14533 0.68,0.0827 0.808,-0.21067 0.624,-1.43466 1.248,-2.868 1.87333,-4.30266 0.12667,-0.29067 0.0853,-0.63334 -0.212,-0.80667 -0.25067,-0.14667 -0.68,-0.0827 -0.808,0.21067 v 0"
           style="fill:#574f66;fill-opacity:1;fill-rule:nonzero;stroke:none;stroke-width:0.133333" /><path
           id="path81"
           d="m 307.70933,499.63467 c -0.04,0.28934 -0.108,0.57467 -0.204,0.85067 -0.0267,0.0747 -0.056,0.148 -0.084,0.22267 -0.032,0.0787 0.0413,-0.0893 0.003,-0.0107 -0.0173,0.0347 -0.032,0.0707 -0.0493,0.10667 -0.0653,0.13466 -0.13733,0.268 -0.21467,0.396 -0.0733,0.12266 -0.15733,0.236 -0.23733,0.35333 -0.04,0.0587 0.0613,-0.0733 -0.009,0.0133 -0.02,0.024 -0.04,0.048 -0.06,0.0733 -0.0507,0.0613 -0.10267,0.12 -0.15734,0.17866 -0.096,0.104 -0.19866,0.20267 -0.304,0.296 -0.06,0.0533 -0.12133,0.10267 -0.18266,0.15334 0.0387,-0.032 0.0587,-0.0427 0.008,-0.005 -0.0387,0.028 -0.0773,0.056 -0.116,0.0827 -0.25334,0.176 -0.39467,0.52533 -0.212,0.808 0.16133,0.25067 0.536,0.4 0.808,0.212 1.136,-0.79467 1.956,-2.03467 2.15066,-3.41733 0.0227,-0.164 0.028,-0.30534 -0.06,-0.456 -0.0707,-0.12134 -0.212,-0.23734 -0.352,-0.27067 -0.27866,-0.064 -0.68,0.0853 -0.72666,0.41333 v 0"
           style="fill:#574f66;fill-opacity:1;fill-rule:nonzero;stroke:none;stroke-width:0.133333" /><path
           id="path82"
           d="m 312.32933,512.30134 c -0.60934,0.41867 -1.22,0.83867 -1.82934,1.25867 -0.128,0.088 -0.22933,0.19866 -0.27066,0.35333 -0.04,0.14 -0.0227,0.32933 0.0587,0.45467 0.16267,0.252 0.536,0.39866 0.808,0.212 0.60934,-0.42134 1.22,-0.84 1.82934,-1.25867 0.128,-0.0893 0.22933,-0.2 0.272,-0.35333 0.0387,-0.14267 0.0213,-0.32934 -0.06,-0.456 -0.16267,-0.252 -0.536,-0.39867 -0.808,-0.21067 v 0"
           style="fill:#574f66;fill-opacity:1;fill-rule:nonzero;stroke:none;stroke-width:0.133333" /><path
           id="path83"
           d="m 314.41733,530.00001 c -0.82134,0 -1.64267,0 -2.46534,0 -0.308,0 -0.604,0.272 -0.58933,0.592 0.0133,0.31866 0.25867,0.58933 0.58933,0.58933 0.82267,0 1.644,0 2.46534,0 0.30933,0 0.604,-0.272 0.58933,-0.58933 -0.0133,-0.32134 -0.25867,-0.592 -0.58933,-0.592 v 0"
           style="fill:#574f66;fill-opacity:1;fill-rule:nonzero;stroke:none;stroke-width:0.133333" /><path
           id="path84"
           d="m 310.21199,544.32134 c -1.212,-0.46147 -2.42666,-0.92293 -3.63866,-1.3828 -0.28934,-0.1104 -0.66,0.12133 -0.72667,0.412 -0.0773,0.33747 0.10267,0.60933 0.412,0.72653 1.21333,0.46147 2.42667,0.92134 3.64,1.38174 0.28933,0.11053 0.66,-0.12134 0.72533,-0.41187 0.0773,-0.33653 -0.10133,-0.60947 -0.412,-0.7256 v 0"
           style="fill:#574f66;fill-opacity:1;fill-rule:nonzero;stroke:none;stroke-width:0.133333" /><path
           id="path85"
           d="m 303.60666,555.56254 c -1.2,-1.26093 -2.4,-2.524 -3.6,-3.78653 -0.22,-0.23067 -0.61333,-0.22134 -0.83467,0 -0.23066,0.2308 -0.22,0.60266 0,0.8344 1.2,1.26413 2.4,2.5256 3.6,3.788 0.22,0.2308 0.61334,0.22133 0.83467,0 0.232,-0.23174 0.22133,-0.6036 0,-0.83587 v 0"
           style="fill:#574f66;fill-opacity:1;fill-rule:nonzero;stroke:none;stroke-width:0.133333" /><path
           id="path86"
           d="m 295.11866,503.35601 c 1.52267,2.85866 2.596,5.91866 3.22933,9.09466 0.12534,0.62667 0.86934,0.98534 1.452,0.82534 0.652,-0.17867 0.95067,-0.82534 0.82534,-1.45334 -0.672,-3.36933 -1.85334,-6.62533 -3.468,-9.66 -0.29867,-0.56133 -1.08,-0.73466 -1.616,-0.42266 -0.568,0.33333 -0.724,1.05066 -0.42267,1.616 v 0"
           style="fill:#ffffff;fill-opacity:1;fill-rule:nonzero;stroke:none;stroke-width:0.133333" /><path
           id="path87"
           d="m 299.06666,520.11734 c 0,0.82133 0,1.644 0,2.46533 0,0.30134 0.132,0.62134 0.34667,0.83467 0.204,0.204 0.54,0.35867 0.83466,0.34667 0.64,-0.0293 1.18,-0.52 1.18,-1.18134 0,-0.82133 0,-1.644 0,-2.46533 0,-0.30133 -0.132,-0.62133 -0.34533,-0.83467 -0.20533,-0.204 -0.54133,-0.35866 -0.83467,-0.34666 -0.64,0.0293 -1.18133,0.52 -1.18133,1.18133 v 0"
           style="fill:#ffffff;fill-opacity:1;fill-rule:nonzero;stroke:none;stroke-width:0.133333" /><path
           id="path88"
           d="m 273.91066,520.12801 c -0.212,2.05333 -0.424,4.10666 -0.636,6.15866 -0.064,0.616 0.588,1.20667 1.18,1.18134 0.69467,-0.032 1.11333,-0.52134 1.18133,-1.18134 0.212,-2.052 0.424,-4.10533 0.636,-6.15866 0.064,-0.616 -0.588,-1.20667 -1.18133,-1.18 -0.69333,0.0307 -1.112,0.52 -1.18,1.18 v 0"
           style="fill:#ffffff;fill-opacity:1;fill-rule:nonzero;stroke:none;stroke-width:0.133333" /><path
           id="path89"
           d="m 540.89732,472.90934 c 0,0 -39.20133,-9.84133 -50.28933,31.7 l 16.492,-0.36667 33.79733,-31.33333"
           style="fill:#d66826;fill-opacity:1;fill-rule:nonzero;stroke:none;stroke-width:0.133333" /><path
           id="path90"
           d="m 490.60799,504.60934 -4.31067,23.51733 h 17.04 l 5.13733,-23.91466 -17.86666,0.39733"
           style="fill:#15131c;fill-opacity:1;fill-rule:nonzero;stroke:none;stroke-width:0.133333" /><path
           id="path91"
           d="m 584.55465,522.58267 c 0,27.4976 -18.528,49.7892 -41.38266,49.7892 -22.856,0 -41.384,-22.2916 -41.384,-49.7892 0,-27.49866 18.528,-49.79066 41.384,-49.79066 22.85466,0 41.38266,22.292 41.38266,49.79066"
           style="fill:#2d283a;fill-opacity:1;fill-rule:nonzero;stroke:none;stroke-width:0.133333" /><path
           id="path92"
           d="m 579.09332,522.58267 c 0,19.02934 -12.82267,34.45747 -28.64,34.45747 -15.81733,0 -28.63867,-15.42813 -28.63867,-34.45747 0,-19.03066 12.82134,-34.45733 28.63867,-34.45733 15.81733,0 28.64,15.42667 28.64,34.45733"
           style="fill:#574f66;fill-opacity:1;fill-rule:nonzero;stroke:none;stroke-width:0.133333" /><path
           id="path93"
           d="m 563.23465,522.58267 c 0,13.76107 -8.34666,24.91734 -18.644,24.91734 -10.29866,0 -18.64533,-11.15627 -18.64533,-24.91734 0,-13.76133 8.34667,-24.91866 18.64533,-24.91866 10.29734,0 18.644,11.15733 18.644,24.91866"
           style="fill:#2d283a;fill-opacity:1;fill-rule:nonzero;stroke:none;stroke-width:0.133333" /><path
           id="path94"
           d="m 549.18265,522.58267 c 0,7.85334 -4.764,14.22 -10.64,14.22 -5.87733,0 -10.64266,-6.36666 -10.64266,-14.22 0,-7.85466 4.76533,-14.22133 10.64266,-14.22133 5.876,0 10.64,6.36667 10.64,14.22133"
           style="fill:#2d698c;fill-opacity:1;fill-rule:nonzero;stroke:none;stroke-width:0.133333" /><path
           id="path95"
           d="m 516.83332,557.04947 c 3.396,-2.9656 6.62667,-6.11613 9.67467,-9.4416 0.51333,-0.5584 -0.32,-1.39586 -0.83467,-0.8344 -3.048,3.32494 -6.27733,6.476 -9.67467,9.44107 -0.57466,0.5 0.264,1.3324 0.83467,0.83493 v 0"
           style="fill:#574f66;fill-opacity:1;fill-rule:nonzero;stroke:none;stroke-width:0.133333" /><path
           id="path96"
           d="m 526.76265,566.07707 c 2.51867,-4.3396 5.31734,-8.5104 8.38,-12.48493 0.464,-0.60307 -0.56133,-1.19107 -1.02,-0.59733 -3.06133,3.976 -5.86133,8.1464 -8.38,12.4864 -0.38133,0.65893 0.63867,1.2532 1.02,0.59586 v 0"
           style="fill:#574f66;fill-opacity:1;fill-rule:nonzero;stroke:none;stroke-width:0.133333" /><path
           id="path97"
           d="m 541.46665,569.55467 c 1.032,-3.4896 2.06267,-6.97866 3.09334,-10.46826 0.216,-0.73067 -0.924,-1.04267 -1.13867,-0.31454 -1.03067,3.49067 -2.06267,6.98027 -3.092,10.46934 -0.216,0.73066 0.92267,1.04266 1.13733,0.31346 v 0"
           style="fill:#574f66;fill-opacity:1;fill-rule:nonzero;stroke:none;stroke-width:0.133333" /><path
           id="path98"
           d="m 562.50665,565.70107 c -0.26133,-2.6636 -0.52133,-5.3276 -0.78266,-7.99173 -0.0747,-0.75053 -1.256,-0.7588 -1.18134,0 0.26134,2.66413 0.52267,5.32813 0.784,7.99173 0.0733,0.7484 1.25467,0.75627 1.18,0 v 0"
           style="fill:#574f66;fill-opacity:1;fill-rule:nonzero;stroke:none;stroke-width:0.133333" /><path
           id="path99"
           d="m 507.39732,538.61881 c 4.91333,-2.76827 10.03333,-5.14427 15.32267,-7.10147 0.70533,-0.26133 0.4,-1.40267 -0.31467,-1.13867 -5.384,1.99334 -10.60267,4.40254 -15.604,7.22134 -0.66133,0.37186 -0.068,1.39213 0.596,1.0188 v 0"
           style="fill:#574f66;fill-opacity:1;fill-rule:nonzero;stroke:none;stroke-width:0.133333" /><path
           id="path100"
           d="m 503.33732,519.41467 c 4.93733,0.304 9.88667,0.204 14.80667,-0.29866 0.74933,-0.076 0.756,-1.25867 0,-1.18134 -4.92,0.50267 -9.86934,0.604 -14.80667,0.29867 -0.76,-0.0467 -0.75733,1.13467 0,1.18133 v 0"
           style="fill:#574f66;fill-opacity:1;fill-rule:nonzero;stroke:none;stroke-width:0.133333" /><path
           id="path101"
           d="m 508.38799,500.94001 c 2.69066,0.96533 5.38266,1.92933 8.07466,2.892 1.308,0.46933 2.61067,0.95333 3.92534,1.40266 1.17466,0.40267 2.36666,0.664 3.58933,0.31867 0.73067,-0.20533 0.42,-1.344 -0.31333,-1.13733 -1.24534,0.352 -2.46267,-0.13867 -3.62934,-0.55467 -1.27466,-0.456 -2.54933,-0.91467 -3.82533,-1.37067 -2.50267,-0.896 -5.00533,-1.792 -7.508,-2.688 -0.716,-0.25733 -1.02533,0.884 -0.31333,1.13734 v 0"
           style="fill:#574f66;fill-opacity:1;fill-rule:nonzero;stroke:none;stroke-width:0.133333" /><path
           id="path102"
           d="m 520.78932,485.41067 c 3.51067,3.264 7.02267,6.528 10.53467,9.792 0.556,0.516 1.392,-0.31733 0.83466,-0.83466 -3.512,-3.26534 -7.02266,-6.528 -10.53466,-9.792 -0.556,-0.51734 -1.39334,0.316 -0.83467,0.83466 v 0"
           style="fill:#574f66;fill-opacity:1;fill-rule:nonzero;stroke:none;stroke-width:0.133333" /><path
           id="path103"
           d="m 538.45999,475.93067 c 1.29333,4.08667 2.58666,8.17334 3.88,12.26267 0.228,0.72133 1.36933,0.412 1.13866,-0.31467 -1.29333,-4.088 -2.58666,-8.17466 -3.88,-12.26266 -0.228,-0.72267 -1.36933,-0.41334 -1.13866,0.31466 v 0"
           style="fill:#574f66;fill-opacity:1;fill-rule:nonzero;stroke:none;stroke-width:0.133333" /><path
           id="path104"
           d="m 557.61199,480.07467 c -0.0587,2.464 -0.492,4.89067 -1.27467,7.22667 -0.24267,0.72267 0.896,1.032 1.13733,0.31333 0.81467,-2.43066 1.256,-4.976 1.316,-7.54 0.0187,-0.76 -1.16266,-0.75866 -1.17866,0 v 0"
           style="fill:#574f66;fill-opacity:1;fill-rule:nonzero;stroke:none;stroke-width:0.133333" /><path
           id="path105"
           d="m 568.01332,487.73601 c -0.62267,1.43333 -1.248,2.868 -1.872,4.30266 -0.128,0.29067 -0.0867,0.632 0.21067,0.80667 0.25066,0.14533 0.68,0.0827 0.80933,-0.21067 0.624,-1.43466 1.248,-2.868 1.872,-4.30266 0.128,-0.29067 0.0853,-0.63334 -0.21067,-0.80667 -0.25066,-0.14667 -0.68,-0.0827 -0.80933,0.21067 v 0"
           style="fill:#574f66;fill-opacity:1;fill-rule:nonzero;stroke:none;stroke-width:0.133333" /><path
           id="path106"
           d="m 576.71332,499.63467 c -0.04,0.28934 -0.108,0.57467 -0.20533,0.85067 -0.0253,0.0747 -0.056,0.148 -0.084,0.22267 -0.0307,0.0787 0.0413,-0.0893 0.004,-0.0107 -0.0187,0.0347 -0.032,0.0707 -0.0493,0.10667 -0.0653,0.13466 -0.13733,0.268 -0.21466,0.396 -0.0747,0.12266 -0.15734,0.236 -0.23867,0.35333 -0.04,0.0587 0.0627,-0.0733 -0.009,0.0133 -0.02,0.024 -0.0387,0.048 -0.06,0.0733 -0.0507,0.0613 -0.10267,0.12 -0.156,0.17866 -0.096,0.104 -0.19867,0.20267 -0.304,0.296 -0.06,0.0533 -0.12134,0.10267 -0.18267,0.15334 0.0387,-0.032 0.0587,-0.0427 0.007,-0.005 -0.0387,0.028 -0.0773,0.056 -0.11467,0.0827 -0.25333,0.176 -0.39467,0.52533 -0.212,0.808 0.16133,0.25067 0.536,0.4 0.80667,0.212 1.13733,-0.79467 1.95733,-2.03467 2.15066,-3.41733 0.024,-0.164 0.0293,-0.30534 -0.0587,-0.456 -0.0707,-0.12134 -0.212,-0.23734 -0.352,-0.27067 -0.27867,-0.064 -0.68134,0.0853 -0.72667,0.41333 v 0"
           style="fill:#574f66;fill-opacity:1;fill-rule:nonzero;stroke:none;stroke-width:0.133333" /><path
           id="path107"
           d="m 581.33332,512.30134 c -0.60933,0.41867 -1.22,0.83867 -1.82933,1.25867 -0.12934,0.088 -0.22934,0.19866 -0.272,0.35333 -0.0387,0.14 -0.0213,0.32933 0.0587,0.45467 0.16267,0.252 0.53734,0.39866 0.80934,0.212 0.60933,-0.42134 1.21866,-0.84 1.82933,-1.25867 0.128,-0.0893 0.22933,-0.2 0.27067,-0.35333 0.0387,-0.14267 0.0227,-0.32934 -0.0587,-0.456 -0.164,-0.252 -0.536,-0.39867 -0.808,-0.21067 v 0"
           style="fill:#574f66;fill-opacity:1;fill-rule:nonzero;stroke:none;stroke-width:0.133333" /><path
           id="path108"
           d="m 583.41999,530.00001 c -0.82134,0 -1.64134,0 -2.464,0 -0.308,0 -0.60534,0.272 -0.59067,0.592 0.0147,0.31866 0.26,0.58933 0.59067,0.58933 0.82266,0 1.64266,0 2.464,0 0.30933,0 0.60533,-0.272 0.59066,-0.58933 -0.0133,-0.32134 -0.26,-0.592 -0.59066,-0.592 v 0"
           style="fill:#574f66;fill-opacity:1;fill-rule:nonzero;stroke:none;stroke-width:0.133333" /><path
           id="path109"
           d="m 579.21599,544.32134 c -1.21334,-0.46147 -2.42667,-0.92293 -3.64,-1.3828 -0.28934,-0.1104 -0.66,0.12133 -0.72667,0.412 -0.076,0.33747 0.10267,0.60933 0.41333,0.72653 1.21334,0.46147 2.42534,0.92134 3.63867,1.38174 0.28933,0.11053 0.66133,-0.12134 0.72667,-0.41187 0.0773,-0.33653 -0.10267,-0.60947 -0.412,-0.7256 v 0"
           style="fill:#574f66;fill-opacity:1;fill-rule:nonzero;stroke:none;stroke-width:0.133333" /><path
           id="path110"
           d="m 572.61065,555.56254 c -1.2,-1.26093 -2.4,-2.524 -3.60133,-3.78653 -0.22,-0.23067 -0.61333,-0.22134 -0.83467,0 -0.23066,0.2308 -0.22133,0.60266 0,0.8344 1.2,1.26413 2.4,2.5256 3.60134,3.788 0.22,0.2308 0.61333,0.22133 0.83466,0 0.23067,-0.23174 0.22134,-0.6036 0,-0.83587 v 0"
           style="fill:#574f66;fill-opacity:1;fill-rule:nonzero;stroke:none;stroke-width:0.133333" /><path
           id="path111"
           d="m 564.12132,503.35601 c 1.52267,2.85866 2.59733,5.91866 3.22933,9.09466 0.12534,0.62667 0.87067,0.98534 1.45334,0.82534 0.652,-0.17867 0.94933,-0.82534 0.824,-1.45334 -0.672,-3.36933 -1.852,-6.62533 -3.46667,-9.66 -0.3,-0.56133 -1.08133,-0.73466 -1.616,-0.42266 -0.56933,0.33333 -0.724,1.05066 -0.424,1.616 v 0"
           style="fill:#ffffff;fill-opacity:1;fill-rule:nonzero;stroke:none;stroke-width:0.133333" /><path
           id="path112"
           d="m 568.06932,520.11734 c 0,0.82133 0,1.644 0,2.46533 0,0.30134 0.13333,0.62134 0.34667,0.83467 0.204,0.204 0.54,0.35867 0.83466,0.34667 0.64134,-0.0293 1.18134,-0.52 1.18134,-1.18134 0,-0.82133 0,-1.644 0,-2.46533 0,-0.30133 -0.132,-0.62133 -0.34667,-0.83467 -0.204,-0.204 -0.54,-0.35866 -0.83467,-0.34666 -0.63866,0.0293 -1.18133,0.52 -1.18133,1.18133 v 0"
           style="fill:#ffffff;fill-opacity:1;fill-rule:nonzero;stroke:none;stroke-width:0.133333" /><path
           id="path113"
           d="m 542.91332,520.12801 c -0.212,2.05333 -0.42267,4.10666 -0.63467,6.15866 -0.064,0.616 0.588,1.20667 1.18,1.18134 0.69467,-0.032 1.112,-0.52134 1.18,-1.18134 0.212,-2.052 0.424,-4.10533 0.63734,-6.15866 0.064,-0.616 -0.58934,-1.20667 -1.18134,-1.18 -0.69466,0.0307 -1.112,0.52 -1.18133,1.18 v 0"
           style="fill:#ffffff;fill-opacity:1;fill-rule:nonzero;stroke:none;stroke-width:0.133333" /><path
           id="path114"
           d="m 355.07599,289.56535 h 200.55466 l 34.78134,132.00799 h -235.336 V 289.56535"
           style="fill:#2d698c;fill-opacity:1;fill-rule:nonzero;stroke:none;stroke-width:0.133333" /><path
           id="path127"
           d="m 551.50799,412.21868 c 6.136,-6.18534 12.27066,-12.372 18.40533,-18.55867 1.072,-1.07867 -0.59733,-2.75067 -1.66933,-1.66933 -6.13467,6.18666 -12.27067,12.372 -18.404,18.55733 -1.072,1.08133 0.59733,2.752 1.668,1.67067 v 0"
           style="fill:#d66826;fill-opacity:1;fill-rule:nonzero;stroke:none;stroke-width:0.133333" /><path
           id="path128"
           d="m 564.06665,411.21334 c 4.10667,-3.696 8.21467,-7.39333 12.32134,-11.09066 1.13066,-1.01867 -0.544,-2.68534 -1.67067,-1.66934 -4.10533,3.69734 -8.212,7.39334 -12.32,11.09067 -1.132,1.01867 0.54267,2.684 1.66933,1.66933 v 0"
           style="fill:#d66826;fill-opacity:1;fill-rule:nonzero;stroke:none;stroke-width:0.133333" /><path
           id="path129"
           d="m 382.96932,341.02401 c 6.26934,-7.716 12.53734,-15.43066 18.80667,-23.14666 0.95067,-1.16934 -0.712,-2.85067 -1.66933,-1.66934 -6.268,7.71467 -12.53867,15.43067 -18.80667,23.14667 -0.95067,1.16933 0.71067,2.85066 1.66933,1.66933 v 0"
           style="fill:#d66826;fill-opacity:1;fill-rule:nonzero;stroke:none;stroke-width:0.133333" /><path
           id="path130"
           d="m 384.25066,323.81335 c 2.87466,-2.87467 5.75066,-5.74934 8.62533,-8.62534 1.076,-1.07466 -0.59333,-2.74533 -1.67067,-1.66933 -2.87466,2.87467 -5.75066,5.74933 -8.62533,8.62533 -1.07467,1.076 0.59333,2.74667 1.67067,1.66934 v 0"
           style="fill:#d66826;fill-opacity:1;fill-rule:nonzero;stroke:none;stroke-width:0.133333" /><path
           id="path131"
           d="m 388.15066,468.98001 c 6.5,-8.45867 13.92533,-16.188 22.076,-23.06667 1.16266,-0.98133 -0.516,-2.64533 -1.67067,-1.67066 -8.31467,7.02 -15.816,14.91866 -22.444,23.54533 -0.92533,1.204 1.124,2.38133 2.03867,1.192 v 0"
           style="fill:#d66826;fill-opacity:1;fill-rule:nonzero;stroke:none;stroke-width:0.133333" /><path
           id="path132"
           d="m 413.82132,458.11468 c 2.05334,-2.05334 4.108,-4.10667 6.16134,-6.16134 0.43733,-0.436 0.46933,-1.23866 0,-1.66933 -0.472,-0.432 -1.20267,-0.46533 -1.67067,0 -2.05333,2.05333 -4.10667,4.10667 -6.16,6.16 -0.43733,0.43733 -0.47067,1.24 0,1.67067 0.47067,0.432 1.20267,0.46666 1.66933,0 v 0"
           style="fill:#d66826;fill-opacity:1;fill-rule:nonzero;stroke:none;stroke-width:0.133333" /><path
           id="path133"
           d="m 550.58665,275.76135 c 4.51867,-4.51867 9.03467,-9.036 13.55334,-13.55334 1.076,-1.076 -0.59334,-2.74666 -1.66934,-1.67066 -4.51866,4.51866 -9.036,9.036 -13.55333,13.55333 -1.07733,1.076 0.592,2.74667 1.66933,1.67067 v 0"
           style="fill:#d66826;fill-opacity:1;fill-rule:nonzero;stroke:none;stroke-width:0.133333" /><path
           id="path134"
           d="m 540.61199,273.18935 c 4.10933,-4.516 8.22,-9.03067 12.32933,-13.54534 1.02133,-1.12266 -0.644,-2.79733 -1.66933,-1.67066 -4.11067,4.516 -8.22,9.03066 -12.32934,13.54533 -1.02266,1.12267 0.64267,2.79733 1.66934,1.67067 v 0"
           style="fill:#d66826;fill-opacity:1;fill-rule:nonzero;stroke:none;stroke-width:0.133333" /><path
           id="path135"
           d="m 379.51599,272.28668 c 2.84933,-2.49467 5.69867,-4.98933 8.54667,-7.48267 0.48,-0.42 0.43066,-1.24 0,-1.67066 -0.476,-0.476 -1.188,-0.42134 -1.66934,0 -2.84933,2.49466 -5.69866,4.98933 -8.548,7.48266 -0.47866,0.42134 -0.42933,1.24 0,1.67067 0.47734,0.476 1.18934,0.42133 1.67067,0 v 0"
           style="fill:#d66826;fill-opacity:1;fill-rule:nonzero;stroke:none;stroke-width:0.133333" /></g><g
         id="g3"
         transform="matrix(0.37020343,-0.01260363,0.01260363,0.37020343,92.182674,302.13829)"><path
           d="m 848.63355,222.69441 35.2001,-77.86689 h -19.30672 l -15.89338,35.30677 -16.00004,-35.30677 h -19.30672 z m 68.16006,-3.09335 c 20.58672,0 37.33344,-16.74671 37.33344,-37.33343 0,-20.58673 -16.74672,-37.22677 -37.33344,-37.22677 -20.58672,0 -37.33344,16.74671 -37.33344,37.22677 0,20.58672 16.74672,37.33343 37.33344,37.33343 z m -20.90673,-37.33343 c 0,-11.41337 9.3867,-20.80006 20.90673,-20.80006 11.52003,0 20.90672,9.38669 20.90672,20.80006 0,11.52003 -9.38669,20.90672 -20.90672,20.90672 -11.52003,0 -20.90673,-9.38669 -20.90673,-20.90672 z m 85.6534,37.4401 h 4.16001 c 12.5867,0 22.82671,-10.24003 22.82671,-22.82673 0,-12.5867 -10.24001,-22.82673 -22.82671,-22.82673 h -4.16001 c -3.52001,0 -6.40002,-2.88001 -6.40002,-6.40002 0,-3.41334 2.98668,-6.29335 6.40002,-6.29335 3.52001,0 6.29335,2.88001 6.29335,6.29335 h 16.53337 c 0,-12.48003 -10.24001,-22.72006 -22.72005,-22.82673 h -0.10666 c -12.48003,0.10666 -22.82673,10.3467 -22.82673,22.82673 v 0.10666 c 0,12.48004 10.24003,22.72006 22.82673,22.72006 h 4.16002 c 3.52001,0 6.29335,2.88001 6.29335,6.40002 0,3.52001 -2.77334,6.40002 -6.29335,6.40002 h -4.16002 c -3.52001,0 -6.40001,-2.88001 -6.40001,-6.40002 v -2.02666 l -16.42672,-4.16001 v 6.18668 c 0,12.5867 10.24003,22.82673 22.82673,22.82673 z m 67.84012,-0.21332 h 0.1067 c 18.1334,0 32.9601,-14.82671 33.0668,-33.06676 v -12.5867 h -33.1735 l -4.16,16.64005 h 20.3734 c -1.92,7.14668 -8.4267,12.5867 -16.2134,12.5867 -11.52,0 -20.9067,-9.38669 -20.9067,-20.90672 0,-11.52003 9.3867,-20.90673 20.9067,-20.90673 5.0134,0 9.7067,1.81334 13.3334,4.90668 l 11.6267,-11.73336 c -6.6133,-5.97336 -15.36,-9.60003 -24.9601,-9.60003 -20.5867,0 -37.3334,16.74671 -37.3334,37.33344 0,20.58672 16.7467,37.33343 37.3334,37.33343 z m 39.7867,0 h 37.3334 l 4.16,-16.64004 h -24.8534 V 190.481 h 16.5334 l 4.16,-16.64005 h -20.6934 v -12.37338 h 20.6934 l 4.16,-16.64005 h -41.4934 z m 69.1201,0.21332 h 4.16 c 12.5867,0 22.8268,-10.24003 22.8268,-22.82673 0,-12.5867 -10.2401,-22.82673 -22.8268,-22.82673 h -4.16 c -3.52,0 -6.4,-2.88001 -6.4,-6.40002 0,-3.41334 2.9867,-6.29335 6.4,-6.29335 3.52,0 6.2934,2.88001 6.2934,6.29335 h 16.5333 c 0,-12.48003 -10.24,-22.72006 -22.72,-22.82673 h -0.1066 c -12.48,0.10666 -22.8268,10.3467 -22.8268,22.82673 v 0.10666 c 0,12.48004 10.2401,22.72006 22.8268,22.72006 h 4.16 c 3.52,0 6.2933,2.88001 6.2933,6.40002 0,3.52001 -2.7733,6.40002 -6.2933,6.40002 h -4.16 c -3.52,0 -6.4,-2.88001 -6.4,-6.40002 v -2.02666 l -16.4268,-4.16001 v 6.18668 c 0,12.5867 10.2401,22.82673 22.8268,22.82673 z"
           id="text1"
           style="font-size:28.2223px;font-family:Hypero;-inkscape-font-specification:'Hypero, Normal';fill:#d66826;fill-rule:evenodd;stroke-width:7.55906;paint-order:markers fill stroke"
           aria-label="VOSGES" /><path
           id="path24-1"
           d="m 1166.1302,132.91256 c 0.6975,1.94645 -5.9266,11.06451 -17.027,12.71219 -7.5368,1.11808 -15.2511,1.15503 -18.9593,1.09104 5.046,-3.02385 17.9607,-10.4128 23.3968,-11.11686 0,0 -9.472,-0.12756 -24.9097,9.36919 1.9204,-4.03239 7.4529,-14.15888 15.8497,-17.17495 10.5612,-3.79364 20.9514,3.17172 21.6495,5.11939"
           style="fill:#299740;fill-opacity:1;fill-rule:nonzero;stroke:none;stroke-width:0.133333" /><path
           id="path30-2"
           d="m 810.58637,106.63797 c 18.51879,-12.04139 14.16395,-54.48869 12.1466,-95.24464 -0.84659,-17.063154 -1.98057,-31.607605 -2.57925,-42.030673 l -3.56919,0.312347 c 0,0 -0.28511,21.185281 0.79789,42.370866 1.09838,21.6582 1.60534,49.78435 -3.74708,49.72775 -5.34299,-0.0538 -4.18482,-23.29143 -4.80188,-50.52627 -0.488,-21.375061 -2.22538,-42.02317 -2.22538,-42.02317 l -3.20846,-0.03485 c 0,0 0.29849,19.795362 0.16808,41.11624 -0.15314,26.0743 1.15369,51.7292 -4.18568,51.67044 -5.34988,-0.0547 -4.08979,-25.70745 -4.45686,-50.3471 -0.31644,-21.666601 -1.67848,-42.905269 -1.67848,-42.905269 l -2.66952,-0.199748 c 0,0 -0.22388,21.572942 -0.46181,43.234377 -0.26894,24.40278 1.06728,49.78316 -4.45266,49.72566 -5.52681,-0.0586 -3.77481,-25.53437 -4.27201,-50.34911 -0.43417,-21.492296 -1.86913,-42.199478 -1.86913,-42.199478 l -2.84713,0.148192 c 0,0 -0.0908,19.130678 -0.81934,42.876026 -1.13293,37.03369 -6.815,81.25477 10.27449,94.26201 0.56343,4.98532 6.07555,55.80467 1.21337,126.11297 -4.57036,66.16886 -21.17315,102.09967 8.35302,102.78539 l -0.005,0.0161 0.22458,-0.005 0.21991,0.007 -2e-5,-0.0138 c 29.53153,-0.0602 13.70221,-36.33516 10.54756,-102.58853 -3.31246,-69.60866 3.10033,-119.97602 3.90004,-125.89949"
           style="fill:#d66826;fill-opacity:1;fill-rule:nonzero;stroke:none;stroke-width:0.309757" /><path
           id="path31-7"
           d="m 1242.4373,0.59778 c -11.4549,-28.017114 -24.3496,-31.677004 -29.0149,-32.024777 l -8e-4,-0.02923 c 0,0 -0.3519,-0.04406 -0.983,-9.94e-4 -0.5359,0.0081 -0.833,0.0598 -0.833,0.0598 v 0.02487 c -4.5584,0.639952 -16.9434,5.105641 -27.5597,33.756221 -13.0817,35.30259 -16.2698,77.41704 21.0288,101.92065 0,0 7.0643,52.66797 5.0409,127.51842 -1.8063,66.87008 -14.7571,103.69316 10.3025,103.30477 l 3e-4,0.0105 0.1891,-0.0132 0.1894,0.002 v -0.0154 c 25.0383,-1.13765 10.4811,-37.12125 5.7295,-103.78818 -5.3216,-74.62313 -0.5902,-127.65537 -0.5902,-127.65537 36.1661,-26.74588 30.6905,-68.36348 16.5014,-103.06873"
           style="fill:#ffffff;fill-opacity:1;fill-rule:nonzero;stroke:none;stroke-width:0.270136" /><path
           id="path49-0"
           d="m 920.69299,165.5205 c 1.90664,-0.35849 9.42623,6.82547 9.38641,16.98984 -0.0278,6.90132 -1.08399,13.8128 -1.66874,17.12505 -2.09059,-4.93384 -7.1199,-17.51259 -7.00505,-22.47461 0,0 -1.45776,8.46353 5.17017,23.58887 -3.46764,-2.27159 -12.08215,-8.6188 -13.6915,-16.54943 -2.02579,-9.97804 5.90284,-18.32093 7.80871,-18.67972"
           style="fill:#299740;fill-opacity:1;fill-rule:nonzero;stroke:none;stroke-width:0.0792063" /><path
           id="path91-9"
           d="m 1000.5284,111.29401 c -1.92581,1.88843 0.6834,16.33893 12.7761,24.56349 8.2103,5.58328 17.2399,9.99716 21.6308,12.02215 -4.2102,-6.40691 -15.1795,-22.39784 -21.158,-26.30249 0,0 11.1897,5.21834 23.9234,25.11015 0.031,-5.81903 -0.7234,-20.84025 -8.8687,-29.13648 -10.2474,-10.4345 -26.3798,-8.14834 -28.3036,-6.25682"
           style="fill:#299740;fill-opacity:1;fill-rule:nonzero;stroke:none;stroke-width:0.133333" /><path
           d="m 749.07483,443.58743 h 20.89659 v -20.89659 h 5.22415 c 20.09288,0 36.43508,-16.34221 36.43508,-36.43509 0,-20.09287 -16.3422,-36.43508 -36.43508,-36.43508 h -26.12074 z m 20.89659,-41.52528 v -31.61279 h 5.22415 c 8.70691,0 15.67244,7.09948 15.67244,15.80639 0,8.70692 -7.09948,15.8064 -15.80639,15.8064 z m 92.29305,41.65923 c 25.85284,0 46.88338,-21.03054 46.88338,-46.88338 0,-25.85283 -21.03054,-46.74942 -46.88338,-46.74942 -25.85283,0 -46.88337,21.03054 -46.88337,46.74942 0,25.85284 21.03054,46.88338 46.88337,46.88338 z M 836.00978,396.838 c 0,-14.33292 11.78782,-26.12074 26.25469,-26.12074 14.46688,0 26.2547,11.78782 26.2547,26.12074 0,14.46688 -11.78782,26.25469 -26.2547,26.25469 -14.46687,0 -26.25469,-11.78781 -26.25469,-26.25469 z m 81.30897,46.74943 h 20.89659 v -20.89659 h 7.9032 l 9.51062,20.89659 h 24.24541 l -13.2613,-29.20165 c 8.03715,-6.69763 13.2613,-16.87801 13.2613,-28.13003 0,-20.09287 -16.34221,-36.43508 -36.43508,-36.43508 h -26.12074 z m 20.89659,-41.65923 v -31.47884 h 5.22415 c 8.70691,0 15.67244,7.09948 15.67244,15.80639 0,8.17111 -6.16182,14.86873 -14.06501,15.67245 z m 65.36866,41.65923 h 20.7627 v -72.87017 h 20.8966 v -20.89659 h -62.55586 v 20.89659 h 20.89656 z m 30.1391,0 h 24.2454 l 20.0929,-44.33828 19.9589,44.33828 h 24.2454 l -44.2043,-97.78533 z m 130.0676,0 h 0.134 c 22.7719,0 41.3913,-18.6194 41.5253,-41.52528 v -15.8064 h -41.6593 l -5.2241,20.8966 h 25.5849 c -2.4111,8.97482 -10.5822,15.8064 -20.3608,15.8064 -14.4668,0 -26.2547,-11.78783 -26.2547,-26.2547 0,-14.46686 11.7879,-26.25469 26.2547,-26.25469 6.2958,0 12.1897,2.2772 16.7441,6.16181 l 14.6008,-14.73477 c -8.305,-7.50134 -19.2891,-12.05573 -31.3449,-12.05573 -25.8528,0 -46.8833,21.03054 -46.8833,46.88338 0,25.85283 21.0305,46.88338 46.8833,46.88338 z m 49.9641,0 h 46.8834 l 5.2241,-20.89659 h -31.2109 v -15.53849 h 20.7626 l 5.2242,-20.8966 h -25.9868 v -15.53849 h 25.9868 l 5.2241,-20.89659 h -52.1075 z"
           id="text145"
           style="font-size:160px;font-family:Hypero;-inkscape-font-specification:'Hypero, @wght=100,wdth=76.1';font-variation-settings:'wdth' 76.1, 'wght' 100;fill:#ffffff;fill-opacity:1;fill-rule:evenodd;stroke-width:0.316423;paint-order:markers fill stroke"
           aria-label="Portage" /><path
           id="path36-3"
           d="M 1182.7396,208.45211 H 832.1975 c 2.26396,47.81091 52.63728,87.98863 121.64457,101.95322 v 18.70346 H 1061.095 v -18.70346 c 69.0048,-13.96459 119.3806,-54.14231 121.6446,-101.95322"
           style="fill:#ffffff;fill-opacity:1;fill-rule:nonzero;stroke:none;stroke-width:0.257269" /><path
           id="path34-6"
           d="m 847.64585,165.95443 c 0,0 3.75739,-3.98626 9.26086,-7.78491 5.19232,-3.58308 -0.84314,-9.06684 7.27985,-12.55211 -6.68459,-1.42043 -13.28847,5.71053 -13.45687,10.43581 0,0 -2.23396,-10.30417 9.81592,-11.32982 -2.05406,-0.39634 -6.86732,-5.05803 -11.56475,0.0204 -7.06005,7.6339 -1.33501,21.21066 -1.33501,21.21066"
           style="fill:#299740;fill-opacity:1;fill-rule:nonzero;stroke:none;stroke-width:0.0366293" /></g></g></g></svg>
