<?xml version="1.0" encoding="UTF-8" standalone="no"?>
<!-- Created with Inkscape (http://www.inkscape.org/) -->

<svg
   width="136.73334mm"
   height="125.72934mm"
   viewBox="0 0 136.73334 125.72934"
   version="1.1"
   id="svg1"
   xml:space="preserve"
   inkscape:version="1.3.1 (9b9bdc1480, 2023-11-25, custom)"
   sodipodi:docname="logo_final.svg"
   xmlns:inkscape="http://www.inkscape.org/namespaces/inkscape"
   xmlns:sodipodi="http://sodipodi.sourceforge.net/DTD/sodipodi-0.dtd"
   xmlns="http://www.w3.org/2000/svg"
   xmlns:svg="http://www.w3.org/2000/svg"><sodipodi:namedview
     id="namedview1"
     pagecolor="#ffffff"
     bordercolor="#000000"
     borderopacity="0.25"
     inkscape:showpageshadow="2"
     inkscape:pageopacity="0.0"
     inkscape:pagecheckerboard="0"
     inkscape:deskcolor="#d1d1d1"
     inkscape:document-units="mm"
     inkscape:zoom="1.0557146"
     inkscape:cx="164.81727"
     inkscape:cy="287.00939"
     inkscape:window-width="1854"
     inkscape:window-height="1011"
     inkscape:window-x="0"
     inkscape:window-y="0"
     inkscape:window-maximized="1"
     inkscape:current-layer="g1"><inkscape:page
       x="0"
       y="0"
       width="136.73334"
       height="125.72934"
       id="page1"
       margin="0"
       bleed="0" /></sodipodi:namedview><defs
     id="defs1"><rect
       x="252.37263"
       y="197.4568"
       width="342.68005"
       height="222.30727"
       id="rect143" /><radialGradient
       fx="0"
       fy="0"
       cx="0"
       cy="0"
       r="1"
       gradientUnits="userSpaceOnUse"
       gradientTransform="matrix(4005,0,0,-4005,4010,4000)"
       spreadMethod="pad"
       id="radialGradient3"><stop
         style="stop-opacity:1;stop-color:#ffffff"
         offset="0"
         id="stop2" /><stop
         style="stop-opacity:1;stop-color:#e9e9e9"
         offset="1"
         id="stop3" /></radialGradient><clipPath
       clipPathUnits="userSpaceOnUse"
       id="clipPath3"><path
         d="M 8020,0 H 0 V 8000 H 8020 V 0 M 3969.94,6565 v -70 h 20 v 70 h 49.99 v 15.42 H 5529.58 V 8000 h -2960 V 6580.42 H 3924.94 V 6565 h 45"
         transform="translate(0,2.5000001e-4)"
         id="path3" /></clipPath><clipPath
       clipPathUnits="userSpaceOnUse"
       id="clipPath107"><path
         d="M 5529.58,6580.42 H 4039.93 V 6630 h -114.99 v -49.58 H 2569.58 V 8000 h 2960 V 6580.42"
         transform="matrix(3.354354e-4,0,0,-6.9386622e-4,-0.85834565,5.5586317)"
         id="path107" /></clipPath><clipPath
       clipPathUnits="userSpaceOnUse"
       id="clipPath108"><path
         d="m 3924.94,6580.42 h 114.988 v 49.5781 H 3924.94 Z"
         transform="matrix(0.00762195,0,0,-0.0140449,-29.869665,93.273617)"
         id="path108" /></clipPath><clipPath
       clipPathUnits="userSpaceOnUse"
       id="clipPath110"><path
         d="M 0,0 H 8000 V 8000 H 0 Z"
         transform="translate(0,2.5000001e-4)"
         id="path110" /></clipPath><clipPath
       clipPathUnits="userSpaceOnUse"
       id="clipPath112"><path
         d="M 0,0 H 8000 V 8000 H 0 Z"
         transform="translate(0,2.5000001e-4)"
         id="path112" /></clipPath><clipPath
       clipPathUnits="userSpaceOnUse"
       id="clipPath2"><g
         id="g142"><path
           d="M -3.351133e-6,1066.6667 H 1066.6666 V 2.8095166e-5 H -3.351133e-6 Z"
           id="path142"
           style="stroke-width:0.133333" /></g></clipPath><clipPath
       clipPathUnits="userSpaceOnUse"
       id="clipPath142"><g
         id="g143"><path
           d="M -3.351133e-6,1066.6667 H 1066.6666 V 2.8095166e-5 H -3.351133e-6 Z"
           id="path143"
           style="stroke-width:0.133333" /></g></clipPath><clipPath
       clipPathUnits="userSpaceOnUse"
       id="clipPath144"><rect
         style="fill:#e62a37;fill-opacity:1;fill-rule:evenodd;stroke-width:0.377953;paint-order:markers fill stroke"
         id="rect145"
         width="711.20062"
         height="398.63965"
         x="-724.59332"
         y="-101.5507"
         transform="rotate(9.9613152)" /></clipPath></defs><g
     inkscape:label="Calque 1"
     inkscape:groupmode="layer"
     id="layer1"
     transform="translate(-36.338477,-18.401606)" /><path
     d="m -622.21156,203.50439 h 24.64 v -52.16 l 18.88,20.64 18.88,-20.64 v 52 h 24.64 V 87.664395 l -43.52,47.679995 -43.52,-47.519995 z m 101.59973,0 h 56 l 6.24,-24.96 h -37.28 v -18.56 h 24.8 l 6.24,-24.96 h -31.04 v -18.56 h 31.04 l 6.24,-24.959995 h -62.24 z m 159.19995,4.96 V 91.504395 h -24.64 v 57.279995 l -62.24,-62.239995 V 203.50439 h 24.64 v -57.28 z m 50.55982,-4.64 c 20.64,0 37.28,-16.64 37.44,-37.28 V 91.504395 h -24.8 v 75.039995 c 0,6.88 -5.6,12.64 -12.64,12.64 -6.88,0 -12.64,-5.76 -12.64,-12.64 V 91.504395 h -24.64 v 75.039995 c 0,20.64 16.8,37.28 37.28,37.28 z"
     id="text143"
     clip-path="url(#clipPath144)"
     style="font-size:160px;font-family:Hypero;-inkscape-font-specification:'Hypero, Normal';fill:#d66826;fill-rule:evenodd;stroke-width:0.377953;paint-order:markers fill stroke"
     transform="matrix(0.26458333,0,0,0.26458333,186.85022,14.48973)"
     aria-label="Menu" /><g
     id="g1"
     inkscape:groupmode="layer"
     inkscape:label="1"
     transform="matrix(0.26458332,0,0,0.26458335,183.66154,-18.401606)"><path
       id="path24"
       d="m -553.95282,220.90344 c 0.5431,1.99505 -6.774,10.56696 -17.96927,11.3412 -7.60122,0.52505 -15.29469,-0.0416 -18.9865,-0.39549 5.26707,-2.61983 18.72023,-8.97581 24.19468,-9.25245 0,0 -9.4329,-0.86816 -25.56628,7.39179 2.22996,-3.8698 8.53774,-13.53245 17.14471,-15.8824 10.82566,-2.9558 20.63911,4.80105 21.18266,6.79735"
       style="fill:#299740;fill-opacity:1;fill-rule:nonzero;stroke:none;stroke-width:0.133333" /><path
       id="path30"
       d="m -628.86326,207.66345 c 18.51879,-12.04139 14.16395,-54.48869 12.1466,-95.24464 -0.84659,-17.063154 -1.98057,-31.607605 -2.57925,-42.030673 l -3.56919,0.312347 c 0,0 -0.28511,21.185281 0.79789,42.370866 1.09838,21.6582 1.60534,49.78435 -3.74708,49.72775 -5.34299,-0.0538 -4.18482,-23.29143 -4.80188,-50.52627 -0.488,-21.375061 -2.22538,-42.02317 -2.22538,-42.02317 l -3.20846,-0.03485 c 0,0 0.29849,19.795362 0.16808,41.11624 -0.15314,26.0743 1.15369,51.7292 -4.18568,51.67044 -5.34988,-0.0547 -4.08979,-25.70745 -4.45686,-50.3471 -0.31644,-21.666601 -1.67848,-42.905269 -1.67848,-42.905269 l -2.66952,-0.199748 c 0,0 -0.22388,21.572942 -0.46181,43.234377 -0.26894,24.40278 1.06728,49.78316 -4.45266,49.72566 -5.52681,-0.0586 -3.77481,-25.53437 -4.27201,-50.34911 -0.43417,-21.492296 -1.86913,-42.199478 -1.86913,-42.199478 l -2.84713,0.148192 c 0,0 -0.0908,19.130678 -0.81934,42.876026 -1.13293,37.03369 -6.815,81.25477 10.27449,94.26201 0.56343,4.98532 6.07555,55.80467 1.21337,126.11297 -4.57036,66.16886 -21.17315,102.09967 8.35302,102.78539 l -0.005,0.0161 0.22458,-0.005 0.21991,0.007 -2e-5,-0.0138 c 29.53153,-0.0602 13.70221,-36.33516 10.54756,-102.58853 -3.31246,-69.60866 3.10033,-119.97602 3.90004,-125.89949"
       style="fill:#d66826;fill-opacity:1;fill-rule:nonzero;stroke:none;stroke-width:0.309757" /><path
       id="path31"
       d="m -204.5714,101.62326 c -11.45488,-28.017114 -24.34958,-31.677004 -29.01485,-32.024777 l -8e-4,-0.02923 c 0,0 -0.35191,-0.04406 -0.98305,-9.94e-4 -0.53587,0.0081 -0.833,0.0598 -0.833,0.0598 l -0.002,0.02487 c -4.55837,0.639952 -16.94337,5.105641 -27.55965,33.756221 -13.08173,35.30259 -16.26981,77.41704 21.02882,101.92065 0,0 7.06424,52.66797 5.04086,127.51842 -1.80633,66.87008 -14.75709,103.69316 10.30252,103.30477 l 2.9e-4,0.0105 0.18907,-0.0132 0.18944,0.002 0.002,-0.0154 c 25.03824,-1.13765 10.48104,-37.12125 5.72946,-103.78818 -5.32162,-74.62313 -0.59023,-127.65537 -0.59023,-127.65537 36.16611,-26.74588 30.69052,-68.36348 16.50149,-103.06873"
       style="fill:#2d698c;fill-opacity:1;fill-rule:nonzero;stroke:none;stroke-width:0.270136" /><path
       id="path49"
       d="m -487.03615,167.01005 c 2.54365,1.96332 1.50184,19.42137 -11.63311,30.8569 -8.91911,7.76343 -18.97423,14.26092 -23.87884,17.27712 4.07186,-8.17176 14.78127,-28.63211 21.29764,-34.09621 0,0 -12.49259,7.75234 -24.73637,33.07601 -0.86071,-6.87419 -2.09221,-24.74692 6.36499,-35.70704 10.63942,-13.79084 30.04245,-13.36882 32.58569,-11.40678"
       style="fill:#299740;fill-opacity:1;fill-rule:nonzero;stroke:none;stroke-width:0.133333" /><path
       id="path91"
       d="m -418.61592,207.97257 c -1.526,2.224 3.81774,15.90133 17.26814,21.64267 9.132,3.89733 18.84266,6.48933 23.54133,7.63066 -5.36533,-5.476 -19.20933,-19.05466 -25.828,-21.73466 0,0 11.98533,2.96533 28.312,20.032 -1.09067,-5.716 -4.724,-20.31067 -14.31467,-26.88267 -12.06533,-8.26533 -27.45533,-2.91467 -28.9788,-0.688"
       style="fill:#299740;fill-opacity:1;fill-rule:nonzero;stroke:none;stroke-width:0.133333" /><path
       d="m -694.15387,544.61291 h 20.89659 v -20.89659 h 5.22415 c 20.09288,0 36.43508,-16.34221 36.43508,-36.43509 0,-20.09287 -16.3422,-36.43508 -36.43508,-36.43508 h -26.12074 z m 20.89659,-41.52528 v -31.61279 h 5.22415 c 8.70691,0 15.67244,7.09948 15.67244,15.80639 0,8.70692 -7.09948,15.8064 -15.80639,15.8064 z m 92.29305,41.65923 c 25.85284,0 46.88338,-21.03054 46.88338,-46.88338 0,-25.85283 -21.03054,-46.74942 -46.88338,-46.74942 -25.85283,0 -46.88337,21.03054 -46.88337,46.74942 0,25.85284 21.03054,46.88338 46.88337,46.88338 z m -26.25469,-46.88338 c 0,-14.33292 11.78782,-26.12074 26.25469,-26.12074 14.46688,0 26.2547,11.78782 26.2547,26.12074 0,14.46688 -11.78782,26.25469 -26.2547,26.25469 -14.46687,0 -26.25469,-11.78781 -26.25469,-26.25469 z m 81.30897,46.74943 h 20.89659 v -20.89659 h 7.9032 l 9.51062,20.89659 h 24.24541 l -13.2613,-29.20165 c 8.03715,-6.69763 13.2613,-16.87801 13.2613,-28.13003 0,-20.09287 -16.34221,-36.43508 -36.43508,-36.43508 h -26.12074 z m 20.89659,-41.65923 v -31.47884 h 5.22415 c 8.70691,0 15.67244,7.09948 15.67244,15.80639 0,8.17111 -6.16182,14.86873 -14.06501,15.67245 z m 65.36869,41.65923 h 20.76264 v -72.87017 h 20.89659 v -20.89659 h -62.55582 v 20.89659 h 20.89659 z m 30.13905,0 h 24.24541 l 20.09288,-44.33828 19.95892,44.33828 h 24.2454 l -44.20432,-97.78533 z m 130.06765,0 h 0.13395 c 22.77193,0 41.39133,-18.6194 41.52528,-41.52528 v -15.8064 h -41.65923 l -5.22415,20.8966 h 25.58493 c -2.41115,8.97482 -10.58225,15.8064 -20.36078,15.8064 -14.46687,0 -26.25469,-11.78783 -26.25469,-26.2547 0,-14.46686 11.78782,-26.25469 26.25469,-26.25469 6.29577,0 12.18968,2.2772 16.74406,6.16181 l 14.60083,-14.73477 c -8.30506,-7.50134 -19.28917,-12.05573 -31.34489,-12.05573 -25.85284,0 -46.88338,21.03054 -46.88338,46.88338 0,25.85283 21.03054,46.88338 46.88338,46.88338 z m 49.96407,0 h 46.88338 l 5.22414,-20.89659 h -31.21093 v -15.53849 h 20.76264 l 5.22415,-20.8966 h -25.98679 v -15.53849 h 25.98679 l 5.22414,-20.89659 h -52.10752 z"
       id="text145"
       style="font-size:160px;font-family:Hypero;-inkscape-font-specification:'Hypero, @wght=100,wdth=76.1';font-variation-settings:'wdth' 76.1, 'wght' 100;fill:#2d698c;fill-rule:evenodd;stroke-width:0.316423;paint-order:markers fill stroke"
       aria-label="Portage" /><path
       id="path36"
       d="M -260.48906,309.47759 H -611.0312 c 2.26396,47.81091 52.63728,87.98863 121.64457,101.95322 v 18.70346 h 107.25297 v -18.70346 c 69.00473,-13.96459 119.38061,-54.14231 121.6446,-101.95322"
       style="fill:#2d698c;fill-opacity:1;fill-rule:nonzero;stroke:none;stroke-width:0.257269" /><path
       id="path34"
       d="m -303.85436,253.20358 c 0,0 3.75739,-3.98626 9.26086,-7.78491 5.19232,-3.58308 -0.84314,-9.06684 7.27985,-12.55211 -6.68459,-1.42043 -13.28847,5.71053 -13.45687,10.43581 0,0 -2.23396,-10.30417 9.81592,-11.32982 -2.05406,-0.39634 -6.86732,-5.05803 -11.56475,0.0204 -7.06005,7.6339 -1.33501,21.21066 -1.33501,21.21066"
       style="fill:#299740;fill-opacity:1;fill-rule:nonzero;stroke:none;stroke-width:0.0366293" /></g></svg>
