<?xml version="1.0" encoding="UTF-8"?>
<svg id="Calque_1" xmlns="http://www.w3.org/2000/svg" version="1.1" xmlns:inkscape="http://www.inkscape.org/namespaces/inkscape" xmlns:sodipodi="http://sodipodi.sourceforge.net/DTD/sodipodi-0.dtd" xmlns:svg="http://www.w3.org/2000/svg" viewBox="0 0 427.6 393.2">
  <!-- Generator: Adobe Illustrator 29.0.0, SVG Export Plug-In . SVG Version: 2.1.0 Build 186)  -->
  <defs>
    <style>
      .st0, .st1 {
        fill-rule: evenodd;
      }

      .st0, .st2 {
        fill: #2d698c;
      }

      .st3 {
        fill: #299740;
      }

      .st4, .st1 {
        fill: #d66826;
      }
    </style>
  </defs>
  <g id="vosges-portage" inkscape:version="1.3.1 (9b9bdc1480, 2023-11-25, custom)" sodipodi:docname="logo_MAJ.svg">
    <path id="text1" class="st1" d="M94.7,209l26.4-58.4h-14.5l-11.9,26.5-12-26.5h-14.5l26.5,58.4ZM145.8,206.7c15.4,0,28-12.6,28-28s-12.6-27.9-28-27.9-28,12.6-28,27.9,12.6,28,28,28ZM130.1,178.7c0-8.6,7-15.6,15.7-15.6s15.7,7,15.7,15.6-7,15.7-15.7,15.7-15.7-7-15.7-15.7ZM194.3,206.8h3.1c9.4,0,17.1-7.7,17.1-17.1s-7.7-17.1-17.1-17.1h-3.1c-2.6,0-4.8-2.2-4.8-4.8s2.2-4.7,4.8-4.7,4.7,2.2,4.7,4.7h12.4c0-9.4-7.7-17-17-17.1h0c-9.4,0-17.1,7.8-17.1,17.1h0c0,9.4,7.7,17.1,17.1,17.1h3.1c2.6,0,4.7,2.2,4.7,4.8s-2.1,4.8-4.7,4.8h-3.1c-2.6,0-4.8-2.2-4.8-4.8v-1.5l-12.3-3.1v4.6c0,9.4,7.7,17.1,17.1,17.1h0ZM245.2,206.6h0c13.6,0,24.7-11.1,24.8-24.8v-9.4h-24.9l-3.1,12.5h15.3c-1.4,5.4-6.3,9.4-12.2,9.4-8.6,0-15.7-7-15.7-15.7s7-15.7,15.7-15.7,7.3,1.4,10,3.7l8.7-8.8c-5-4.5-11.5-7.2-18.7-7.2-15.4,0-28,12.6-28,28s12.6,28,28,28h0ZM275.1,206.6h28l3.1-12.5h-18.6v-9.3h12.4l3.1-12.5h-15.5v-9.3h15.5l3.1-12.5h-31.1v56h0ZM326.9,206.8h3.1c9.4,0,17.1-7.7,17.1-17.1s-7.7-17.1-17.1-17.1h-3.1c-2.6,0-4.8-2.2-4.8-4.8s2.2-4.7,4.8-4.7,4.7,2.2,4.7,4.7h12.4c0-9.4-7.7-17-17-17.1h0c-9.4,0-17.1,7.8-17.1,17.1h0c0,9.4,7.7,17.1,17.1,17.1h3.1c2.6,0,4.7,2.2,4.7,4.8s-2.1,4.8-4.7,4.8h-3.1c-2.6,0-4.8-2.2-4.8-4.8v-1.5l-12.3-3.1v4.6c0,9.4,7.7,17.1,17.1,17.1h-.1Z"/>
    <path id="path24" class="st3" d="M332.8,141.7c.5,1.5-4.4,8.3-12.8,9.5-5.7.8-11.4.9-14.2.8,3.8-2.3,13.5-7.8,17.5-8.3,0,0-7.1,0-18.7,7,1.4-3,5.6-10.6,11.9-12.9,7.9-2.8,15.7,2.4,16.2,3.8"/>
    <path id="path30" class="st4" d="M66.1,122c13.9-9,10.6-40.9,9.1-71.4-.6-12.8-1.5-23.7-1.9-31.5l-2.7.2s-.2,15.9.6,31.8c.8,16.2,1.2,37.3-2.8,37.3s-3.1-17.5-3.6-37.9c-.4-16-1.7-31.5-1.7-31.5h-2.4s.2,14.8,0,30.8c0,19.6.9,38.8-3.1,38.8s-3.1-19.3-3.3-37.8c-.2-16.2-1.3-32.2-1.3-32.2h-2c0-.1-.2,16-.3,32.3-.2,18.3.8,37.3-3.3,37.3s-2.8-19.2-3.2-37.8c-.3-16.1-1.4-31.6-1.4-31.6h-2.1c0,0,0,14.5-.6,32.3-.8,27.8-5.1,60.9,7.7,70.7.4,3.7,4.6,41.9.9,94.6-3.4,49.6-15.9,76.6,6.3,77.1h.4c22.1,0,10.3-27.3,7.9-76.9-2.5-52.2,2.3-90,2.9-94.4"/>
    <path id="path31" class="st2" d="M390,42.5c-8.6-21.1-18.2-23.8-21.7-24.1h-1.3c-3.4.5-12.7,3.8-20.7,25.3-9.8,26.5-12.2,58.1,15.8,76.4,0,0,5.3,39.5,3.8,95.6-1.4,50.2-11.1,77.8,7.7,77.5h.2c18.8-.9,7.9-27.8,4.3-77.8-4-56-.4-95.7-.4-95.7,27.1-20.1,23-51.3,12.4-77.3"/>
    <path id="path49" class="st3" d="M148.7,166.1c1.4-.3,7.1,5.1,7,12.7,0,5.2-.8,10.4-1.3,12.8-1.6-3.7-5.3-13.1-5.3-16.9,0,0-1.1,6.3,3.9,17.7-2.6-1.7-9.1-6.5-10.3-12.4-1.5-7.5,4.4-13.7,5.9-14"/>
    <path id="path91" class="st3" d="M208.6,125.5c-1.4,1.4.5,12.3,9.6,18.4,6.2,4.2,12.9,7.5,16.2,9-3.2-4.8-11.4-16.8-15.9-19.7,0,0,8.4,3.9,17.9,18.8,0-4.4-.5-15.6-6.7-21.9-7.7-7.8-19.8-6.1-21.2-4.7"/>
    <path id="text145" class="st0" d="M20,374.7h15.7v-15.7h3.9c15.1,0,27.3-12.3,27.3-27.3s-12.3-27.3-27.3-27.3h-19.6v70.3ZM35.7,343.6v-23.7h3.9c6.5,0,11.8,5.3,11.8,11.9s-5.3,11.9-11.9,11.9h-3.8ZM104.9,374.8c19.4,0,35.2-15.8,35.2-35.2s-15.8-35.1-35.2-35.1-35.2,15.8-35.2,35.1,15.8,35.2,35.2,35.2ZM85.2,339.6c0-10.7,8.8-19.6,19.7-19.6s19.7,8.8,19.7,19.6-8.8,19.7-19.7,19.7-19.7-8.8-19.7-19.7h0ZM146.2,374.7h15.7v-15.7h5.9l7.1,15.7h18.2l-9.9-21.9c6-5,9.9-12.7,9.9-21.1,0-15.1-12.3-27.3-27.3-27.3h-19.6s0,70.3,0,70.3ZM161.9,343.5v-23.6h3.9c6.5,0,11.8,5.3,11.8,11.9s-4.6,11.2-10.5,11.8h-5.2ZM210.9,374.7h15.6v-54.7h15.7v-15.7h-46.9v15.7h15.7v54.7h0ZM233.5,374.7h18.2l15.1-33.3,15,33.3h18.2l-33.2-73.3-33.3,73.3ZM331,374.7h.1c17.1,0,31-14,31.1-31.1v-11.9h-31.2l-3.9,15.7h19.2c-1.8,6.7-7.9,11.9-15.3,11.9-10.9,0-19.7-8.8-19.7-19.7s8.8-19.7,19.7-19.7,9.1,1.7,12.6,4.6l11-11.1c-6.2-5.6-14.5-9-23.5-9-19.4,0-35.2,15.8-35.2,35.2s15.8,35.2,35.2,35.2h-.1ZM368.5,374.7h35.2l3.9-15.7h-23.4v-11.7h15.6l3.9-15.7h-19.5v-11.7h19.5l3.9-15.7h-39.1v70.5Z"/>
    <path id="path36" class="st2" d="M345.2,198.3H82.3c1.7,35.9,39.5,66,91.2,76.5v14h80.4v-14c51.8-10.5,89.5-40.6,91.2-76.5"/>
    <path id="path34" class="st3" d="M93.9,166.5s2.8-3,6.9-5.8c3.9-2.7-.6-6.8,5.5-9.4-5-1.1-10,4.3-10.1,7.8,0,0-1.7-7.7,7.4-8.5-1.5-.3-5.2-3.8-8.7,0-5.3,5.7-1,15.9-1,15.9"/>
  </g>
</svg>