<?xml version="1.0" encoding="utf-8"?>
<!-- Generator: Adobe Illustrator 26.5.2, SVG Export Plug-In . SVG Version: 6.00 Build 0)  -->
<svg version="1.1" id="Calque_1" xmlns="http://www.w3.org/2000/svg" xmlns:xlink="http://www.w3.org/1999/xlink" x="0px" y="0px"
	 viewBox="0 0 32 32" style="enable-background:new 0 0 32 32;" xml:space="preserve">
<g transform="translate(0.000000,1173.000000) scale(0.100000,-0.100000)">
	<path d="M0.01,11715.75c-0.23-0.6,5.95-12.83,9.18-18.1c4.1-6.75,4.9-7.8,12.68-16.93c7.45-8.7,10.85-12.18,17.83-18.1
		c6.88-5.83,12.83-10.05,21.38-15.2c2.35-1.43,4.28-2.65,4.33-2.78s-0.3-0.97-0.78-1.92c-3-6.03-4.88-14.08-6.4-27.58
		c-0.8-7.03-1.9-11.05-4.78-17.38c-0.95-2.05-1.9-4.43-2.15-5.25c-0.53-1.88-0.35-4.6,0.43-6.88c1.03-2.95,5.1-10.75,6.83-13
		c2.1-2.78,6.95-8.2,9.1-10.18c1.43-1.35,1.63-1.62,1.4-2c-5.3-8.3-7.3-12.5-8.85-18.7c-1.2-4.68-1.58-8.53-1.6-15.5
		c0-5.98,0.03-6.35,0.65-8.63c1.6-5.88,4.9-13.03,8.7-18.95c1.98-3.05,2.28-3.68,2.15-4.33c-0.25-1.27-1.4-3.95-3.58-8.3
		c-3.93-7.85-5.08-11.48-5.28-16.35c-0.15-3.88,0.3-5.98,1.98-9.3c2.2-4.4,5.75-8.83,9.93-12.3l1.05-0.9l-1.28-1.6
		c-4.1-5.13-6.98-10.68-6.98-13.5c0-1.1,0.43-1.98,0.98-1.98c0.08,0,0.3-0.35,0.45-0.75c0.23-0.6,0.43-0.75,1-0.75
		c0.38,0,1.03-0.18,1.43-0.38c0.38-0.2,0.88-0.38,1.05-0.38c0.6,0,5.88,2.83,8.35,4.5c2.98,1.98,7.7,5.45,9.5,7
		c2.9,2.45,2.53,2.33,7.85,2.53c2.63,0.12,7.75,0.33,11.4,0.48c4.53,0.17,7.93,0.45,10.75,0.88c2.28,0.35,4.65,0.62,5.3,0.62
		c2.15,0,7.3-0.8,13.95-2.15c14.53-3,16.4-3.38,18.78-3.68l2.45-0.3l-1.33-3.05c-0.75-1.68-1.6-3.75-1.9-4.63
		c-0.68-1.98-0.75-4.03-0.13-4.7c0.68-0.75,3.35-2,4.28-2c0.45,0,0.9-0.12,0.98-0.25c0.45-0.75,3.25,0.43,7.4,3.13
		c4.88,3.18,7.3,5.18,12.13,10.03c3.9,3.93,5.08,4.95,6.38,5.6c3.2,1.6,5.83,3.53,8.35,6.1c2.95,2.98,4.48,5.23,7.63,11.1
		c5.35,10.08,7.78,17.53,7.9,24.38l0.05,3.2l4.6,1.6c2.5,0.88,6.55,2.3,8.95,3.2c2.4,0.88,5,1.8,5.75,2.05
		c1.5,0.47,2.25,1,2.25,1.55c0,0.2-0.75,2.03-1.68,4.03c-2.13,4.73-3.73,8.55-4.05,9.68c-0.3,1.1-1,0.7,9.05,4.93
		c4.3,1.78,8.53,3.6,9.43,4.08c2.3,1.15,2.45,0.1-2.53,16.33c-1.35,4.43-2.48,8.23-2.48,8.4c0,0.2,0.25,0.4,0.58,0.48
		c0.3,0.07,2.63,0.88,5.18,1.8c2.55,0.9,6.88,2.45,9.63,3.43c2.75,0.98,5.7,2.08,6.53,2.45l1.55,0.7l-0.23,1.2
		c-0.13,0.67-0.68,2.53-1.2,4.1c-0.55,1.58-2.3,7.15-3.88,12.38c-1.6,5.23-3.18,10.38-3.5,11.43l-0.6,1.93l0.78,0.25
		c0.45,0.12,3,0.83,5.68,1.53c2.68,0.72,7.03,1.95,9.63,2.78c5.58,1.7,40.13,13.25,43.76,14.6c3.3,1.25,5.88,2.55,5.88,3
		c0,1.3-2.53,7.73-5.83,14.75c-1.63,3.48-13.6,27.93-18.95,38.71l-1.83,3.73l-0.83-0.12c-1.1-0.17-3.05-1.2-13.1-6.85
		c-7.1-3.98-12.95-7.65-37.83-23.71c-16.18-10.45-29.96-19.4-30.61-19.88c-0.65-0.5-1.2-1.12-1.25-1.4c-0.05-0.3,0.7-1.58,1.85-3.23
		c3.1-4.45,29.61-44.38,30.13-45.46c0.28-0.53,0.48-1,0.43-1.05c-0.05-0.03-1.15-0.43-2.45-0.88c-1.3-0.45-4.95-1.83-8.13-3.05
		c-3.15-1.23-7.2-2.8-9-3.48c-1.78-0.7-3.4-1.4-3.6-1.6c-0.45-0.45-0.2-1.35,1.53-5.5c3.63-8.63,8.2-20.05,8.2-20.43
		c0-0.28-2.1-1.48-7.2-4.08c-3.95-2.03-7.33-3.8-7.5-3.95c-0.5-0.4-0.25-1.05,2.95-7.68c2.98-6.15,4-8.5,4-9.1
		c0-0.33-8.8-4.73-10.05-5.03c-0.83-0.2-0.68-0.65-1.95,6.75c-1.05,6.18-2.23,11.6-4.13,19c-1.05,4.13-4.05,16.88-5.8,24.5
		c-2.93,13-7.03,38.33-8.7,54.01c-2.45,22.81-2.63,23.71-7.28,35.68c-1.15,3-2.1,5.55-2.1,5.68s0.53,0.3,1.2,0.38
		c2.93,0.42,13.1,3.33,20.93,5.98c4.5,1.53,14.78,6.05,19,8.35c7.05,3.83,16.55,10.13,22.75,15.03c3.23,2.58,14.1,13.28,16.4,16.18
		c2.73,3.4,2.68,3.62-0.83,3.62c-1.43,0-3.98-0.12-5.7-0.25c-1.73-0.15-5.7-0.35-8.88-0.5c-8.58-0.38-12.08-0.7-16.38-1.53
		c-8.58-1.67-21.4-5.15-27.88-7.55c-11.8-4.43-27.76-12.9-36.71-19.53c-1.05-0.78-2.15-1.4-2.43-1.4c-0.28,0-2.35,0.77-4.6,1.72
		c-9.08,3.85-17.58,6.08-26.91,7.08c-4.53,0.47-15.23,0.4-19.75-0.12c-9.4-1.13-16.28-2.83-25.73-6.4c-1.85-0.7-3.45-1.28-3.53-1.28
		c-0.1,0-0.45,0.38-0.78,0.85c-1.18,1.65-8.65,9.83-13.1,14.3c-4.53,4.53-7.4,7.05-14.13,12.38c-5.43,4.33-6.68,5.2-15.25,10.65
		c-7.65,4.88-11.65,7.23-14.5,8.5c-12.1,5.43-17.7,7.68-21,8.43C1.08,11716.25,0.21,11716.25,0.01,11715.75z"/>
</g>
</svg>
